%TF.GenerationSoftware,KiCad,Pcbnew,9.0.0*%
%TF.CreationDate,2025-03-16T14:08:26-07:00*%
%TF.ProjectId,elan_interface,656c616e-5f69-46e7-9465-72666163652e,rev?*%
%TF.SameCoordinates,Original*%
%TF.FileFunction,Paste,Top*%
%TF.FilePolarity,Positive*%
%FSLAX46Y46*%
G04 Gerber Fmt 4.6, Leading zero omitted, Abs format (unit mm)*
G04 Created by KiCad (PCBNEW 9.0.0) date 2025-03-16 14:08:26*
%MOMM*%
%LPD*%
G01*
G04 APERTURE LIST*
G04 Aperture macros list*
%AMRoundRect*
0 Rectangle with rounded corners*
0 $1 Rounding radius*
0 $2 $3 $4 $5 $6 $7 $8 $9 X,Y pos of 4 corners*
0 Add a 4 corners polygon primitive as box body*
4,1,4,$2,$3,$4,$5,$6,$7,$8,$9,$2,$3,0*
0 Add four circle primitives for the rounded corners*
1,1,$1+$1,$2,$3*
1,1,$1+$1,$4,$5*
1,1,$1+$1,$6,$7*
1,1,$1+$1,$8,$9*
0 Add four rect primitives between the rounded corners*
20,1,$1+$1,$2,$3,$4,$5,0*
20,1,$1+$1,$4,$5,$6,$7,0*
20,1,$1+$1,$6,$7,$8,$9,0*
20,1,$1+$1,$8,$9,$2,$3,0*%
G04 Aperture macros list end*
%ADD10RoundRect,0.150000X-0.150000X0.587500X-0.150000X-0.587500X0.150000X-0.587500X0.150000X0.587500X0*%
%ADD11RoundRect,0.250000X0.450000X-0.350000X0.450000X0.350000X-0.450000X0.350000X-0.450000X-0.350000X0*%
%ADD12RoundRect,0.250000X-0.475000X0.337500X-0.475000X-0.337500X0.475000X-0.337500X0.475000X0.337500X0*%
%ADD13RoundRect,0.250000X-0.450000X0.350000X-0.450000X-0.350000X0.450000X-0.350000X0.450000X0.350000X0*%
%ADD14R,0.558800X1.460500*%
%ADD15RoundRect,0.150000X-0.587500X-0.150000X0.587500X-0.150000X0.587500X0.150000X-0.587500X0.150000X0*%
G04 APERTURE END LIST*
D10*
%TO.C,Q2*%
X178550000Y-80562500D03*
X176650000Y-80562500D03*
X177600000Y-82437500D03*
%TD*%
D11*
%TO.C,R16*%
X144400000Y-72900000D03*
X144400000Y-70900000D03*
%TD*%
D12*
%TO.C,C7*%
X127100000Y-79762500D03*
X127100000Y-81837500D03*
%TD*%
D10*
%TO.C,Q6*%
X169550000Y-80725000D03*
X167650000Y-80725000D03*
X168600000Y-82600000D03*
%TD*%
D11*
%TO.C,R17*%
X169800000Y-73000000D03*
X169800000Y-71000000D03*
%TD*%
D10*
%TO.C,Q4*%
X119400000Y-79862500D03*
X117500000Y-79862500D03*
X118450000Y-81737500D03*
%TD*%
D11*
%TO.C,R20*%
X156900000Y-72900000D03*
X156900000Y-70900000D03*
%TD*%
D10*
%TO.C,Q9*%
X161250000Y-71062500D03*
X159350000Y-71062500D03*
X160300000Y-72937500D03*
%TD*%
D13*
%TO.C,R4*%
X122950000Y-84500000D03*
X122950000Y-86500000D03*
%TD*%
%TO.C,R11*%
X146900000Y-80300000D03*
X146900000Y-82300000D03*
%TD*%
D12*
%TO.C,C1*%
X144800000Y-60962500D03*
X144800000Y-63037500D03*
%TD*%
D13*
%TO.C,R9*%
X163000000Y-80700000D03*
X163000000Y-82700000D03*
%TD*%
%TO.C,R2*%
X179000000Y-84500000D03*
X179000000Y-86500000D03*
%TD*%
D10*
%TO.C,Q8*%
X130950000Y-79862500D03*
X129050000Y-79862500D03*
X130000000Y-81737500D03*
%TD*%
D12*
%TO.C,C6*%
X165700000Y-80625000D03*
X165700000Y-82700000D03*
%TD*%
D13*
%TO.C,R5*%
X171400000Y-80700000D03*
X171400000Y-82700000D03*
%TD*%
%TO.C,R13*%
X183450000Y-69600000D03*
X183450000Y-71600000D03*
%TD*%
%TO.C,R3*%
X121650000Y-79800000D03*
X121650000Y-81800000D03*
%TD*%
D10*
%TO.C,Q10*%
X161050000Y-80725000D03*
X159150000Y-80725000D03*
X160100000Y-82600000D03*
%TD*%
%TO.C,Q7*%
X148384750Y-70859750D03*
X146484750Y-70859750D03*
X147434750Y-72734750D03*
%TD*%
D12*
%TO.C,C5*%
X115350000Y-79762500D03*
X115350000Y-81837500D03*
%TD*%
D13*
%TO.C,R6*%
X172600000Y-84700000D03*
X172600000Y-86700000D03*
%TD*%
D12*
%TO.C,C10*%
X179300000Y-69562500D03*
X179300000Y-71637500D03*
%TD*%
D10*
%TO.C,Q5*%
X167750000Y-71062500D03*
X165850000Y-71062500D03*
X166800000Y-72937500D03*
%TD*%
D12*
%TO.C,C9*%
X140900000Y-80262500D03*
X140900000Y-82337500D03*
%TD*%
D14*
%TO.C,U2*%
X144805000Y-52875850D03*
X143535000Y-52875850D03*
X142265000Y-52875850D03*
X140995000Y-52875850D03*
X140995000Y-58324150D03*
X142265000Y-58324150D03*
X143535000Y-58324150D03*
X144805000Y-58324150D03*
%TD*%
D12*
%TO.C,C11*%
X185500000Y-69562500D03*
X185500000Y-71637500D03*
%TD*%
D10*
%TO.C,Q12*%
X144850000Y-80362500D03*
X142950000Y-80362500D03*
X143900000Y-82237500D03*
%TD*%
D11*
%TO.C,R19*%
X163300000Y-72900000D03*
X163300000Y-70900000D03*
%TD*%
D10*
%TO.C,Q1*%
X174250000Y-71062500D03*
X172350000Y-71062500D03*
X173300000Y-72937500D03*
%TD*%
D12*
%TO.C,C8*%
X157220000Y-80675000D03*
X157220000Y-82750000D03*
%TD*%
D13*
%TO.C,R7*%
X132900000Y-79800000D03*
X132900000Y-81800000D03*
%TD*%
D12*
%TO.C,C2*%
X174700000Y-80362500D03*
X174700000Y-82437500D03*
%TD*%
D10*
%TO.C,Q3*%
X142250000Y-70962500D03*
X140350000Y-70962500D03*
X141300000Y-72837500D03*
%TD*%
D11*
%TO.C,R15*%
X176300000Y-73000000D03*
X176300000Y-71000000D03*
%TD*%
%TO.C,R18*%
X150334750Y-72765250D03*
X150334750Y-70765250D03*
%TD*%
D13*
%TO.C,R8*%
X133600000Y-84800000D03*
X133600000Y-86800000D03*
%TD*%
%TO.C,R1*%
X180600000Y-80500000D03*
X180600000Y-82500000D03*
%TD*%
D15*
%TO.C,Q13*%
X183162500Y-83550000D03*
X183162500Y-85450000D03*
X185037500Y-84500000D03*
%TD*%
D13*
%TO.C,R10*%
X160020000Y-84812500D03*
X160020000Y-86812500D03*
%TD*%
%TO.C,R14*%
X181400000Y-69600000D03*
X181400000Y-71600000D03*
%TD*%
%TO.C,R12*%
X143900000Y-84500000D03*
X143900000Y-86500000D03*
%TD*%
D10*
%TO.C,Q11*%
X154950000Y-70962500D03*
X153050000Y-70962500D03*
X154000000Y-72837500D03*
%TD*%
M02*
