%TF.GenerationSoftware,KiCad,Pcbnew,9.0.0*%
%TF.CreationDate,2025-03-16T14:08:26-07:00*%
%TF.ProjectId,elan_interface,656c616e-5f69-46e7-9465-72666163652e,rev?*%
%TF.SameCoordinates,Original*%
%TF.FileFunction,Soldermask,Bot*%
%TF.FilePolarity,Negative*%
%FSLAX46Y46*%
G04 Gerber Fmt 4.6, Leading zero omitted, Abs format (unit mm)*
G04 Created by KiCad (PCBNEW 9.0.0) date 2025-03-16 14:08:26*
%MOMM*%
%LPD*%
G01*
G04 APERTURE LIST*
G04 Aperture macros list*
%AMRoundRect*
0 Rectangle with rounded corners*
0 $1 Rounding radius*
0 $2 $3 $4 $5 $6 $7 $8 $9 X,Y pos of 4 corners*
0 Add a 4 corners polygon primitive as box body*
4,1,4,$2,$3,$4,$5,$6,$7,$8,$9,$2,$3,0*
0 Add four circle primitives for the rounded corners*
1,1,$1+$1,$2,$3*
1,1,$1+$1,$4,$5*
1,1,$1+$1,$6,$7*
1,1,$1+$1,$8,$9*
0 Add four rect primitives between the rounded corners*
20,1,$1+$1,$2,$3,$4,$5,0*
20,1,$1+$1,$4,$5,$6,$7,0*
20,1,$1+$1,$6,$7,$8,$9,0*
20,1,$1+$1,$8,$9,$2,$3,0*%
%AMFreePoly0*
4,1,37,0.603843,0.796157,0.639018,0.796157,0.711114,0.766294,0.766294,0.711114,0.796157,0.639018,0.796157,0.603843,0.800000,0.600000,0.800000,-0.600000,0.796157,-0.603843,0.796157,-0.639018,0.766294,-0.711114,0.711114,-0.766294,0.639018,-0.796157,0.603843,-0.796157,0.600000,-0.800000,0.000000,-0.800000,0.000000,-0.796148,-0.078414,-0.796148,-0.232228,-0.765552,-0.377117,-0.705537,
-0.507515,-0.618408,-0.618408,-0.507515,-0.705537,-0.377117,-0.765552,-0.232228,-0.796148,-0.078414,-0.796148,0.078414,-0.765552,0.232228,-0.705537,0.377117,-0.618408,0.507515,-0.507515,0.618408,-0.377117,0.705537,-0.232228,0.765552,-0.078414,0.796148,0.000000,0.796148,0.000000,0.800000,0.600000,0.800000,0.603843,0.796157,0.603843,0.796157,$1*%
%AMFreePoly1*
4,1,37,0.000000,0.796148,0.078414,0.796148,0.232228,0.765552,0.377117,0.705537,0.507515,0.618408,0.618408,0.507515,0.705537,0.377117,0.765552,0.232228,0.796148,0.078414,0.796148,-0.078414,0.765552,-0.232228,0.705537,-0.377117,0.618408,-0.507515,0.507515,-0.618408,0.377117,-0.705537,0.232228,-0.765552,0.078414,-0.796148,0.000000,-0.796148,0.000000,-0.800000,-0.600000,-0.800000,
-0.603843,-0.796157,-0.639018,-0.796157,-0.711114,-0.766294,-0.766294,-0.711114,-0.796157,-0.639018,-0.796157,-0.603843,-0.800000,-0.600000,-0.800000,0.600000,-0.796157,0.603843,-0.796157,0.639018,-0.766294,0.711114,-0.711114,0.766294,-0.639018,0.796157,-0.603843,0.796157,-0.600000,0.800000,0.000000,0.800000,0.000000,0.796148,0.000000,0.796148,$1*%
G04 Aperture macros list end*
%ADD10C,3.200000*%
%ADD11RoundRect,0.200000X-0.600000X0.600000X-0.600000X-0.600000X0.600000X-0.600000X0.600000X0.600000X0*%
%ADD12C,1.600000*%
%ADD13FreePoly0,270.000000*%
%ADD14FreePoly1,270.000000*%
%ADD15C,2.800000*%
%ADD16C,1.570000*%
%ADD17C,3.250000*%
%ADD18C,1.450000*%
G04 APERTURE END LIST*
D10*
%TO.C,H4*%
X201050000Y-20700000D03*
%TD*%
D11*
%TO.C,U1*%
X199820000Y-47720000D03*
D12*
X197280000Y-47720000D03*
D13*
X194740000Y-47720000D03*
D12*
X192200000Y-47720000D03*
X189660000Y-47720000D03*
X187120000Y-47720000D03*
X184580000Y-47720000D03*
D13*
X182040000Y-47720000D03*
D12*
X179500000Y-47720000D03*
X176960000Y-47720000D03*
X174420000Y-47720000D03*
X171880000Y-47720000D03*
D13*
X169340000Y-47720000D03*
D12*
X166800000Y-47720000D03*
X164260000Y-47720000D03*
X161720000Y-47720000D03*
X159180000Y-47720000D03*
D13*
X156640000Y-47720000D03*
D12*
X154100000Y-47720000D03*
X151560000Y-47720000D03*
X151560000Y-65500000D03*
X154100000Y-65500000D03*
D14*
X156640000Y-65500000D03*
D12*
X159180000Y-65500000D03*
X161720000Y-65500000D03*
X164260000Y-65500000D03*
X166800000Y-65500000D03*
D14*
X169340000Y-65500000D03*
D12*
X171880000Y-65500000D03*
X174420000Y-65500000D03*
X176960000Y-65500000D03*
X179500000Y-65500000D03*
D14*
X182040000Y-65500000D03*
D12*
X184580000Y-65500000D03*
X187120000Y-65500000D03*
X189660000Y-65500000D03*
X192200000Y-65500000D03*
D14*
X194740000Y-65500000D03*
D12*
X197280000Y-65500000D03*
X199820000Y-65500000D03*
%TD*%
D15*
%TO.C,J2*%
X192020000Y-85250000D03*
X199920000Y-83250000D03*
X197520000Y-85250000D03*
%TD*%
D10*
%TO.C,H2*%
X200000000Y-131000000D03*
%TD*%
D15*
%TO.C,J1*%
X192020000Y-75250000D03*
X199920000Y-73250000D03*
X197520000Y-75250000D03*
%TD*%
D16*
%TO.C,C3*%
X107645000Y-91360000D03*
X107645000Y-111420000D03*
X108405000Y-97710000D03*
D17*
X110435000Y-106850000D03*
D16*
X123135000Y-89580000D03*
X137105000Y-89580000D03*
D17*
X149805000Y-106850000D03*
D16*
X151835000Y-101010000D03*
X152595000Y-95420000D03*
X152595000Y-111420000D03*
D18*
X148535000Y-91360000D03*
X147265000Y-93900000D03*
X145995000Y-91360000D03*
X144725000Y-93900000D03*
X143455000Y-91360000D03*
X142185000Y-93900000D03*
X140915000Y-91360000D03*
X139645000Y-93900000D03*
X134565000Y-91360000D03*
X133295000Y-93900000D03*
X132025000Y-91360000D03*
X130755000Y-93900000D03*
X129485000Y-91360000D03*
X128215000Y-93900000D03*
X126945000Y-91360000D03*
X125675000Y-93900000D03*
X120595000Y-91360000D03*
X119325000Y-93900000D03*
X118055000Y-91360000D03*
X116785000Y-93900000D03*
X115515000Y-91360000D03*
X114245000Y-93900000D03*
X112975000Y-91360000D03*
X111705000Y-93900000D03*
X111705000Y-100500000D03*
X112975000Y-97960000D03*
X114245000Y-100500000D03*
X115515000Y-97960000D03*
X116785000Y-100500000D03*
X118055000Y-97960000D03*
X119325000Y-100500000D03*
X120595000Y-97960000D03*
X125675000Y-100500000D03*
X126945000Y-97960000D03*
X128215000Y-100500000D03*
X129485000Y-97960000D03*
X130755000Y-100500000D03*
X132025000Y-97960000D03*
X133295000Y-100500000D03*
X134565000Y-97960000D03*
X139645000Y-100500000D03*
X140915000Y-97960000D03*
X142185000Y-100500000D03*
X143455000Y-97960000D03*
X144725000Y-100500000D03*
X145995000Y-97960000D03*
X147265000Y-100500000D03*
X148535000Y-97960000D03*
%TD*%
D10*
%TO.C,H3*%
X200000000Y-36000000D03*
%TD*%
%TO.C,H1*%
X155150000Y-125400000D03*
%TD*%
D16*
%TO.C,C4*%
X155330000Y-91360000D03*
X155330000Y-111420000D03*
X156090000Y-97710000D03*
D17*
X158120000Y-106850000D03*
D16*
X170820000Y-89580000D03*
X184790000Y-89580000D03*
D17*
X197490000Y-106850000D03*
D16*
X199520000Y-101010000D03*
X200280000Y-95420000D03*
X200280000Y-111420000D03*
D18*
X196220000Y-91360000D03*
X194950000Y-93900000D03*
X193680000Y-91360000D03*
X192410000Y-93900000D03*
X191140000Y-91360000D03*
X189870000Y-93900000D03*
X188600000Y-91360000D03*
X187330000Y-93900000D03*
X182250000Y-91360000D03*
X180980000Y-93900000D03*
X179710000Y-91360000D03*
X178440000Y-93900000D03*
X177170000Y-91360000D03*
X175900000Y-93900000D03*
X174630000Y-91360000D03*
X173360000Y-93900000D03*
X168280000Y-91360000D03*
X167010000Y-93900000D03*
X165740000Y-91360000D03*
X164470000Y-93900000D03*
X163200000Y-91360000D03*
X161930000Y-93900000D03*
X160660000Y-91360000D03*
X159390000Y-93900000D03*
X159390000Y-100500000D03*
X160660000Y-97960000D03*
X161930000Y-100500000D03*
X163200000Y-97960000D03*
X164470000Y-100500000D03*
X165740000Y-97960000D03*
X167010000Y-100500000D03*
X168280000Y-97960000D03*
X173360000Y-100500000D03*
X174630000Y-97960000D03*
X175900000Y-100500000D03*
X177170000Y-97960000D03*
X178440000Y-100500000D03*
X179710000Y-97960000D03*
X180980000Y-100500000D03*
X182250000Y-97960000D03*
X187330000Y-100500000D03*
X188600000Y-97960000D03*
X189870000Y-100500000D03*
X191140000Y-97960000D03*
X192410000Y-100500000D03*
X193680000Y-97960000D03*
X194950000Y-100500000D03*
X196220000Y-97960000D03*
%TD*%
M02*
