%TF.GenerationSoftware,KiCad,Pcbnew,9.0.0*%
%TF.CreationDate,2025-03-16T14:09:19-07:00*%
%TF.ProjectId,elan_interface,656c616e-5f69-46e7-9465-72666163652e,rev?*%
%TF.SameCoordinates,Original*%
%TF.FileFunction,Drillmap*%
%TF.FilePolarity,Positive*%
%FSLAX45Y45*%
G04 Gerber Fmt 4.5, Leading zero omitted, Abs format (unit mm)*
G04 Created by KiCad (PCBNEW 9.0.0) date 2025-03-16 14:09:19*
%MOMM*%
%LPD*%
G01*
G04 APERTURE LIST*
%ADD10C,0.100000*%
%ADD11C,0.200000*%
%ADD12C,0.157000*%
%ADD13C,0.320000*%
%ADD14C,0.325000*%
G04 APERTURE END LIST*
D10*
X10600000Y-4500000D02*
X20200000Y-4500000D01*
X20200000Y-11500000D01*
X10600000Y-11500000D01*
X10600000Y-4500000D01*
D11*
D12*
X10686000Y-9057500D02*
X10843000Y-9214500D01*
X10843000Y-9057500D02*
X10686000Y-9214500D01*
X10686000Y-11063500D02*
X10843000Y-11220500D01*
X10843000Y-11063500D02*
X10686000Y-11220500D01*
X10762000Y-9692500D02*
X10919000Y-9849500D01*
X10919000Y-9692500D02*
X10762000Y-9849500D01*
X12235000Y-8879500D02*
X12392000Y-9036500D01*
X12392000Y-8879500D02*
X12235000Y-9036500D01*
X13632000Y-8879500D02*
X13789000Y-9036500D01*
X13789000Y-8879500D02*
X13632000Y-9036500D01*
X15105000Y-10022500D02*
X15262000Y-10179500D01*
X15262000Y-10022500D02*
X15105000Y-10179500D01*
X15181000Y-9463500D02*
X15338000Y-9620500D01*
X15338000Y-9463500D02*
X15181000Y-9620500D01*
X15181000Y-11063500D02*
X15338000Y-11220500D01*
X15338000Y-11063500D02*
X15181000Y-11220500D01*
X15454500Y-9057500D02*
X15611500Y-9214500D01*
X15611500Y-9057500D02*
X15454500Y-9214500D01*
X15454500Y-11063500D02*
X15611500Y-11220500D01*
X15611500Y-11063500D02*
X15454500Y-11220500D01*
X15530500Y-9692500D02*
X15687500Y-9849500D01*
X15687500Y-9692500D02*
X15530500Y-9849500D01*
X17003500Y-8879500D02*
X17160500Y-9036500D01*
X17160500Y-8879500D02*
X17003500Y-9036500D01*
X18400500Y-8879500D02*
X18557500Y-9036500D01*
X18557500Y-8879500D02*
X18400500Y-9036500D01*
X19873500Y-10022500D02*
X20030500Y-10179500D01*
X20030500Y-10022500D02*
X19873500Y-10179500D01*
X19949500Y-9463500D02*
X20106500Y-9620500D01*
X20106500Y-9463500D02*
X19949500Y-9620500D01*
X19949500Y-11063500D02*
X20106500Y-11220500D01*
X20106500Y-11063500D02*
X19949500Y-11220500D01*
D13*
X15675000Y-12540000D02*
G75*
G02*
X15355000Y-12540000I-160000J0D01*
G01*
X15355000Y-12540000D02*
G75*
G02*
X15675000Y-12540000I160000J0D01*
G01*
X20160000Y-3600000D02*
G75*
G02*
X19840000Y-3600000I-160000J0D01*
G01*
X19840000Y-3600000D02*
G75*
G02*
X20160000Y-3600000I160000J0D01*
G01*
X20160000Y-13100000D02*
G75*
G02*
X19840000Y-13100000I-160000J0D01*
G01*
X19840000Y-13100000D02*
G75*
G02*
X20160000Y-13100000I160000J0D01*
G01*
X20265000Y-2070000D02*
G75*
G02*
X19945000Y-2070000I-160000J0D01*
G01*
X19945000Y-2070000D02*
G75*
G02*
X20265000Y-2070000I160000J0D01*
G01*
D14*
X11043500Y-10522500D02*
X11043500Y-10847500D01*
X10881000Y-10685000D02*
X11206000Y-10685000D01*
X14980500Y-10522500D02*
X14980500Y-10847500D01*
X14818000Y-10685000D02*
X15143000Y-10685000D01*
X15812000Y-10522500D02*
X15812000Y-10847500D01*
X15649500Y-10685000D02*
X15974500Y-10685000D01*
X19749000Y-10522500D02*
X19749000Y-10847500D01*
X19586500Y-10685000D02*
X19911500Y-10685000D01*
D11*
X10855777Y-11816484D02*
X10855777Y-11616484D01*
X10855777Y-11616484D02*
X10903396Y-11616484D01*
X10903396Y-11616484D02*
X10931967Y-11626008D01*
X10931967Y-11626008D02*
X10951015Y-11645055D01*
X10951015Y-11645055D02*
X10960539Y-11664103D01*
X10960539Y-11664103D02*
X10970063Y-11702198D01*
X10970063Y-11702198D02*
X10970063Y-11730769D01*
X10970063Y-11730769D02*
X10960539Y-11768865D01*
X10960539Y-11768865D02*
X10951015Y-11787912D01*
X10951015Y-11787912D02*
X10931967Y-11806960D01*
X10931967Y-11806960D02*
X10903396Y-11816484D01*
X10903396Y-11816484D02*
X10855777Y-11816484D01*
X11055777Y-11816484D02*
X11055777Y-11683150D01*
X11055777Y-11721246D02*
X11065301Y-11702198D01*
X11065301Y-11702198D02*
X11074824Y-11692674D01*
X11074824Y-11692674D02*
X11093872Y-11683150D01*
X11093872Y-11683150D02*
X11112920Y-11683150D01*
X11179586Y-11816484D02*
X11179586Y-11683150D01*
X11179586Y-11616484D02*
X11170063Y-11626008D01*
X11170063Y-11626008D02*
X11179586Y-11635531D01*
X11179586Y-11635531D02*
X11189110Y-11626008D01*
X11189110Y-11626008D02*
X11179586Y-11616484D01*
X11179586Y-11616484D02*
X11179586Y-11635531D01*
X11303396Y-11816484D02*
X11284348Y-11806960D01*
X11284348Y-11806960D02*
X11274824Y-11787912D01*
X11274824Y-11787912D02*
X11274824Y-11616484D01*
X11408158Y-11816484D02*
X11389110Y-11806960D01*
X11389110Y-11806960D02*
X11379586Y-11787912D01*
X11379586Y-11787912D02*
X11379586Y-11616484D01*
X11636729Y-11816484D02*
X11636729Y-11616484D01*
X11636729Y-11616484D02*
X11703396Y-11759341D01*
X11703396Y-11759341D02*
X11770062Y-11616484D01*
X11770062Y-11616484D02*
X11770062Y-11816484D01*
X11951015Y-11816484D02*
X11951015Y-11711722D01*
X11951015Y-11711722D02*
X11941491Y-11692674D01*
X11941491Y-11692674D02*
X11922443Y-11683150D01*
X11922443Y-11683150D02*
X11884348Y-11683150D01*
X11884348Y-11683150D02*
X11865301Y-11692674D01*
X11951015Y-11806960D02*
X11931967Y-11816484D01*
X11931967Y-11816484D02*
X11884348Y-11816484D01*
X11884348Y-11816484D02*
X11865301Y-11806960D01*
X11865301Y-11806960D02*
X11855777Y-11787912D01*
X11855777Y-11787912D02*
X11855777Y-11768865D01*
X11855777Y-11768865D02*
X11865301Y-11749817D01*
X11865301Y-11749817D02*
X11884348Y-11740293D01*
X11884348Y-11740293D02*
X11931967Y-11740293D01*
X11931967Y-11740293D02*
X11951015Y-11730769D01*
X12046253Y-11683150D02*
X12046253Y-11883150D01*
X12046253Y-11692674D02*
X12065301Y-11683150D01*
X12065301Y-11683150D02*
X12103396Y-11683150D01*
X12103396Y-11683150D02*
X12122443Y-11692674D01*
X12122443Y-11692674D02*
X12131967Y-11702198D01*
X12131967Y-11702198D02*
X12141491Y-11721246D01*
X12141491Y-11721246D02*
X12141491Y-11778388D01*
X12141491Y-11778388D02*
X12131967Y-11797436D01*
X12131967Y-11797436D02*
X12122443Y-11806960D01*
X12122443Y-11806960D02*
X12103396Y-11816484D01*
X12103396Y-11816484D02*
X12065301Y-11816484D01*
X12065301Y-11816484D02*
X12046253Y-11806960D01*
X12227205Y-11797436D02*
X12236729Y-11806960D01*
X12236729Y-11806960D02*
X12227205Y-11816484D01*
X12227205Y-11816484D02*
X12217682Y-11806960D01*
X12217682Y-11806960D02*
X12227205Y-11797436D01*
X12227205Y-11797436D02*
X12227205Y-11816484D01*
X12227205Y-11692674D02*
X12236729Y-11702198D01*
X12236729Y-11702198D02*
X12227205Y-11711722D01*
X12227205Y-11711722D02*
X12217682Y-11702198D01*
X12217682Y-11702198D02*
X12227205Y-11692674D01*
X12227205Y-11692674D02*
X12227205Y-11711722D01*
D12*
X10438000Y-12066500D02*
X10595000Y-12223500D01*
X10595000Y-12066500D02*
X10438000Y-12223500D01*
D11*
X10960539Y-12236484D02*
X10846253Y-12236484D01*
X10903396Y-12236484D02*
X10903396Y-12036484D01*
X10903396Y-12036484D02*
X10884348Y-12065055D01*
X10884348Y-12065055D02*
X10865301Y-12084103D01*
X10865301Y-12084103D02*
X10846253Y-12093627D01*
X11046253Y-12217436D02*
X11055777Y-12226960D01*
X11055777Y-12226960D02*
X11046253Y-12236484D01*
X11046253Y-12236484D02*
X11036729Y-12226960D01*
X11036729Y-12226960D02*
X11046253Y-12217436D01*
X11046253Y-12217436D02*
X11046253Y-12236484D01*
X11236729Y-12036484D02*
X11141491Y-12036484D01*
X11141491Y-12036484D02*
X11131967Y-12131722D01*
X11131967Y-12131722D02*
X11141491Y-12122198D01*
X11141491Y-12122198D02*
X11160539Y-12112674D01*
X11160539Y-12112674D02*
X11208158Y-12112674D01*
X11208158Y-12112674D02*
X11227205Y-12122198D01*
X11227205Y-12122198D02*
X11236729Y-12131722D01*
X11236729Y-12131722D02*
X11246253Y-12150769D01*
X11246253Y-12150769D02*
X11246253Y-12198388D01*
X11246253Y-12198388D02*
X11236729Y-12217436D01*
X11236729Y-12217436D02*
X11227205Y-12226960D01*
X11227205Y-12226960D02*
X11208158Y-12236484D01*
X11208158Y-12236484D02*
X11160539Y-12236484D01*
X11160539Y-12236484D02*
X11141491Y-12226960D01*
X11141491Y-12226960D02*
X11131967Y-12217436D01*
X11312920Y-12036484D02*
X11446253Y-12036484D01*
X11446253Y-12036484D02*
X11360539Y-12236484D01*
X11560539Y-12036484D02*
X11579586Y-12036484D01*
X11579586Y-12036484D02*
X11598634Y-12046008D01*
X11598634Y-12046008D02*
X11608158Y-12055531D01*
X11608158Y-12055531D02*
X11617682Y-12074579D01*
X11617682Y-12074579D02*
X11627205Y-12112674D01*
X11627205Y-12112674D02*
X11627205Y-12160293D01*
X11627205Y-12160293D02*
X11617682Y-12198388D01*
X11617682Y-12198388D02*
X11608158Y-12217436D01*
X11608158Y-12217436D02*
X11598634Y-12226960D01*
X11598634Y-12226960D02*
X11579586Y-12236484D01*
X11579586Y-12236484D02*
X11560539Y-12236484D01*
X11560539Y-12236484D02*
X11541491Y-12226960D01*
X11541491Y-12226960D02*
X11531967Y-12217436D01*
X11531967Y-12217436D02*
X11522443Y-12198388D01*
X11522443Y-12198388D02*
X11512920Y-12160293D01*
X11512920Y-12160293D02*
X11512920Y-12112674D01*
X11512920Y-12112674D02*
X11522443Y-12074579D01*
X11522443Y-12074579D02*
X11531967Y-12055531D01*
X11531967Y-12055531D02*
X11541491Y-12046008D01*
X11541491Y-12046008D02*
X11560539Y-12036484D01*
X11712920Y-12236484D02*
X11712920Y-12103150D01*
X11712920Y-12122198D02*
X11722443Y-12112674D01*
X11722443Y-12112674D02*
X11741491Y-12103150D01*
X11741491Y-12103150D02*
X11770063Y-12103150D01*
X11770063Y-12103150D02*
X11789110Y-12112674D01*
X11789110Y-12112674D02*
X11798634Y-12131722D01*
X11798634Y-12131722D02*
X11798634Y-12236484D01*
X11798634Y-12131722D02*
X11808158Y-12112674D01*
X11808158Y-12112674D02*
X11827205Y-12103150D01*
X11827205Y-12103150D02*
X11855777Y-12103150D01*
X11855777Y-12103150D02*
X11874824Y-12112674D01*
X11874824Y-12112674D02*
X11884348Y-12131722D01*
X11884348Y-12131722D02*
X11884348Y-12236484D01*
X11979586Y-12236484D02*
X11979586Y-12103150D01*
X11979586Y-12122198D02*
X11989110Y-12112674D01*
X11989110Y-12112674D02*
X12008158Y-12103150D01*
X12008158Y-12103150D02*
X12036729Y-12103150D01*
X12036729Y-12103150D02*
X12055777Y-12112674D01*
X12055777Y-12112674D02*
X12065301Y-12131722D01*
X12065301Y-12131722D02*
X12065301Y-12236484D01*
X12065301Y-12131722D02*
X12074824Y-12112674D01*
X12074824Y-12112674D02*
X12093872Y-12103150D01*
X12093872Y-12103150D02*
X12122443Y-12103150D01*
X12122443Y-12103150D02*
X12141491Y-12112674D01*
X12141491Y-12112674D02*
X12151015Y-12131722D01*
X12151015Y-12131722D02*
X12151015Y-12236484D01*
X12541491Y-12026960D02*
X12370063Y-12284103D01*
X12798634Y-12036484D02*
X12817682Y-12036484D01*
X12817682Y-12036484D02*
X12836729Y-12046008D01*
X12836729Y-12046008D02*
X12846253Y-12055531D01*
X12846253Y-12055531D02*
X12855777Y-12074579D01*
X12855777Y-12074579D02*
X12865301Y-12112674D01*
X12865301Y-12112674D02*
X12865301Y-12160293D01*
X12865301Y-12160293D02*
X12855777Y-12198388D01*
X12855777Y-12198388D02*
X12846253Y-12217436D01*
X12846253Y-12217436D02*
X12836729Y-12226960D01*
X12836729Y-12226960D02*
X12817682Y-12236484D01*
X12817682Y-12236484D02*
X12798634Y-12236484D01*
X12798634Y-12236484D02*
X12779586Y-12226960D01*
X12779586Y-12226960D02*
X12770063Y-12217436D01*
X12770063Y-12217436D02*
X12760539Y-12198388D01*
X12760539Y-12198388D02*
X12751015Y-12160293D01*
X12751015Y-12160293D02*
X12751015Y-12112674D01*
X12751015Y-12112674D02*
X12760539Y-12074579D01*
X12760539Y-12074579D02*
X12770063Y-12055531D01*
X12770063Y-12055531D02*
X12779586Y-12046008D01*
X12779586Y-12046008D02*
X12798634Y-12036484D01*
X12951015Y-12217436D02*
X12960539Y-12226960D01*
X12960539Y-12226960D02*
X12951015Y-12236484D01*
X12951015Y-12236484D02*
X12941491Y-12226960D01*
X12941491Y-12226960D02*
X12951015Y-12217436D01*
X12951015Y-12217436D02*
X12951015Y-12236484D01*
X13084348Y-12036484D02*
X13103396Y-12036484D01*
X13103396Y-12036484D02*
X13122444Y-12046008D01*
X13122444Y-12046008D02*
X13131967Y-12055531D01*
X13131967Y-12055531D02*
X13141491Y-12074579D01*
X13141491Y-12074579D02*
X13151015Y-12112674D01*
X13151015Y-12112674D02*
X13151015Y-12160293D01*
X13151015Y-12160293D02*
X13141491Y-12198388D01*
X13141491Y-12198388D02*
X13131967Y-12217436D01*
X13131967Y-12217436D02*
X13122444Y-12226960D01*
X13122444Y-12226960D02*
X13103396Y-12236484D01*
X13103396Y-12236484D02*
X13084348Y-12236484D01*
X13084348Y-12236484D02*
X13065301Y-12226960D01*
X13065301Y-12226960D02*
X13055777Y-12217436D01*
X13055777Y-12217436D02*
X13046253Y-12198388D01*
X13046253Y-12198388D02*
X13036729Y-12160293D01*
X13036729Y-12160293D02*
X13036729Y-12112674D01*
X13036729Y-12112674D02*
X13046253Y-12074579D01*
X13046253Y-12074579D02*
X13055777Y-12055531D01*
X13055777Y-12055531D02*
X13065301Y-12046008D01*
X13065301Y-12046008D02*
X13084348Y-12036484D01*
X13322444Y-12036484D02*
X13284348Y-12036484D01*
X13284348Y-12036484D02*
X13265301Y-12046008D01*
X13265301Y-12046008D02*
X13255777Y-12055531D01*
X13255777Y-12055531D02*
X13236729Y-12084103D01*
X13236729Y-12084103D02*
X13227206Y-12122198D01*
X13227206Y-12122198D02*
X13227206Y-12198388D01*
X13227206Y-12198388D02*
X13236729Y-12217436D01*
X13236729Y-12217436D02*
X13246253Y-12226960D01*
X13246253Y-12226960D02*
X13265301Y-12236484D01*
X13265301Y-12236484D02*
X13303396Y-12236484D01*
X13303396Y-12236484D02*
X13322444Y-12226960D01*
X13322444Y-12226960D02*
X13331967Y-12217436D01*
X13331967Y-12217436D02*
X13341491Y-12198388D01*
X13341491Y-12198388D02*
X13341491Y-12150769D01*
X13341491Y-12150769D02*
X13331967Y-12131722D01*
X13331967Y-12131722D02*
X13322444Y-12122198D01*
X13322444Y-12122198D02*
X13303396Y-12112674D01*
X13303396Y-12112674D02*
X13265301Y-12112674D01*
X13265301Y-12112674D02*
X13246253Y-12122198D01*
X13246253Y-12122198D02*
X13236729Y-12131722D01*
X13236729Y-12131722D02*
X13227206Y-12150769D01*
X13531967Y-12236484D02*
X13417682Y-12236484D01*
X13474825Y-12236484D02*
X13474825Y-12036484D01*
X13474825Y-12036484D02*
X13455777Y-12065055D01*
X13455777Y-12065055D02*
X13436729Y-12084103D01*
X13436729Y-12084103D02*
X13417682Y-12093627D01*
X13646253Y-12122198D02*
X13627206Y-12112674D01*
X13627206Y-12112674D02*
X13617682Y-12103150D01*
X13617682Y-12103150D02*
X13608158Y-12084103D01*
X13608158Y-12084103D02*
X13608158Y-12074579D01*
X13608158Y-12074579D02*
X13617682Y-12055531D01*
X13617682Y-12055531D02*
X13627206Y-12046008D01*
X13627206Y-12046008D02*
X13646253Y-12036484D01*
X13646253Y-12036484D02*
X13684348Y-12036484D01*
X13684348Y-12036484D02*
X13703396Y-12046008D01*
X13703396Y-12046008D02*
X13712920Y-12055531D01*
X13712920Y-12055531D02*
X13722444Y-12074579D01*
X13722444Y-12074579D02*
X13722444Y-12084103D01*
X13722444Y-12084103D02*
X13712920Y-12103150D01*
X13712920Y-12103150D02*
X13703396Y-12112674D01*
X13703396Y-12112674D02*
X13684348Y-12122198D01*
X13684348Y-12122198D02*
X13646253Y-12122198D01*
X13646253Y-12122198D02*
X13627206Y-12131722D01*
X13627206Y-12131722D02*
X13617682Y-12141246D01*
X13617682Y-12141246D02*
X13608158Y-12160293D01*
X13608158Y-12160293D02*
X13608158Y-12198388D01*
X13608158Y-12198388D02*
X13617682Y-12217436D01*
X13617682Y-12217436D02*
X13627206Y-12226960D01*
X13627206Y-12226960D02*
X13646253Y-12236484D01*
X13646253Y-12236484D02*
X13684348Y-12236484D01*
X13684348Y-12236484D02*
X13703396Y-12226960D01*
X13703396Y-12226960D02*
X13712920Y-12217436D01*
X13712920Y-12217436D02*
X13722444Y-12198388D01*
X13722444Y-12198388D02*
X13722444Y-12160293D01*
X13722444Y-12160293D02*
X13712920Y-12141246D01*
X13712920Y-12141246D02*
X13703396Y-12131722D01*
X13703396Y-12131722D02*
X13684348Y-12122198D01*
X13798634Y-12036484D02*
X13798634Y-12074579D01*
X13874825Y-12036484D02*
X13874825Y-12074579D01*
X14170063Y-12312674D02*
X14160539Y-12303150D01*
X14160539Y-12303150D02*
X14141491Y-12274579D01*
X14141491Y-12274579D02*
X14131968Y-12255531D01*
X14131968Y-12255531D02*
X14122444Y-12226960D01*
X14122444Y-12226960D02*
X14112920Y-12179341D01*
X14112920Y-12179341D02*
X14112920Y-12141246D01*
X14112920Y-12141246D02*
X14122444Y-12093627D01*
X14122444Y-12093627D02*
X14131968Y-12065055D01*
X14131968Y-12065055D02*
X14141491Y-12046008D01*
X14141491Y-12046008D02*
X14160539Y-12017436D01*
X14160539Y-12017436D02*
X14170063Y-12007912D01*
X14351015Y-12236484D02*
X14236729Y-12236484D01*
X14293872Y-12236484D02*
X14293872Y-12036484D01*
X14293872Y-12036484D02*
X14274825Y-12065055D01*
X14274825Y-12065055D02*
X14255777Y-12084103D01*
X14255777Y-12084103D02*
X14236729Y-12093627D01*
X14522444Y-12036484D02*
X14484348Y-12036484D01*
X14484348Y-12036484D02*
X14465301Y-12046008D01*
X14465301Y-12046008D02*
X14455777Y-12055531D01*
X14455777Y-12055531D02*
X14436729Y-12084103D01*
X14436729Y-12084103D02*
X14427206Y-12122198D01*
X14427206Y-12122198D02*
X14427206Y-12198388D01*
X14427206Y-12198388D02*
X14436729Y-12217436D01*
X14436729Y-12217436D02*
X14446253Y-12226960D01*
X14446253Y-12226960D02*
X14465301Y-12236484D01*
X14465301Y-12236484D02*
X14503396Y-12236484D01*
X14503396Y-12236484D02*
X14522444Y-12226960D01*
X14522444Y-12226960D02*
X14531968Y-12217436D01*
X14531968Y-12217436D02*
X14541491Y-12198388D01*
X14541491Y-12198388D02*
X14541491Y-12150769D01*
X14541491Y-12150769D02*
X14531968Y-12131722D01*
X14531968Y-12131722D02*
X14522444Y-12122198D01*
X14522444Y-12122198D02*
X14503396Y-12112674D01*
X14503396Y-12112674D02*
X14465301Y-12112674D01*
X14465301Y-12112674D02*
X14446253Y-12122198D01*
X14446253Y-12122198D02*
X14436729Y-12131722D01*
X14436729Y-12131722D02*
X14427206Y-12150769D01*
X14779587Y-12236484D02*
X14779587Y-12036484D01*
X14865301Y-12236484D02*
X14865301Y-12131722D01*
X14865301Y-12131722D02*
X14855777Y-12112674D01*
X14855777Y-12112674D02*
X14836730Y-12103150D01*
X14836730Y-12103150D02*
X14808158Y-12103150D01*
X14808158Y-12103150D02*
X14789110Y-12112674D01*
X14789110Y-12112674D02*
X14779587Y-12122198D01*
X14989110Y-12236484D02*
X14970063Y-12226960D01*
X14970063Y-12226960D02*
X14960539Y-12217436D01*
X14960539Y-12217436D02*
X14951015Y-12198388D01*
X14951015Y-12198388D02*
X14951015Y-12141246D01*
X14951015Y-12141246D02*
X14960539Y-12122198D01*
X14960539Y-12122198D02*
X14970063Y-12112674D01*
X14970063Y-12112674D02*
X14989110Y-12103150D01*
X14989110Y-12103150D02*
X15017682Y-12103150D01*
X15017682Y-12103150D02*
X15036730Y-12112674D01*
X15036730Y-12112674D02*
X15046253Y-12122198D01*
X15046253Y-12122198D02*
X15055777Y-12141246D01*
X15055777Y-12141246D02*
X15055777Y-12198388D01*
X15055777Y-12198388D02*
X15046253Y-12217436D01*
X15046253Y-12217436D02*
X15036730Y-12226960D01*
X15036730Y-12226960D02*
X15017682Y-12236484D01*
X15017682Y-12236484D02*
X14989110Y-12236484D01*
X15170063Y-12236484D02*
X15151015Y-12226960D01*
X15151015Y-12226960D02*
X15141491Y-12207912D01*
X15141491Y-12207912D02*
X15141491Y-12036484D01*
X15322444Y-12226960D02*
X15303396Y-12236484D01*
X15303396Y-12236484D02*
X15265301Y-12236484D01*
X15265301Y-12236484D02*
X15246253Y-12226960D01*
X15246253Y-12226960D02*
X15236730Y-12207912D01*
X15236730Y-12207912D02*
X15236730Y-12131722D01*
X15236730Y-12131722D02*
X15246253Y-12112674D01*
X15246253Y-12112674D02*
X15265301Y-12103150D01*
X15265301Y-12103150D02*
X15303396Y-12103150D01*
X15303396Y-12103150D02*
X15322444Y-12112674D01*
X15322444Y-12112674D02*
X15331968Y-12131722D01*
X15331968Y-12131722D02*
X15331968Y-12150769D01*
X15331968Y-12150769D02*
X15236730Y-12169817D01*
X15408158Y-12226960D02*
X15427206Y-12236484D01*
X15427206Y-12236484D02*
X15465301Y-12236484D01*
X15465301Y-12236484D02*
X15484349Y-12226960D01*
X15484349Y-12226960D02*
X15493872Y-12207912D01*
X15493872Y-12207912D02*
X15493872Y-12198388D01*
X15493872Y-12198388D02*
X15484349Y-12179341D01*
X15484349Y-12179341D02*
X15465301Y-12169817D01*
X15465301Y-12169817D02*
X15436730Y-12169817D01*
X15436730Y-12169817D02*
X15417682Y-12160293D01*
X15417682Y-12160293D02*
X15408158Y-12141246D01*
X15408158Y-12141246D02*
X15408158Y-12131722D01*
X15408158Y-12131722D02*
X15417682Y-12112674D01*
X15417682Y-12112674D02*
X15436730Y-12103150D01*
X15436730Y-12103150D02*
X15465301Y-12103150D01*
X15465301Y-12103150D02*
X15484349Y-12112674D01*
X15560539Y-12312674D02*
X15570063Y-12303150D01*
X15570063Y-12303150D02*
X15589111Y-12274579D01*
X15589111Y-12274579D02*
X15598634Y-12255531D01*
X15598634Y-12255531D02*
X15608158Y-12226960D01*
X15608158Y-12226960D02*
X15617682Y-12179341D01*
X15617682Y-12179341D02*
X15617682Y-12141246D01*
X15617682Y-12141246D02*
X15608158Y-12093627D01*
X15608158Y-12093627D02*
X15598634Y-12065055D01*
X15598634Y-12065055D02*
X15589111Y-12046008D01*
X15589111Y-12046008D02*
X15570063Y-12017436D01*
X15570063Y-12017436D02*
X15560539Y-12007912D01*
X15922444Y-12312674D02*
X15912920Y-12303150D01*
X15912920Y-12303150D02*
X15893872Y-12274579D01*
X15893872Y-12274579D02*
X15884349Y-12255531D01*
X15884349Y-12255531D02*
X15874825Y-12226960D01*
X15874825Y-12226960D02*
X15865301Y-12179341D01*
X15865301Y-12179341D02*
X15865301Y-12141246D01*
X15865301Y-12141246D02*
X15874825Y-12093627D01*
X15874825Y-12093627D02*
X15884349Y-12065055D01*
X15884349Y-12065055D02*
X15893872Y-12046008D01*
X15893872Y-12046008D02*
X15912920Y-12017436D01*
X15912920Y-12017436D02*
X15922444Y-12007912D01*
X15998634Y-12103150D02*
X15998634Y-12236484D01*
X15998634Y-12122198D02*
X16008158Y-12112674D01*
X16008158Y-12112674D02*
X16027206Y-12103150D01*
X16027206Y-12103150D02*
X16055777Y-12103150D01*
X16055777Y-12103150D02*
X16074825Y-12112674D01*
X16074825Y-12112674D02*
X16084349Y-12131722D01*
X16084349Y-12131722D02*
X16084349Y-12236484D01*
X16208158Y-12236484D02*
X16189111Y-12226960D01*
X16189111Y-12226960D02*
X16179587Y-12217436D01*
X16179587Y-12217436D02*
X16170063Y-12198388D01*
X16170063Y-12198388D02*
X16170063Y-12141246D01*
X16170063Y-12141246D02*
X16179587Y-12122198D01*
X16179587Y-12122198D02*
X16189111Y-12112674D01*
X16189111Y-12112674D02*
X16208158Y-12103150D01*
X16208158Y-12103150D02*
X16236730Y-12103150D01*
X16236730Y-12103150D02*
X16255777Y-12112674D01*
X16255777Y-12112674D02*
X16265301Y-12122198D01*
X16265301Y-12122198D02*
X16274825Y-12141246D01*
X16274825Y-12141246D02*
X16274825Y-12198388D01*
X16274825Y-12198388D02*
X16265301Y-12217436D01*
X16265301Y-12217436D02*
X16255777Y-12226960D01*
X16255777Y-12226960D02*
X16236730Y-12236484D01*
X16236730Y-12236484D02*
X16208158Y-12236484D01*
X16331968Y-12103150D02*
X16408158Y-12103150D01*
X16360539Y-12036484D02*
X16360539Y-12207912D01*
X16360539Y-12207912D02*
X16370063Y-12226960D01*
X16370063Y-12226960D02*
X16389111Y-12236484D01*
X16389111Y-12236484D02*
X16408158Y-12236484D01*
X16627206Y-12103150D02*
X16627206Y-12303150D01*
X16627206Y-12112674D02*
X16646253Y-12103150D01*
X16646253Y-12103150D02*
X16684349Y-12103150D01*
X16684349Y-12103150D02*
X16703396Y-12112674D01*
X16703396Y-12112674D02*
X16712920Y-12122198D01*
X16712920Y-12122198D02*
X16722444Y-12141246D01*
X16722444Y-12141246D02*
X16722444Y-12198388D01*
X16722444Y-12198388D02*
X16712920Y-12217436D01*
X16712920Y-12217436D02*
X16703396Y-12226960D01*
X16703396Y-12226960D02*
X16684349Y-12236484D01*
X16684349Y-12236484D02*
X16646253Y-12236484D01*
X16646253Y-12236484D02*
X16627206Y-12226960D01*
X16836730Y-12236484D02*
X16817682Y-12226960D01*
X16817682Y-12226960D02*
X16808158Y-12207912D01*
X16808158Y-12207912D02*
X16808158Y-12036484D01*
X16998635Y-12236484D02*
X16998635Y-12131722D01*
X16998635Y-12131722D02*
X16989111Y-12112674D01*
X16989111Y-12112674D02*
X16970063Y-12103150D01*
X16970063Y-12103150D02*
X16931968Y-12103150D01*
X16931968Y-12103150D02*
X16912920Y-12112674D01*
X16998635Y-12226960D02*
X16979587Y-12236484D01*
X16979587Y-12236484D02*
X16931968Y-12236484D01*
X16931968Y-12236484D02*
X16912920Y-12226960D01*
X16912920Y-12226960D02*
X16903396Y-12207912D01*
X16903396Y-12207912D02*
X16903396Y-12188865D01*
X16903396Y-12188865D02*
X16912920Y-12169817D01*
X16912920Y-12169817D02*
X16931968Y-12160293D01*
X16931968Y-12160293D02*
X16979587Y-12160293D01*
X16979587Y-12160293D02*
X16998635Y-12150769D01*
X17065301Y-12103150D02*
X17141492Y-12103150D01*
X17093873Y-12036484D02*
X17093873Y-12207912D01*
X17093873Y-12207912D02*
X17103396Y-12226960D01*
X17103396Y-12226960D02*
X17122444Y-12236484D01*
X17122444Y-12236484D02*
X17141492Y-12236484D01*
X17284349Y-12226960D02*
X17265301Y-12236484D01*
X17265301Y-12236484D02*
X17227206Y-12236484D01*
X17227206Y-12236484D02*
X17208158Y-12226960D01*
X17208158Y-12226960D02*
X17198635Y-12207912D01*
X17198635Y-12207912D02*
X17198635Y-12131722D01*
X17198635Y-12131722D02*
X17208158Y-12112674D01*
X17208158Y-12112674D02*
X17227206Y-12103150D01*
X17227206Y-12103150D02*
X17265301Y-12103150D01*
X17265301Y-12103150D02*
X17284349Y-12112674D01*
X17284349Y-12112674D02*
X17293873Y-12131722D01*
X17293873Y-12131722D02*
X17293873Y-12150769D01*
X17293873Y-12150769D02*
X17198635Y-12169817D01*
X17465301Y-12236484D02*
X17465301Y-12036484D01*
X17465301Y-12226960D02*
X17446254Y-12236484D01*
X17446254Y-12236484D02*
X17408158Y-12236484D01*
X17408158Y-12236484D02*
X17389111Y-12226960D01*
X17389111Y-12226960D02*
X17379587Y-12217436D01*
X17379587Y-12217436D02*
X17370063Y-12198388D01*
X17370063Y-12198388D02*
X17370063Y-12141246D01*
X17370063Y-12141246D02*
X17379587Y-12122198D01*
X17379587Y-12122198D02*
X17389111Y-12112674D01*
X17389111Y-12112674D02*
X17408158Y-12103150D01*
X17408158Y-12103150D02*
X17446254Y-12103150D01*
X17446254Y-12103150D02*
X17465301Y-12112674D01*
X17541492Y-12312674D02*
X17551016Y-12303150D01*
X17551016Y-12303150D02*
X17570063Y-12274579D01*
X17570063Y-12274579D02*
X17579587Y-12255531D01*
X17579587Y-12255531D02*
X17589111Y-12226960D01*
X17589111Y-12226960D02*
X17598635Y-12179341D01*
X17598635Y-12179341D02*
X17598635Y-12141246D01*
X17598635Y-12141246D02*
X17589111Y-12093627D01*
X17589111Y-12093627D02*
X17579587Y-12065055D01*
X17579587Y-12065055D02*
X17570063Y-12046008D01*
X17570063Y-12046008D02*
X17551016Y-12017436D01*
X17551016Y-12017436D02*
X17541492Y-12007912D01*
X10595000Y-12422000D02*
G75*
G02*
X10395000Y-12422000I-100000J0D01*
G01*
X10395000Y-12422000D02*
G75*
G02*
X10595000Y-12422000I100000J0D01*
G01*
X10836729Y-12313484D02*
X10960539Y-12313484D01*
X10960539Y-12313484D02*
X10893872Y-12389674D01*
X10893872Y-12389674D02*
X10922444Y-12389674D01*
X10922444Y-12389674D02*
X10941491Y-12399198D01*
X10941491Y-12399198D02*
X10951015Y-12408722D01*
X10951015Y-12408722D02*
X10960539Y-12427769D01*
X10960539Y-12427769D02*
X10960539Y-12475388D01*
X10960539Y-12475388D02*
X10951015Y-12494436D01*
X10951015Y-12494436D02*
X10941491Y-12503960D01*
X10941491Y-12503960D02*
X10922444Y-12513484D01*
X10922444Y-12513484D02*
X10865301Y-12513484D01*
X10865301Y-12513484D02*
X10846253Y-12503960D01*
X10846253Y-12503960D02*
X10836729Y-12494436D01*
X11046253Y-12494436D02*
X11055777Y-12503960D01*
X11055777Y-12503960D02*
X11046253Y-12513484D01*
X11046253Y-12513484D02*
X11036729Y-12503960D01*
X11036729Y-12503960D02*
X11046253Y-12494436D01*
X11046253Y-12494436D02*
X11046253Y-12513484D01*
X11131967Y-12332531D02*
X11141491Y-12323008D01*
X11141491Y-12323008D02*
X11160539Y-12313484D01*
X11160539Y-12313484D02*
X11208158Y-12313484D01*
X11208158Y-12313484D02*
X11227205Y-12323008D01*
X11227205Y-12323008D02*
X11236729Y-12332531D01*
X11236729Y-12332531D02*
X11246253Y-12351579D01*
X11246253Y-12351579D02*
X11246253Y-12370627D01*
X11246253Y-12370627D02*
X11236729Y-12399198D01*
X11236729Y-12399198D02*
X11122444Y-12513484D01*
X11122444Y-12513484D02*
X11246253Y-12513484D01*
X11370062Y-12313484D02*
X11389110Y-12313484D01*
X11389110Y-12313484D02*
X11408158Y-12323008D01*
X11408158Y-12323008D02*
X11417682Y-12332531D01*
X11417682Y-12332531D02*
X11427205Y-12351579D01*
X11427205Y-12351579D02*
X11436729Y-12389674D01*
X11436729Y-12389674D02*
X11436729Y-12437293D01*
X11436729Y-12437293D02*
X11427205Y-12475388D01*
X11427205Y-12475388D02*
X11417682Y-12494436D01*
X11417682Y-12494436D02*
X11408158Y-12503960D01*
X11408158Y-12503960D02*
X11389110Y-12513484D01*
X11389110Y-12513484D02*
X11370062Y-12513484D01*
X11370062Y-12513484D02*
X11351015Y-12503960D01*
X11351015Y-12503960D02*
X11341491Y-12494436D01*
X11341491Y-12494436D02*
X11331967Y-12475388D01*
X11331967Y-12475388D02*
X11322443Y-12437293D01*
X11322443Y-12437293D02*
X11322443Y-12389674D01*
X11322443Y-12389674D02*
X11331967Y-12351579D01*
X11331967Y-12351579D02*
X11341491Y-12332531D01*
X11341491Y-12332531D02*
X11351015Y-12323008D01*
X11351015Y-12323008D02*
X11370062Y-12313484D01*
X11560539Y-12313484D02*
X11579586Y-12313484D01*
X11579586Y-12313484D02*
X11598634Y-12323008D01*
X11598634Y-12323008D02*
X11608158Y-12332531D01*
X11608158Y-12332531D02*
X11617682Y-12351579D01*
X11617682Y-12351579D02*
X11627205Y-12389674D01*
X11627205Y-12389674D02*
X11627205Y-12437293D01*
X11627205Y-12437293D02*
X11617682Y-12475388D01*
X11617682Y-12475388D02*
X11608158Y-12494436D01*
X11608158Y-12494436D02*
X11598634Y-12503960D01*
X11598634Y-12503960D02*
X11579586Y-12513484D01*
X11579586Y-12513484D02*
X11560539Y-12513484D01*
X11560539Y-12513484D02*
X11541491Y-12503960D01*
X11541491Y-12503960D02*
X11531967Y-12494436D01*
X11531967Y-12494436D02*
X11522443Y-12475388D01*
X11522443Y-12475388D02*
X11512920Y-12437293D01*
X11512920Y-12437293D02*
X11512920Y-12389674D01*
X11512920Y-12389674D02*
X11522443Y-12351579D01*
X11522443Y-12351579D02*
X11531967Y-12332531D01*
X11531967Y-12332531D02*
X11541491Y-12323008D01*
X11541491Y-12323008D02*
X11560539Y-12313484D01*
X11712920Y-12513484D02*
X11712920Y-12380150D01*
X11712920Y-12399198D02*
X11722443Y-12389674D01*
X11722443Y-12389674D02*
X11741491Y-12380150D01*
X11741491Y-12380150D02*
X11770063Y-12380150D01*
X11770063Y-12380150D02*
X11789110Y-12389674D01*
X11789110Y-12389674D02*
X11798634Y-12408722D01*
X11798634Y-12408722D02*
X11798634Y-12513484D01*
X11798634Y-12408722D02*
X11808158Y-12389674D01*
X11808158Y-12389674D02*
X11827205Y-12380150D01*
X11827205Y-12380150D02*
X11855777Y-12380150D01*
X11855777Y-12380150D02*
X11874824Y-12389674D01*
X11874824Y-12389674D02*
X11884348Y-12408722D01*
X11884348Y-12408722D02*
X11884348Y-12513484D01*
X11979586Y-12513484D02*
X11979586Y-12380150D01*
X11979586Y-12399198D02*
X11989110Y-12389674D01*
X11989110Y-12389674D02*
X12008158Y-12380150D01*
X12008158Y-12380150D02*
X12036729Y-12380150D01*
X12036729Y-12380150D02*
X12055777Y-12389674D01*
X12055777Y-12389674D02*
X12065301Y-12408722D01*
X12065301Y-12408722D02*
X12065301Y-12513484D01*
X12065301Y-12408722D02*
X12074824Y-12389674D01*
X12074824Y-12389674D02*
X12093872Y-12380150D01*
X12093872Y-12380150D02*
X12122443Y-12380150D01*
X12122443Y-12380150D02*
X12141491Y-12389674D01*
X12141491Y-12389674D02*
X12151015Y-12408722D01*
X12151015Y-12408722D02*
X12151015Y-12513484D01*
X12541491Y-12303960D02*
X12370063Y-12561103D01*
X12798634Y-12313484D02*
X12817682Y-12313484D01*
X12817682Y-12313484D02*
X12836729Y-12323008D01*
X12836729Y-12323008D02*
X12846253Y-12332531D01*
X12846253Y-12332531D02*
X12855777Y-12351579D01*
X12855777Y-12351579D02*
X12865301Y-12389674D01*
X12865301Y-12389674D02*
X12865301Y-12437293D01*
X12865301Y-12437293D02*
X12855777Y-12475388D01*
X12855777Y-12475388D02*
X12846253Y-12494436D01*
X12846253Y-12494436D02*
X12836729Y-12503960D01*
X12836729Y-12503960D02*
X12817682Y-12513484D01*
X12817682Y-12513484D02*
X12798634Y-12513484D01*
X12798634Y-12513484D02*
X12779586Y-12503960D01*
X12779586Y-12503960D02*
X12770063Y-12494436D01*
X12770063Y-12494436D02*
X12760539Y-12475388D01*
X12760539Y-12475388D02*
X12751015Y-12437293D01*
X12751015Y-12437293D02*
X12751015Y-12389674D01*
X12751015Y-12389674D02*
X12760539Y-12351579D01*
X12760539Y-12351579D02*
X12770063Y-12332531D01*
X12770063Y-12332531D02*
X12779586Y-12323008D01*
X12779586Y-12323008D02*
X12798634Y-12313484D01*
X12951015Y-12494436D02*
X12960539Y-12503960D01*
X12960539Y-12503960D02*
X12951015Y-12513484D01*
X12951015Y-12513484D02*
X12941491Y-12503960D01*
X12941491Y-12503960D02*
X12951015Y-12494436D01*
X12951015Y-12494436D02*
X12951015Y-12513484D01*
X13151015Y-12513484D02*
X13036729Y-12513484D01*
X13093872Y-12513484D02*
X13093872Y-12313484D01*
X13093872Y-12313484D02*
X13074825Y-12342055D01*
X13074825Y-12342055D02*
X13055777Y-12361103D01*
X13055777Y-12361103D02*
X13036729Y-12370627D01*
X13227206Y-12332531D02*
X13236729Y-12323008D01*
X13236729Y-12323008D02*
X13255777Y-12313484D01*
X13255777Y-12313484D02*
X13303396Y-12313484D01*
X13303396Y-12313484D02*
X13322444Y-12323008D01*
X13322444Y-12323008D02*
X13331967Y-12332531D01*
X13331967Y-12332531D02*
X13341491Y-12351579D01*
X13341491Y-12351579D02*
X13341491Y-12370627D01*
X13341491Y-12370627D02*
X13331967Y-12399198D01*
X13331967Y-12399198D02*
X13217682Y-12513484D01*
X13217682Y-12513484D02*
X13341491Y-12513484D01*
X13512920Y-12313484D02*
X13474825Y-12313484D01*
X13474825Y-12313484D02*
X13455777Y-12323008D01*
X13455777Y-12323008D02*
X13446253Y-12332531D01*
X13446253Y-12332531D02*
X13427206Y-12361103D01*
X13427206Y-12361103D02*
X13417682Y-12399198D01*
X13417682Y-12399198D02*
X13417682Y-12475388D01*
X13417682Y-12475388D02*
X13427206Y-12494436D01*
X13427206Y-12494436D02*
X13436729Y-12503960D01*
X13436729Y-12503960D02*
X13455777Y-12513484D01*
X13455777Y-12513484D02*
X13493872Y-12513484D01*
X13493872Y-12513484D02*
X13512920Y-12503960D01*
X13512920Y-12503960D02*
X13522444Y-12494436D01*
X13522444Y-12494436D02*
X13531967Y-12475388D01*
X13531967Y-12475388D02*
X13531967Y-12427769D01*
X13531967Y-12427769D02*
X13522444Y-12408722D01*
X13522444Y-12408722D02*
X13512920Y-12399198D01*
X13512920Y-12399198D02*
X13493872Y-12389674D01*
X13493872Y-12389674D02*
X13455777Y-12389674D01*
X13455777Y-12389674D02*
X13436729Y-12399198D01*
X13436729Y-12399198D02*
X13427206Y-12408722D01*
X13427206Y-12408722D02*
X13417682Y-12427769D01*
X13655777Y-12313484D02*
X13674825Y-12313484D01*
X13674825Y-12313484D02*
X13693872Y-12323008D01*
X13693872Y-12323008D02*
X13703396Y-12332531D01*
X13703396Y-12332531D02*
X13712920Y-12351579D01*
X13712920Y-12351579D02*
X13722444Y-12389674D01*
X13722444Y-12389674D02*
X13722444Y-12437293D01*
X13722444Y-12437293D02*
X13712920Y-12475388D01*
X13712920Y-12475388D02*
X13703396Y-12494436D01*
X13703396Y-12494436D02*
X13693872Y-12503960D01*
X13693872Y-12503960D02*
X13674825Y-12513484D01*
X13674825Y-12513484D02*
X13655777Y-12513484D01*
X13655777Y-12513484D02*
X13636729Y-12503960D01*
X13636729Y-12503960D02*
X13627206Y-12494436D01*
X13627206Y-12494436D02*
X13617682Y-12475388D01*
X13617682Y-12475388D02*
X13608158Y-12437293D01*
X13608158Y-12437293D02*
X13608158Y-12389674D01*
X13608158Y-12389674D02*
X13617682Y-12351579D01*
X13617682Y-12351579D02*
X13627206Y-12332531D01*
X13627206Y-12332531D02*
X13636729Y-12323008D01*
X13636729Y-12323008D02*
X13655777Y-12313484D01*
X13798634Y-12313484D02*
X13798634Y-12351579D01*
X13874825Y-12313484D02*
X13874825Y-12351579D01*
X14170063Y-12589674D02*
X14160539Y-12580150D01*
X14160539Y-12580150D02*
X14141491Y-12551579D01*
X14141491Y-12551579D02*
X14131968Y-12532531D01*
X14131968Y-12532531D02*
X14122444Y-12503960D01*
X14122444Y-12503960D02*
X14112920Y-12456341D01*
X14112920Y-12456341D02*
X14112920Y-12418246D01*
X14112920Y-12418246D02*
X14122444Y-12370627D01*
X14122444Y-12370627D02*
X14131968Y-12342055D01*
X14131968Y-12342055D02*
X14141491Y-12323008D01*
X14141491Y-12323008D02*
X14160539Y-12294436D01*
X14160539Y-12294436D02*
X14170063Y-12284912D01*
X14331968Y-12380150D02*
X14331968Y-12513484D01*
X14284348Y-12303960D02*
X14236729Y-12446817D01*
X14236729Y-12446817D02*
X14360539Y-12446817D01*
X14589110Y-12513484D02*
X14589110Y-12313484D01*
X14674825Y-12513484D02*
X14674825Y-12408722D01*
X14674825Y-12408722D02*
X14665301Y-12389674D01*
X14665301Y-12389674D02*
X14646253Y-12380150D01*
X14646253Y-12380150D02*
X14617682Y-12380150D01*
X14617682Y-12380150D02*
X14598634Y-12389674D01*
X14598634Y-12389674D02*
X14589110Y-12399198D01*
X14798634Y-12513484D02*
X14779587Y-12503960D01*
X14779587Y-12503960D02*
X14770063Y-12494436D01*
X14770063Y-12494436D02*
X14760539Y-12475388D01*
X14760539Y-12475388D02*
X14760539Y-12418246D01*
X14760539Y-12418246D02*
X14770063Y-12399198D01*
X14770063Y-12399198D02*
X14779587Y-12389674D01*
X14779587Y-12389674D02*
X14798634Y-12380150D01*
X14798634Y-12380150D02*
X14827206Y-12380150D01*
X14827206Y-12380150D02*
X14846253Y-12389674D01*
X14846253Y-12389674D02*
X14855777Y-12399198D01*
X14855777Y-12399198D02*
X14865301Y-12418246D01*
X14865301Y-12418246D02*
X14865301Y-12475388D01*
X14865301Y-12475388D02*
X14855777Y-12494436D01*
X14855777Y-12494436D02*
X14846253Y-12503960D01*
X14846253Y-12503960D02*
X14827206Y-12513484D01*
X14827206Y-12513484D02*
X14798634Y-12513484D01*
X14979587Y-12513484D02*
X14960539Y-12503960D01*
X14960539Y-12503960D02*
X14951015Y-12484912D01*
X14951015Y-12484912D02*
X14951015Y-12313484D01*
X15131968Y-12503960D02*
X15112920Y-12513484D01*
X15112920Y-12513484D02*
X15074825Y-12513484D01*
X15074825Y-12513484D02*
X15055777Y-12503960D01*
X15055777Y-12503960D02*
X15046253Y-12484912D01*
X15046253Y-12484912D02*
X15046253Y-12408722D01*
X15046253Y-12408722D02*
X15055777Y-12389674D01*
X15055777Y-12389674D02*
X15074825Y-12380150D01*
X15074825Y-12380150D02*
X15112920Y-12380150D01*
X15112920Y-12380150D02*
X15131968Y-12389674D01*
X15131968Y-12389674D02*
X15141491Y-12408722D01*
X15141491Y-12408722D02*
X15141491Y-12427769D01*
X15141491Y-12427769D02*
X15046253Y-12446817D01*
X15217682Y-12503960D02*
X15236730Y-12513484D01*
X15236730Y-12513484D02*
X15274825Y-12513484D01*
X15274825Y-12513484D02*
X15293872Y-12503960D01*
X15293872Y-12503960D02*
X15303396Y-12484912D01*
X15303396Y-12484912D02*
X15303396Y-12475388D01*
X15303396Y-12475388D02*
X15293872Y-12456341D01*
X15293872Y-12456341D02*
X15274825Y-12446817D01*
X15274825Y-12446817D02*
X15246253Y-12446817D01*
X15246253Y-12446817D02*
X15227206Y-12437293D01*
X15227206Y-12437293D02*
X15217682Y-12418246D01*
X15217682Y-12418246D02*
X15217682Y-12408722D01*
X15217682Y-12408722D02*
X15227206Y-12389674D01*
X15227206Y-12389674D02*
X15246253Y-12380150D01*
X15246253Y-12380150D02*
X15274825Y-12380150D01*
X15274825Y-12380150D02*
X15293872Y-12389674D01*
X15370063Y-12589674D02*
X15379587Y-12580150D01*
X15379587Y-12580150D02*
X15398634Y-12551579D01*
X15398634Y-12551579D02*
X15408158Y-12532531D01*
X15408158Y-12532531D02*
X15417682Y-12503960D01*
X15417682Y-12503960D02*
X15427206Y-12456341D01*
X15427206Y-12456341D02*
X15427206Y-12418246D01*
X15427206Y-12418246D02*
X15417682Y-12370627D01*
X15417682Y-12370627D02*
X15408158Y-12342055D01*
X15408158Y-12342055D02*
X15398634Y-12323008D01*
X15398634Y-12323008D02*
X15379587Y-12294436D01*
X15379587Y-12294436D02*
X15370063Y-12284912D01*
X15731968Y-12589674D02*
X15722444Y-12580150D01*
X15722444Y-12580150D02*
X15703396Y-12551579D01*
X15703396Y-12551579D02*
X15693872Y-12532531D01*
X15693872Y-12532531D02*
X15684349Y-12503960D01*
X15684349Y-12503960D02*
X15674825Y-12456341D01*
X15674825Y-12456341D02*
X15674825Y-12418246D01*
X15674825Y-12418246D02*
X15684349Y-12370627D01*
X15684349Y-12370627D02*
X15693872Y-12342055D01*
X15693872Y-12342055D02*
X15703396Y-12323008D01*
X15703396Y-12323008D02*
X15722444Y-12294436D01*
X15722444Y-12294436D02*
X15731968Y-12284912D01*
X15808158Y-12380150D02*
X15808158Y-12513484D01*
X15808158Y-12399198D02*
X15817682Y-12389674D01*
X15817682Y-12389674D02*
X15836730Y-12380150D01*
X15836730Y-12380150D02*
X15865301Y-12380150D01*
X15865301Y-12380150D02*
X15884349Y-12389674D01*
X15884349Y-12389674D02*
X15893872Y-12408722D01*
X15893872Y-12408722D02*
X15893872Y-12513484D01*
X16017682Y-12513484D02*
X15998634Y-12503960D01*
X15998634Y-12503960D02*
X15989111Y-12494436D01*
X15989111Y-12494436D02*
X15979587Y-12475388D01*
X15979587Y-12475388D02*
X15979587Y-12418246D01*
X15979587Y-12418246D02*
X15989111Y-12399198D01*
X15989111Y-12399198D02*
X15998634Y-12389674D01*
X15998634Y-12389674D02*
X16017682Y-12380150D01*
X16017682Y-12380150D02*
X16046253Y-12380150D01*
X16046253Y-12380150D02*
X16065301Y-12389674D01*
X16065301Y-12389674D02*
X16074825Y-12399198D01*
X16074825Y-12399198D02*
X16084349Y-12418246D01*
X16084349Y-12418246D02*
X16084349Y-12475388D01*
X16084349Y-12475388D02*
X16074825Y-12494436D01*
X16074825Y-12494436D02*
X16065301Y-12503960D01*
X16065301Y-12503960D02*
X16046253Y-12513484D01*
X16046253Y-12513484D02*
X16017682Y-12513484D01*
X16141492Y-12380150D02*
X16217682Y-12380150D01*
X16170063Y-12313484D02*
X16170063Y-12484912D01*
X16170063Y-12484912D02*
X16179587Y-12503960D01*
X16179587Y-12503960D02*
X16198634Y-12513484D01*
X16198634Y-12513484D02*
X16217682Y-12513484D01*
X16436730Y-12380150D02*
X16436730Y-12580150D01*
X16436730Y-12389674D02*
X16455777Y-12380150D01*
X16455777Y-12380150D02*
X16493873Y-12380150D01*
X16493873Y-12380150D02*
X16512920Y-12389674D01*
X16512920Y-12389674D02*
X16522444Y-12399198D01*
X16522444Y-12399198D02*
X16531968Y-12418246D01*
X16531968Y-12418246D02*
X16531968Y-12475388D01*
X16531968Y-12475388D02*
X16522444Y-12494436D01*
X16522444Y-12494436D02*
X16512920Y-12503960D01*
X16512920Y-12503960D02*
X16493873Y-12513484D01*
X16493873Y-12513484D02*
X16455777Y-12513484D01*
X16455777Y-12513484D02*
X16436730Y-12503960D01*
X16646253Y-12513484D02*
X16627206Y-12503960D01*
X16627206Y-12503960D02*
X16617682Y-12484912D01*
X16617682Y-12484912D02*
X16617682Y-12313484D01*
X16808158Y-12513484D02*
X16808158Y-12408722D01*
X16808158Y-12408722D02*
X16798635Y-12389674D01*
X16798635Y-12389674D02*
X16779587Y-12380150D01*
X16779587Y-12380150D02*
X16741492Y-12380150D01*
X16741492Y-12380150D02*
X16722444Y-12389674D01*
X16808158Y-12503960D02*
X16789111Y-12513484D01*
X16789111Y-12513484D02*
X16741492Y-12513484D01*
X16741492Y-12513484D02*
X16722444Y-12503960D01*
X16722444Y-12503960D02*
X16712920Y-12484912D01*
X16712920Y-12484912D02*
X16712920Y-12465865D01*
X16712920Y-12465865D02*
X16722444Y-12446817D01*
X16722444Y-12446817D02*
X16741492Y-12437293D01*
X16741492Y-12437293D02*
X16789111Y-12437293D01*
X16789111Y-12437293D02*
X16808158Y-12427769D01*
X16874825Y-12380150D02*
X16951015Y-12380150D01*
X16903396Y-12313484D02*
X16903396Y-12484912D01*
X16903396Y-12484912D02*
X16912920Y-12503960D01*
X16912920Y-12503960D02*
X16931968Y-12513484D01*
X16931968Y-12513484D02*
X16951015Y-12513484D01*
X17093873Y-12503960D02*
X17074825Y-12513484D01*
X17074825Y-12513484D02*
X17036730Y-12513484D01*
X17036730Y-12513484D02*
X17017682Y-12503960D01*
X17017682Y-12503960D02*
X17008158Y-12484912D01*
X17008158Y-12484912D02*
X17008158Y-12408722D01*
X17008158Y-12408722D02*
X17017682Y-12389674D01*
X17017682Y-12389674D02*
X17036730Y-12380150D01*
X17036730Y-12380150D02*
X17074825Y-12380150D01*
X17074825Y-12380150D02*
X17093873Y-12389674D01*
X17093873Y-12389674D02*
X17103396Y-12408722D01*
X17103396Y-12408722D02*
X17103396Y-12427769D01*
X17103396Y-12427769D02*
X17008158Y-12446817D01*
X17274825Y-12513484D02*
X17274825Y-12313484D01*
X17274825Y-12503960D02*
X17255777Y-12513484D01*
X17255777Y-12513484D02*
X17217682Y-12513484D01*
X17217682Y-12513484D02*
X17198635Y-12503960D01*
X17198635Y-12503960D02*
X17189111Y-12494436D01*
X17189111Y-12494436D02*
X17179587Y-12475388D01*
X17179587Y-12475388D02*
X17179587Y-12418246D01*
X17179587Y-12418246D02*
X17189111Y-12399198D01*
X17189111Y-12399198D02*
X17198635Y-12389674D01*
X17198635Y-12389674D02*
X17217682Y-12380150D01*
X17217682Y-12380150D02*
X17255777Y-12380150D01*
X17255777Y-12380150D02*
X17274825Y-12389674D01*
X17351016Y-12589674D02*
X17360539Y-12580150D01*
X17360539Y-12580150D02*
X17379587Y-12551579D01*
X17379587Y-12551579D02*
X17389111Y-12532531D01*
X17389111Y-12532531D02*
X17398635Y-12503960D01*
X17398635Y-12503960D02*
X17408158Y-12456341D01*
X17408158Y-12456341D02*
X17408158Y-12418246D01*
X17408158Y-12418246D02*
X17398635Y-12370627D01*
X17398635Y-12370627D02*
X17389111Y-12342055D01*
X17389111Y-12342055D02*
X17379587Y-12323008D01*
X17379587Y-12323008D02*
X17360539Y-12294436D01*
X17360539Y-12294436D02*
X17351016Y-12284912D01*
X10495000Y-12642000D02*
X10495000Y-12842000D01*
X10395000Y-12742000D02*
X10595000Y-12742000D01*
X10836729Y-12633484D02*
X10960539Y-12633484D01*
X10960539Y-12633484D02*
X10893872Y-12709674D01*
X10893872Y-12709674D02*
X10922444Y-12709674D01*
X10922444Y-12709674D02*
X10941491Y-12719198D01*
X10941491Y-12719198D02*
X10951015Y-12728722D01*
X10951015Y-12728722D02*
X10960539Y-12747769D01*
X10960539Y-12747769D02*
X10960539Y-12795388D01*
X10960539Y-12795388D02*
X10951015Y-12814436D01*
X10951015Y-12814436D02*
X10941491Y-12823960D01*
X10941491Y-12823960D02*
X10922444Y-12833484D01*
X10922444Y-12833484D02*
X10865301Y-12833484D01*
X10865301Y-12833484D02*
X10846253Y-12823960D01*
X10846253Y-12823960D02*
X10836729Y-12814436D01*
X11046253Y-12814436D02*
X11055777Y-12823960D01*
X11055777Y-12823960D02*
X11046253Y-12833484D01*
X11046253Y-12833484D02*
X11036729Y-12823960D01*
X11036729Y-12823960D02*
X11046253Y-12814436D01*
X11046253Y-12814436D02*
X11046253Y-12833484D01*
X11131967Y-12652531D02*
X11141491Y-12643008D01*
X11141491Y-12643008D02*
X11160539Y-12633484D01*
X11160539Y-12633484D02*
X11208158Y-12633484D01*
X11208158Y-12633484D02*
X11227205Y-12643008D01*
X11227205Y-12643008D02*
X11236729Y-12652531D01*
X11236729Y-12652531D02*
X11246253Y-12671579D01*
X11246253Y-12671579D02*
X11246253Y-12690627D01*
X11246253Y-12690627D02*
X11236729Y-12719198D01*
X11236729Y-12719198D02*
X11122444Y-12833484D01*
X11122444Y-12833484D02*
X11246253Y-12833484D01*
X11427205Y-12633484D02*
X11331967Y-12633484D01*
X11331967Y-12633484D02*
X11322443Y-12728722D01*
X11322443Y-12728722D02*
X11331967Y-12719198D01*
X11331967Y-12719198D02*
X11351015Y-12709674D01*
X11351015Y-12709674D02*
X11398634Y-12709674D01*
X11398634Y-12709674D02*
X11417682Y-12719198D01*
X11417682Y-12719198D02*
X11427205Y-12728722D01*
X11427205Y-12728722D02*
X11436729Y-12747769D01*
X11436729Y-12747769D02*
X11436729Y-12795388D01*
X11436729Y-12795388D02*
X11427205Y-12814436D01*
X11427205Y-12814436D02*
X11417682Y-12823960D01*
X11417682Y-12823960D02*
X11398634Y-12833484D01*
X11398634Y-12833484D02*
X11351015Y-12833484D01*
X11351015Y-12833484D02*
X11331967Y-12823960D01*
X11331967Y-12823960D02*
X11322443Y-12814436D01*
X11560539Y-12633484D02*
X11579586Y-12633484D01*
X11579586Y-12633484D02*
X11598634Y-12643008D01*
X11598634Y-12643008D02*
X11608158Y-12652531D01*
X11608158Y-12652531D02*
X11617682Y-12671579D01*
X11617682Y-12671579D02*
X11627205Y-12709674D01*
X11627205Y-12709674D02*
X11627205Y-12757293D01*
X11627205Y-12757293D02*
X11617682Y-12795388D01*
X11617682Y-12795388D02*
X11608158Y-12814436D01*
X11608158Y-12814436D02*
X11598634Y-12823960D01*
X11598634Y-12823960D02*
X11579586Y-12833484D01*
X11579586Y-12833484D02*
X11560539Y-12833484D01*
X11560539Y-12833484D02*
X11541491Y-12823960D01*
X11541491Y-12823960D02*
X11531967Y-12814436D01*
X11531967Y-12814436D02*
X11522443Y-12795388D01*
X11522443Y-12795388D02*
X11512920Y-12757293D01*
X11512920Y-12757293D02*
X11512920Y-12709674D01*
X11512920Y-12709674D02*
X11522443Y-12671579D01*
X11522443Y-12671579D02*
X11531967Y-12652531D01*
X11531967Y-12652531D02*
X11541491Y-12643008D01*
X11541491Y-12643008D02*
X11560539Y-12633484D01*
X11712920Y-12833484D02*
X11712920Y-12700150D01*
X11712920Y-12719198D02*
X11722443Y-12709674D01*
X11722443Y-12709674D02*
X11741491Y-12700150D01*
X11741491Y-12700150D02*
X11770063Y-12700150D01*
X11770063Y-12700150D02*
X11789110Y-12709674D01*
X11789110Y-12709674D02*
X11798634Y-12728722D01*
X11798634Y-12728722D02*
X11798634Y-12833484D01*
X11798634Y-12728722D02*
X11808158Y-12709674D01*
X11808158Y-12709674D02*
X11827205Y-12700150D01*
X11827205Y-12700150D02*
X11855777Y-12700150D01*
X11855777Y-12700150D02*
X11874824Y-12709674D01*
X11874824Y-12709674D02*
X11884348Y-12728722D01*
X11884348Y-12728722D02*
X11884348Y-12833484D01*
X11979586Y-12833484D02*
X11979586Y-12700150D01*
X11979586Y-12719198D02*
X11989110Y-12709674D01*
X11989110Y-12709674D02*
X12008158Y-12700150D01*
X12008158Y-12700150D02*
X12036729Y-12700150D01*
X12036729Y-12700150D02*
X12055777Y-12709674D01*
X12055777Y-12709674D02*
X12065301Y-12728722D01*
X12065301Y-12728722D02*
X12065301Y-12833484D01*
X12065301Y-12728722D02*
X12074824Y-12709674D01*
X12074824Y-12709674D02*
X12093872Y-12700150D01*
X12093872Y-12700150D02*
X12122443Y-12700150D01*
X12122443Y-12700150D02*
X12141491Y-12709674D01*
X12141491Y-12709674D02*
X12151015Y-12728722D01*
X12151015Y-12728722D02*
X12151015Y-12833484D01*
X12541491Y-12623960D02*
X12370063Y-12881103D01*
X12798634Y-12633484D02*
X12817682Y-12633484D01*
X12817682Y-12633484D02*
X12836729Y-12643008D01*
X12836729Y-12643008D02*
X12846253Y-12652531D01*
X12846253Y-12652531D02*
X12855777Y-12671579D01*
X12855777Y-12671579D02*
X12865301Y-12709674D01*
X12865301Y-12709674D02*
X12865301Y-12757293D01*
X12865301Y-12757293D02*
X12855777Y-12795388D01*
X12855777Y-12795388D02*
X12846253Y-12814436D01*
X12846253Y-12814436D02*
X12836729Y-12823960D01*
X12836729Y-12823960D02*
X12817682Y-12833484D01*
X12817682Y-12833484D02*
X12798634Y-12833484D01*
X12798634Y-12833484D02*
X12779586Y-12823960D01*
X12779586Y-12823960D02*
X12770063Y-12814436D01*
X12770063Y-12814436D02*
X12760539Y-12795388D01*
X12760539Y-12795388D02*
X12751015Y-12757293D01*
X12751015Y-12757293D02*
X12751015Y-12709674D01*
X12751015Y-12709674D02*
X12760539Y-12671579D01*
X12760539Y-12671579D02*
X12770063Y-12652531D01*
X12770063Y-12652531D02*
X12779586Y-12643008D01*
X12779586Y-12643008D02*
X12798634Y-12633484D01*
X12951015Y-12814436D02*
X12960539Y-12823960D01*
X12960539Y-12823960D02*
X12951015Y-12833484D01*
X12951015Y-12833484D02*
X12941491Y-12823960D01*
X12941491Y-12823960D02*
X12951015Y-12814436D01*
X12951015Y-12814436D02*
X12951015Y-12833484D01*
X13151015Y-12833484D02*
X13036729Y-12833484D01*
X13093872Y-12833484D02*
X13093872Y-12633484D01*
X13093872Y-12633484D02*
X13074825Y-12662055D01*
X13074825Y-12662055D02*
X13055777Y-12681103D01*
X13055777Y-12681103D02*
X13036729Y-12690627D01*
X13227206Y-12652531D02*
X13236729Y-12643008D01*
X13236729Y-12643008D02*
X13255777Y-12633484D01*
X13255777Y-12633484D02*
X13303396Y-12633484D01*
X13303396Y-12633484D02*
X13322444Y-12643008D01*
X13322444Y-12643008D02*
X13331967Y-12652531D01*
X13331967Y-12652531D02*
X13341491Y-12671579D01*
X13341491Y-12671579D02*
X13341491Y-12690627D01*
X13341491Y-12690627D02*
X13331967Y-12719198D01*
X13331967Y-12719198D02*
X13217682Y-12833484D01*
X13217682Y-12833484D02*
X13341491Y-12833484D01*
X13455777Y-12719198D02*
X13436729Y-12709674D01*
X13436729Y-12709674D02*
X13427206Y-12700150D01*
X13427206Y-12700150D02*
X13417682Y-12681103D01*
X13417682Y-12681103D02*
X13417682Y-12671579D01*
X13417682Y-12671579D02*
X13427206Y-12652531D01*
X13427206Y-12652531D02*
X13436729Y-12643008D01*
X13436729Y-12643008D02*
X13455777Y-12633484D01*
X13455777Y-12633484D02*
X13493872Y-12633484D01*
X13493872Y-12633484D02*
X13512920Y-12643008D01*
X13512920Y-12643008D02*
X13522444Y-12652531D01*
X13522444Y-12652531D02*
X13531967Y-12671579D01*
X13531967Y-12671579D02*
X13531967Y-12681103D01*
X13531967Y-12681103D02*
X13522444Y-12700150D01*
X13522444Y-12700150D02*
X13512920Y-12709674D01*
X13512920Y-12709674D02*
X13493872Y-12719198D01*
X13493872Y-12719198D02*
X13455777Y-12719198D01*
X13455777Y-12719198D02*
X13436729Y-12728722D01*
X13436729Y-12728722D02*
X13427206Y-12738246D01*
X13427206Y-12738246D02*
X13417682Y-12757293D01*
X13417682Y-12757293D02*
X13417682Y-12795388D01*
X13417682Y-12795388D02*
X13427206Y-12814436D01*
X13427206Y-12814436D02*
X13436729Y-12823960D01*
X13436729Y-12823960D02*
X13455777Y-12833484D01*
X13455777Y-12833484D02*
X13493872Y-12833484D01*
X13493872Y-12833484D02*
X13512920Y-12823960D01*
X13512920Y-12823960D02*
X13522444Y-12814436D01*
X13522444Y-12814436D02*
X13531967Y-12795388D01*
X13531967Y-12795388D02*
X13531967Y-12757293D01*
X13531967Y-12757293D02*
X13522444Y-12738246D01*
X13522444Y-12738246D02*
X13512920Y-12728722D01*
X13512920Y-12728722D02*
X13493872Y-12719198D01*
X13655777Y-12633484D02*
X13674825Y-12633484D01*
X13674825Y-12633484D02*
X13693872Y-12643008D01*
X13693872Y-12643008D02*
X13703396Y-12652531D01*
X13703396Y-12652531D02*
X13712920Y-12671579D01*
X13712920Y-12671579D02*
X13722444Y-12709674D01*
X13722444Y-12709674D02*
X13722444Y-12757293D01*
X13722444Y-12757293D02*
X13712920Y-12795388D01*
X13712920Y-12795388D02*
X13703396Y-12814436D01*
X13703396Y-12814436D02*
X13693872Y-12823960D01*
X13693872Y-12823960D02*
X13674825Y-12833484D01*
X13674825Y-12833484D02*
X13655777Y-12833484D01*
X13655777Y-12833484D02*
X13636729Y-12823960D01*
X13636729Y-12823960D02*
X13627206Y-12814436D01*
X13627206Y-12814436D02*
X13617682Y-12795388D01*
X13617682Y-12795388D02*
X13608158Y-12757293D01*
X13608158Y-12757293D02*
X13608158Y-12709674D01*
X13608158Y-12709674D02*
X13617682Y-12671579D01*
X13617682Y-12671579D02*
X13627206Y-12652531D01*
X13627206Y-12652531D02*
X13636729Y-12643008D01*
X13636729Y-12643008D02*
X13655777Y-12633484D01*
X13798634Y-12633484D02*
X13798634Y-12671579D01*
X13874825Y-12633484D02*
X13874825Y-12671579D01*
X14170063Y-12909674D02*
X14160539Y-12900150D01*
X14160539Y-12900150D02*
X14141491Y-12871579D01*
X14141491Y-12871579D02*
X14131968Y-12852531D01*
X14131968Y-12852531D02*
X14122444Y-12823960D01*
X14122444Y-12823960D02*
X14112920Y-12776341D01*
X14112920Y-12776341D02*
X14112920Y-12738246D01*
X14112920Y-12738246D02*
X14122444Y-12690627D01*
X14122444Y-12690627D02*
X14131968Y-12662055D01*
X14131968Y-12662055D02*
X14141491Y-12643008D01*
X14141491Y-12643008D02*
X14160539Y-12614436D01*
X14160539Y-12614436D02*
X14170063Y-12604912D01*
X14331968Y-12700150D02*
X14331968Y-12833484D01*
X14284348Y-12623960D02*
X14236729Y-12766817D01*
X14236729Y-12766817D02*
X14360539Y-12766817D01*
X14589110Y-12833484D02*
X14589110Y-12633484D01*
X14674825Y-12833484D02*
X14674825Y-12728722D01*
X14674825Y-12728722D02*
X14665301Y-12709674D01*
X14665301Y-12709674D02*
X14646253Y-12700150D01*
X14646253Y-12700150D02*
X14617682Y-12700150D01*
X14617682Y-12700150D02*
X14598634Y-12709674D01*
X14598634Y-12709674D02*
X14589110Y-12719198D01*
X14798634Y-12833484D02*
X14779587Y-12823960D01*
X14779587Y-12823960D02*
X14770063Y-12814436D01*
X14770063Y-12814436D02*
X14760539Y-12795388D01*
X14760539Y-12795388D02*
X14760539Y-12738246D01*
X14760539Y-12738246D02*
X14770063Y-12719198D01*
X14770063Y-12719198D02*
X14779587Y-12709674D01*
X14779587Y-12709674D02*
X14798634Y-12700150D01*
X14798634Y-12700150D02*
X14827206Y-12700150D01*
X14827206Y-12700150D02*
X14846253Y-12709674D01*
X14846253Y-12709674D02*
X14855777Y-12719198D01*
X14855777Y-12719198D02*
X14865301Y-12738246D01*
X14865301Y-12738246D02*
X14865301Y-12795388D01*
X14865301Y-12795388D02*
X14855777Y-12814436D01*
X14855777Y-12814436D02*
X14846253Y-12823960D01*
X14846253Y-12823960D02*
X14827206Y-12833484D01*
X14827206Y-12833484D02*
X14798634Y-12833484D01*
X14979587Y-12833484D02*
X14960539Y-12823960D01*
X14960539Y-12823960D02*
X14951015Y-12804912D01*
X14951015Y-12804912D02*
X14951015Y-12633484D01*
X15131968Y-12823960D02*
X15112920Y-12833484D01*
X15112920Y-12833484D02*
X15074825Y-12833484D01*
X15074825Y-12833484D02*
X15055777Y-12823960D01*
X15055777Y-12823960D02*
X15046253Y-12804912D01*
X15046253Y-12804912D02*
X15046253Y-12728722D01*
X15046253Y-12728722D02*
X15055777Y-12709674D01*
X15055777Y-12709674D02*
X15074825Y-12700150D01*
X15074825Y-12700150D02*
X15112920Y-12700150D01*
X15112920Y-12700150D02*
X15131968Y-12709674D01*
X15131968Y-12709674D02*
X15141491Y-12728722D01*
X15141491Y-12728722D02*
X15141491Y-12747769D01*
X15141491Y-12747769D02*
X15046253Y-12766817D01*
X15217682Y-12823960D02*
X15236730Y-12833484D01*
X15236730Y-12833484D02*
X15274825Y-12833484D01*
X15274825Y-12833484D02*
X15293872Y-12823960D01*
X15293872Y-12823960D02*
X15303396Y-12804912D01*
X15303396Y-12804912D02*
X15303396Y-12795388D01*
X15303396Y-12795388D02*
X15293872Y-12776341D01*
X15293872Y-12776341D02*
X15274825Y-12766817D01*
X15274825Y-12766817D02*
X15246253Y-12766817D01*
X15246253Y-12766817D02*
X15227206Y-12757293D01*
X15227206Y-12757293D02*
X15217682Y-12738246D01*
X15217682Y-12738246D02*
X15217682Y-12728722D01*
X15217682Y-12728722D02*
X15227206Y-12709674D01*
X15227206Y-12709674D02*
X15246253Y-12700150D01*
X15246253Y-12700150D02*
X15274825Y-12700150D01*
X15274825Y-12700150D02*
X15293872Y-12709674D01*
X15370063Y-12909674D02*
X15379587Y-12900150D01*
X15379587Y-12900150D02*
X15398634Y-12871579D01*
X15398634Y-12871579D02*
X15408158Y-12852531D01*
X15408158Y-12852531D02*
X15417682Y-12823960D01*
X15417682Y-12823960D02*
X15427206Y-12776341D01*
X15427206Y-12776341D02*
X15427206Y-12738246D01*
X15427206Y-12738246D02*
X15417682Y-12690627D01*
X15417682Y-12690627D02*
X15408158Y-12662055D01*
X15408158Y-12662055D02*
X15398634Y-12643008D01*
X15398634Y-12643008D02*
X15379587Y-12614436D01*
X15379587Y-12614436D02*
X15370063Y-12604912D01*
X15731968Y-12909674D02*
X15722444Y-12900150D01*
X15722444Y-12900150D02*
X15703396Y-12871579D01*
X15703396Y-12871579D02*
X15693872Y-12852531D01*
X15693872Y-12852531D02*
X15684349Y-12823960D01*
X15684349Y-12823960D02*
X15674825Y-12776341D01*
X15674825Y-12776341D02*
X15674825Y-12738246D01*
X15674825Y-12738246D02*
X15684349Y-12690627D01*
X15684349Y-12690627D02*
X15693872Y-12662055D01*
X15693872Y-12662055D02*
X15703396Y-12643008D01*
X15703396Y-12643008D02*
X15722444Y-12614436D01*
X15722444Y-12614436D02*
X15731968Y-12604912D01*
X15808158Y-12700150D02*
X15808158Y-12833484D01*
X15808158Y-12719198D02*
X15817682Y-12709674D01*
X15817682Y-12709674D02*
X15836730Y-12700150D01*
X15836730Y-12700150D02*
X15865301Y-12700150D01*
X15865301Y-12700150D02*
X15884349Y-12709674D01*
X15884349Y-12709674D02*
X15893872Y-12728722D01*
X15893872Y-12728722D02*
X15893872Y-12833484D01*
X16017682Y-12833484D02*
X15998634Y-12823960D01*
X15998634Y-12823960D02*
X15989111Y-12814436D01*
X15989111Y-12814436D02*
X15979587Y-12795388D01*
X15979587Y-12795388D02*
X15979587Y-12738246D01*
X15979587Y-12738246D02*
X15989111Y-12719198D01*
X15989111Y-12719198D02*
X15998634Y-12709674D01*
X15998634Y-12709674D02*
X16017682Y-12700150D01*
X16017682Y-12700150D02*
X16046253Y-12700150D01*
X16046253Y-12700150D02*
X16065301Y-12709674D01*
X16065301Y-12709674D02*
X16074825Y-12719198D01*
X16074825Y-12719198D02*
X16084349Y-12738246D01*
X16084349Y-12738246D02*
X16084349Y-12795388D01*
X16084349Y-12795388D02*
X16074825Y-12814436D01*
X16074825Y-12814436D02*
X16065301Y-12823960D01*
X16065301Y-12823960D02*
X16046253Y-12833484D01*
X16046253Y-12833484D02*
X16017682Y-12833484D01*
X16141492Y-12700150D02*
X16217682Y-12700150D01*
X16170063Y-12633484D02*
X16170063Y-12804912D01*
X16170063Y-12804912D02*
X16179587Y-12823960D01*
X16179587Y-12823960D02*
X16198634Y-12833484D01*
X16198634Y-12833484D02*
X16217682Y-12833484D01*
X16436730Y-12700150D02*
X16436730Y-12900150D01*
X16436730Y-12709674D02*
X16455777Y-12700150D01*
X16455777Y-12700150D02*
X16493873Y-12700150D01*
X16493873Y-12700150D02*
X16512920Y-12709674D01*
X16512920Y-12709674D02*
X16522444Y-12719198D01*
X16522444Y-12719198D02*
X16531968Y-12738246D01*
X16531968Y-12738246D02*
X16531968Y-12795388D01*
X16531968Y-12795388D02*
X16522444Y-12814436D01*
X16522444Y-12814436D02*
X16512920Y-12823960D01*
X16512920Y-12823960D02*
X16493873Y-12833484D01*
X16493873Y-12833484D02*
X16455777Y-12833484D01*
X16455777Y-12833484D02*
X16436730Y-12823960D01*
X16646253Y-12833484D02*
X16627206Y-12823960D01*
X16627206Y-12823960D02*
X16617682Y-12804912D01*
X16617682Y-12804912D02*
X16617682Y-12633484D01*
X16808158Y-12833484D02*
X16808158Y-12728722D01*
X16808158Y-12728722D02*
X16798635Y-12709674D01*
X16798635Y-12709674D02*
X16779587Y-12700150D01*
X16779587Y-12700150D02*
X16741492Y-12700150D01*
X16741492Y-12700150D02*
X16722444Y-12709674D01*
X16808158Y-12823960D02*
X16789111Y-12833484D01*
X16789111Y-12833484D02*
X16741492Y-12833484D01*
X16741492Y-12833484D02*
X16722444Y-12823960D01*
X16722444Y-12823960D02*
X16712920Y-12804912D01*
X16712920Y-12804912D02*
X16712920Y-12785865D01*
X16712920Y-12785865D02*
X16722444Y-12766817D01*
X16722444Y-12766817D02*
X16741492Y-12757293D01*
X16741492Y-12757293D02*
X16789111Y-12757293D01*
X16789111Y-12757293D02*
X16808158Y-12747769D01*
X16874825Y-12700150D02*
X16951015Y-12700150D01*
X16903396Y-12633484D02*
X16903396Y-12804912D01*
X16903396Y-12804912D02*
X16912920Y-12823960D01*
X16912920Y-12823960D02*
X16931968Y-12833484D01*
X16931968Y-12833484D02*
X16951015Y-12833484D01*
X17093873Y-12823960D02*
X17074825Y-12833484D01*
X17074825Y-12833484D02*
X17036730Y-12833484D01*
X17036730Y-12833484D02*
X17017682Y-12823960D01*
X17017682Y-12823960D02*
X17008158Y-12804912D01*
X17008158Y-12804912D02*
X17008158Y-12728722D01*
X17008158Y-12728722D02*
X17017682Y-12709674D01*
X17017682Y-12709674D02*
X17036730Y-12700150D01*
X17036730Y-12700150D02*
X17074825Y-12700150D01*
X17074825Y-12700150D02*
X17093873Y-12709674D01*
X17093873Y-12709674D02*
X17103396Y-12728722D01*
X17103396Y-12728722D02*
X17103396Y-12747769D01*
X17103396Y-12747769D02*
X17008158Y-12766817D01*
X17274825Y-12833484D02*
X17274825Y-12633484D01*
X17274825Y-12823960D02*
X17255777Y-12833484D01*
X17255777Y-12833484D02*
X17217682Y-12833484D01*
X17217682Y-12833484D02*
X17198635Y-12823960D01*
X17198635Y-12823960D02*
X17189111Y-12814436D01*
X17189111Y-12814436D02*
X17179587Y-12795388D01*
X17179587Y-12795388D02*
X17179587Y-12738246D01*
X17179587Y-12738246D02*
X17189111Y-12719198D01*
X17189111Y-12719198D02*
X17198635Y-12709674D01*
X17198635Y-12709674D02*
X17217682Y-12700150D01*
X17217682Y-12700150D02*
X17255777Y-12700150D01*
X17255777Y-12700150D02*
X17274825Y-12709674D01*
X17351016Y-12909674D02*
X17360539Y-12900150D01*
X17360539Y-12900150D02*
X17379587Y-12871579D01*
X17379587Y-12871579D02*
X17389111Y-12852531D01*
X17389111Y-12852531D02*
X17398635Y-12823960D01*
X17398635Y-12823960D02*
X17408158Y-12776341D01*
X17408158Y-12776341D02*
X17408158Y-12738246D01*
X17408158Y-12738246D02*
X17398635Y-12690627D01*
X17398635Y-12690627D02*
X17389111Y-12662055D01*
X17389111Y-12662055D02*
X17379587Y-12643008D01*
X17379587Y-12643008D02*
X17360539Y-12614436D01*
X17360539Y-12614436D02*
X17351016Y-12604912D01*
M02*
