M48
; DRILL file {KiCad 9.0.0} date 2025-03-16T14:09:19-0700
; FORMAT={-:-/ absolute / metric / decimal}
; #@! TF.CreationDate,2025-03-16T14:09:19-07:00
; #@! TF.GenerationSoftware,Kicad,Pcbnew,9.0.0
; #@! TF.FileFunction,NonPlated,1,2,NPTH
FMAT,2
METRIC
; #@! TA.AperFunction,NonPlated,NPTH,ComponentDrill
T1C1.570
; #@! TA.AperFunction,NonPlated,NPTH,ComponentDrill
T2C3.200
; #@! TA.AperFunction,NonPlated,NPTH,ComponentDrill
T3C3.250
%
G90
G05
T1
X107.645Y-91.36
X107.645Y-111.42
X108.405Y-97.71
X123.135Y-89.58
X137.105Y-89.58
X151.835Y-101.01
X152.595Y-95.42
X152.595Y-111.42
X155.33Y-91.36
X155.33Y-111.42
X156.09Y-97.71
X170.82Y-89.58
X184.79Y-89.58
X199.52Y-101.01
X200.28Y-95.42
X200.28Y-111.42
T2
X155.15Y-125.4
X200.0Y-36.0
X200.0Y-131.0
X201.05Y-20.7
T3
X110.435Y-106.85
X149.805Y-106.85
X158.12Y-106.85
X197.49Y-106.85
M30
