M48
; DRILL file {KiCad 9.0.0} date 2025-03-16T14:09:19-0700
; FORMAT={-:-/ absolute / metric / decimal}
; #@! TF.CreationDate,2025-03-16T14:09:19-07:00
; #@! TF.GenerationSoftware,Kicad,Pcbnew,9.0.0
; #@! TF.FileFunction,Plated,1,2,PTH
FMAT,2
METRIC
; #@! TA.AperFunction,Plated,PTH,ViaDrill
T1C0.250
; #@! TA.AperFunction,Plated,PTH,ComponentDrill
T2C0.890
; #@! TA.AperFunction,Plated,PTH,ComponentDrill
T3C1.000
; #@! TA.AperFunction,Plated,PTH,ComponentDrill
T4C2.000
%
G90
G05
T1
X108.7Y-74.8
X111.05Y-50.65
X114.1Y-58.1
X115.35Y-75.4
X116.65Y-79.862
X117.75Y-64.8
X121.6Y-75.45
X123.05Y-81.9
X125.7Y-79.9
X126.4Y-77.55
X127.2Y-58.8
X128.2Y-79.763
X131.65Y-74.3
X131.95Y-77.7
X134.3Y-82.1
X136.3Y-71.75
X138.1Y-78.0
X139.35Y-58.5
X139.6Y-80.3
X140.4Y-50.75
X140.6Y-78.1
X142.6Y-63.05
X142.75Y-50.5
X144.4Y-74.95
X144.9Y-65.3
X146.9Y-77.9
X147.5Y-63.1
X148.3Y-82.4
X148.75Y-75.35
X150.85Y-74.95
X152.35Y-78.05
X154.5Y-75.5
X155.1Y-78.0
X156.85Y-75.45
X158.3Y-80.7
X158.45Y-78.05
X158.85Y-75.3
X162.3Y-52.6
X162.8Y-83.7
X163.05Y-77.8
X163.4Y-75.15
X163.65Y-61.25
X166.1Y-77.75
X166.8Y-80.725
X169.25Y-52.25
X169.8Y-75.1
X170.75Y-83.7
X171.75Y-77.85
X172.4Y-74.95
X175.5Y-77.8
X175.9Y-80.562
X176.2Y-61.05
X178.4Y-52.55
X178.65Y-73.5
X179.95Y-73.5
X181.1Y-83.7
X182.9Y-77.1
X183.1Y-86.8
X185.0Y-86.0
X185.5Y-52.7
X187.0Y-86.0
X193.4Y-52.6
X194.4Y-60.7
X195.15Y-70.4
T2
X111.705Y-93.9
X111.705Y-100.5
X112.975Y-91.36
X112.975Y-97.96
X114.245Y-93.9
X114.245Y-100.5
X115.515Y-91.36
X115.515Y-97.96
X116.785Y-93.9
X116.785Y-100.5
X118.055Y-91.36
X118.055Y-97.96
X119.325Y-93.9
X119.325Y-100.5
X120.595Y-91.36
X120.595Y-97.96
X125.675Y-93.9
X125.675Y-100.5
X126.945Y-91.36
X126.945Y-97.96
X128.215Y-93.9
X128.215Y-100.5
X129.485Y-91.36
X129.485Y-97.96
X130.755Y-93.9
X130.755Y-100.5
X132.025Y-91.36
X132.025Y-97.96
X133.295Y-93.9
X133.295Y-100.5
X134.565Y-91.36
X134.565Y-97.96
X139.645Y-93.9
X139.645Y-100.5
X140.915Y-91.36
X140.915Y-97.96
X142.185Y-93.9
X142.185Y-100.5
X143.455Y-91.36
X143.455Y-97.96
X144.725Y-93.9
X144.725Y-100.5
X145.995Y-91.36
X145.995Y-97.96
X147.265Y-93.9
X147.265Y-100.5
X148.535Y-91.36
X148.535Y-97.96
X159.39Y-93.9
X159.39Y-100.5
X160.66Y-91.36
X160.66Y-97.96
X161.93Y-93.9
X161.93Y-100.5
X163.2Y-91.36
X163.2Y-97.96
X164.47Y-93.9
X164.47Y-100.5
X165.74Y-91.36
X165.74Y-97.96
X167.01Y-93.9
X167.01Y-100.5
X168.28Y-91.36
X168.28Y-97.96
X173.36Y-93.9
X173.36Y-100.5
X174.63Y-91.36
X174.63Y-97.96
X175.9Y-93.9
X175.9Y-100.5
X177.17Y-91.36
X177.17Y-97.96
X178.44Y-93.9
X178.44Y-100.5
X179.71Y-91.36
X179.71Y-97.96
X180.98Y-93.9
X180.98Y-100.5
X182.25Y-91.36
X182.25Y-97.96
X187.33Y-93.9
X187.33Y-100.5
X188.6Y-91.36
X188.6Y-97.96
X189.87Y-93.9
X189.87Y-100.5
X191.14Y-91.36
X191.14Y-97.96
X192.41Y-93.9
X192.41Y-100.5
X193.68Y-91.36
X193.68Y-97.96
X194.95Y-93.9
X194.95Y-100.5
X196.22Y-91.36
X196.22Y-97.96
T3
X151.56Y-47.72
X151.56Y-65.5
X154.1Y-47.72
X154.1Y-65.5
X156.64Y-47.72
X156.64Y-65.5
X159.18Y-47.72
X159.18Y-65.5
X161.72Y-47.72
X161.72Y-65.5
X164.26Y-47.72
X164.26Y-65.5
X166.8Y-47.72
X166.8Y-65.5
X169.34Y-47.72
X169.34Y-65.5
X171.88Y-47.72
X171.88Y-65.5
X174.42Y-47.72
X174.42Y-65.5
X176.96Y-47.72
X176.96Y-65.5
X179.5Y-47.72
X179.5Y-65.5
X182.04Y-47.72
X182.04Y-65.5
X184.58Y-47.72
X184.58Y-65.5
X187.12Y-47.72
X187.12Y-65.5
X189.66Y-47.72
X189.66Y-65.5
X192.2Y-47.72
X192.2Y-65.5
X194.74Y-47.72
X194.74Y-65.5
X197.28Y-47.72
X197.28Y-65.5
X199.82Y-47.72
X199.82Y-65.5
T4
X192.02Y-75.25
X192.02Y-85.25
X197.52Y-75.25
X197.52Y-85.25
X199.92Y-73.25
X199.92Y-83.25
M30
