%TF.GenerationSoftware,KiCad,Pcbnew,9.0.0*%
%TF.CreationDate,2025-03-16T14:09:19-07:00*%
%TF.ProjectId,elan_interface,656c616e-5f69-46e7-9465-72666163652e,rev?*%
%TF.SameCoordinates,Original*%
%TF.FileFunction,Drillmap*%
%TF.FilePolarity,Positive*%
%FSLAX45Y45*%
G04 Gerber Fmt 4.5, Leading zero omitted, Abs format (unit mm)*
G04 Created by KiCad (PCBNEW 9.0.0) date 2025-03-16 14:09:19*
%MOMM*%
%LPD*%
G01*
G04 APERTURE LIST*
%ADD10C,0.100000*%
%ADD11C,0.200000*%
G04 APERTURE END LIST*
D10*
X10600000Y-4500000D02*
X20200000Y-4500000D01*
X20200000Y-11500000D01*
X10600000Y-11500000D01*
X10600000Y-4500000D01*
D11*
D10*
X10857500Y-7467500D02*
X10882500Y-7492500D01*
X10882500Y-7467500D02*
X10857500Y-7492500D01*
X11092500Y-5052500D02*
X11117500Y-5077500D01*
X11117500Y-5052500D02*
X11092500Y-5077500D01*
X11397500Y-5797500D02*
X11422500Y-5822500D01*
X11422500Y-5797500D02*
X11397500Y-5822500D01*
X11522500Y-7527500D02*
X11547500Y-7552500D01*
X11547500Y-7527500D02*
X11522500Y-7552500D01*
X11652500Y-7973750D02*
X11677500Y-7998750D01*
X11677500Y-7973750D02*
X11652500Y-7998750D01*
X11762500Y-6467500D02*
X11787500Y-6492500D01*
X11787500Y-6467500D02*
X11762500Y-6492500D01*
X12147500Y-7532500D02*
X12172500Y-7557500D01*
X12172500Y-7532500D02*
X12147500Y-7557500D01*
X12292500Y-8177500D02*
X12317500Y-8202500D01*
X12317500Y-8177500D02*
X12292500Y-8202500D01*
X12557500Y-7977500D02*
X12582500Y-8002500D01*
X12582500Y-7977500D02*
X12557500Y-8002500D01*
X12627500Y-7742500D02*
X12652500Y-7767500D01*
X12652500Y-7742500D02*
X12627500Y-7767500D01*
X12707500Y-5867500D02*
X12732500Y-5892500D01*
X12732500Y-5867500D02*
X12707500Y-5892500D01*
X12807500Y-7963750D02*
X12832500Y-7988750D01*
X12832500Y-7963750D02*
X12807500Y-7988750D01*
X13152500Y-7417500D02*
X13177500Y-7442500D01*
X13177500Y-7417500D02*
X13152500Y-7442500D01*
X13182500Y-7757500D02*
X13207500Y-7782500D01*
X13207500Y-7757500D02*
X13182500Y-7782500D01*
X13417500Y-8197500D02*
X13442500Y-8222500D01*
X13442500Y-8197500D02*
X13417500Y-8222500D01*
X13617500Y-7162500D02*
X13642500Y-7187500D01*
X13642500Y-7162500D02*
X13617500Y-7187500D01*
X13797500Y-7787500D02*
X13822500Y-7812500D01*
X13822500Y-7787500D02*
X13797500Y-7812500D01*
X13922500Y-5837500D02*
X13947500Y-5862500D01*
X13947500Y-5837500D02*
X13922500Y-5862500D01*
X13947500Y-8017500D02*
X13972500Y-8042500D01*
X13972500Y-8017500D02*
X13947500Y-8042500D01*
X14027500Y-5062500D02*
X14052500Y-5087500D01*
X14052500Y-5062500D02*
X14027500Y-5087500D01*
X14047500Y-7797500D02*
X14072500Y-7822500D01*
X14072500Y-7797500D02*
X14047500Y-7822500D01*
X14247500Y-6292500D02*
X14272500Y-6317500D01*
X14272500Y-6292500D02*
X14247500Y-6317500D01*
X14262500Y-5037500D02*
X14287500Y-5062500D01*
X14287500Y-5037500D02*
X14262500Y-5062500D01*
X14427500Y-7482500D02*
X14452500Y-7507500D01*
X14452500Y-7482500D02*
X14427500Y-7507500D01*
X14477500Y-6517500D02*
X14502500Y-6542500D01*
X14502500Y-6517500D02*
X14477500Y-6542500D01*
X14677500Y-7777500D02*
X14702500Y-7802500D01*
X14702500Y-7777500D02*
X14677500Y-7802500D01*
X14737500Y-6297500D02*
X14762500Y-6322500D01*
X14762500Y-6297500D02*
X14737500Y-6322500D01*
X14817500Y-8227500D02*
X14842500Y-8252500D01*
X14842500Y-8227500D02*
X14817500Y-8252500D01*
X14862500Y-7522500D02*
X14887500Y-7547500D01*
X14887500Y-7522500D02*
X14862500Y-7547500D01*
X15072500Y-7482500D02*
X15097500Y-7507500D01*
X15097500Y-7482500D02*
X15072500Y-7507500D01*
X15222500Y-7792500D02*
X15247500Y-7817500D01*
X15247500Y-7792500D02*
X15222500Y-7817500D01*
X15437500Y-7537500D02*
X15462500Y-7562500D01*
X15462500Y-7537500D02*
X15437500Y-7562500D01*
X15497500Y-7787500D02*
X15522500Y-7812500D01*
X15522500Y-7787500D02*
X15497500Y-7812500D01*
X15672500Y-7532500D02*
X15697500Y-7557500D01*
X15697500Y-7532500D02*
X15672500Y-7557500D01*
X15817500Y-8057500D02*
X15842500Y-8082500D01*
X15842500Y-8057500D02*
X15817500Y-8082500D01*
X15832500Y-7792500D02*
X15857500Y-7817500D01*
X15857500Y-7792500D02*
X15832500Y-7817500D01*
X15872500Y-7517500D02*
X15897500Y-7542500D01*
X15897500Y-7517500D02*
X15872500Y-7542500D01*
X16217500Y-5247500D02*
X16242500Y-5272500D01*
X16242500Y-5247500D02*
X16217500Y-5272500D01*
X16267500Y-8357500D02*
X16292500Y-8382500D01*
X16292500Y-8357500D02*
X16267500Y-8382500D01*
X16292500Y-7767500D02*
X16317500Y-7792500D01*
X16317500Y-7767500D02*
X16292500Y-7792500D01*
X16327500Y-7502500D02*
X16352500Y-7527500D01*
X16352500Y-7502500D02*
X16327500Y-7527500D01*
X16352500Y-6112500D02*
X16377500Y-6137500D01*
X16377500Y-6112500D02*
X16352500Y-6137500D01*
X16597500Y-7762500D02*
X16622500Y-7787500D01*
X16622500Y-7762500D02*
X16597500Y-7787500D01*
X16667500Y-8060000D02*
X16692500Y-8085000D01*
X16692500Y-8060000D02*
X16667500Y-8085000D01*
X16912500Y-5212500D02*
X16937500Y-5237500D01*
X16937500Y-5212500D02*
X16912500Y-5237500D01*
X16967500Y-7497500D02*
X16992500Y-7522500D01*
X16992500Y-7497500D02*
X16967500Y-7522500D01*
X17062500Y-8357500D02*
X17087500Y-8382500D01*
X17087500Y-8357500D02*
X17062500Y-8382500D01*
X17162500Y-7772500D02*
X17187500Y-7797500D01*
X17187500Y-7772500D02*
X17162500Y-7797500D01*
X17227500Y-7482500D02*
X17252500Y-7507500D01*
X17252500Y-7482500D02*
X17227500Y-7507500D01*
X17537500Y-7767500D02*
X17562500Y-7792500D01*
X17562500Y-7767500D02*
X17537500Y-7792500D01*
X17577500Y-8043750D02*
X17602500Y-8068750D01*
X17602500Y-8043750D02*
X17577500Y-8068750D01*
X17607500Y-6092500D02*
X17632500Y-6117500D01*
X17632500Y-6092500D02*
X17607500Y-6117500D01*
X17827500Y-5242500D02*
X17852500Y-5267500D01*
X17852500Y-5242500D02*
X17827500Y-5267500D01*
X17852500Y-7337500D02*
X17877500Y-7362500D01*
X17877500Y-7337500D02*
X17852500Y-7362500D01*
X17982500Y-7337500D02*
X18007500Y-7362500D01*
X18007500Y-7337500D02*
X17982500Y-7362500D01*
X18097500Y-8357500D02*
X18122500Y-8382500D01*
X18122500Y-8357500D02*
X18097500Y-8382500D01*
X18277500Y-7697500D02*
X18302500Y-7722500D01*
X18302500Y-7697500D02*
X18277500Y-7722500D01*
X18297500Y-8667500D02*
X18322500Y-8692500D01*
X18322500Y-8667500D02*
X18297500Y-8692500D01*
X18487500Y-8587500D02*
X18512500Y-8612500D01*
X18512500Y-8587500D02*
X18487500Y-8612500D01*
X18537500Y-5257500D02*
X18562500Y-5282500D01*
X18562500Y-5257500D02*
X18537500Y-5282500D01*
X18687500Y-8587500D02*
X18712500Y-8612500D01*
X18712500Y-8587500D02*
X18687500Y-8612500D01*
X19327500Y-5247500D02*
X19352500Y-5272500D01*
X19352500Y-5247500D02*
X19327500Y-5272500D01*
X19427500Y-6057500D02*
X19452500Y-6082500D01*
X19452500Y-6057500D02*
X19427500Y-6082500D01*
X19502500Y-7027500D02*
X19527500Y-7052500D01*
X19527500Y-7027500D02*
X19502500Y-7052500D01*
X11215000Y-9390000D02*
G75*
G02*
X11126000Y-9390000I-44500J0D01*
G01*
X11126000Y-9390000D02*
G75*
G02*
X11215000Y-9390000I44500J0D01*
G01*
X11215000Y-10050000D02*
G75*
G02*
X11126000Y-10050000I-44500J0D01*
G01*
X11126000Y-10050000D02*
G75*
G02*
X11215000Y-10050000I44500J0D01*
G01*
X11342000Y-9136000D02*
G75*
G02*
X11253000Y-9136000I-44500J0D01*
G01*
X11253000Y-9136000D02*
G75*
G02*
X11342000Y-9136000I44500J0D01*
G01*
X11342000Y-9796000D02*
G75*
G02*
X11253000Y-9796000I-44500J0D01*
G01*
X11253000Y-9796000D02*
G75*
G02*
X11342000Y-9796000I44500J0D01*
G01*
X11469000Y-9390000D02*
G75*
G02*
X11380000Y-9390000I-44500J0D01*
G01*
X11380000Y-9390000D02*
G75*
G02*
X11469000Y-9390000I44500J0D01*
G01*
X11469000Y-10050000D02*
G75*
G02*
X11380000Y-10050000I-44500J0D01*
G01*
X11380000Y-10050000D02*
G75*
G02*
X11469000Y-10050000I44500J0D01*
G01*
X11596000Y-9136000D02*
G75*
G02*
X11507000Y-9136000I-44500J0D01*
G01*
X11507000Y-9136000D02*
G75*
G02*
X11596000Y-9136000I44500J0D01*
G01*
X11596000Y-9796000D02*
G75*
G02*
X11507000Y-9796000I-44500J0D01*
G01*
X11507000Y-9796000D02*
G75*
G02*
X11596000Y-9796000I44500J0D01*
G01*
X11723000Y-9390000D02*
G75*
G02*
X11634000Y-9390000I-44500J0D01*
G01*
X11634000Y-9390000D02*
G75*
G02*
X11723000Y-9390000I44500J0D01*
G01*
X11723000Y-10050000D02*
G75*
G02*
X11634000Y-10050000I-44500J0D01*
G01*
X11634000Y-10050000D02*
G75*
G02*
X11723000Y-10050000I44500J0D01*
G01*
X11850000Y-9136000D02*
G75*
G02*
X11761000Y-9136000I-44500J0D01*
G01*
X11761000Y-9136000D02*
G75*
G02*
X11850000Y-9136000I44500J0D01*
G01*
X11850000Y-9796000D02*
G75*
G02*
X11761000Y-9796000I-44500J0D01*
G01*
X11761000Y-9796000D02*
G75*
G02*
X11850000Y-9796000I44500J0D01*
G01*
X11977000Y-9390000D02*
G75*
G02*
X11888000Y-9390000I-44500J0D01*
G01*
X11888000Y-9390000D02*
G75*
G02*
X11977000Y-9390000I44500J0D01*
G01*
X11977000Y-10050000D02*
G75*
G02*
X11888000Y-10050000I-44500J0D01*
G01*
X11888000Y-10050000D02*
G75*
G02*
X11977000Y-10050000I44500J0D01*
G01*
X12104000Y-9136000D02*
G75*
G02*
X12015000Y-9136000I-44500J0D01*
G01*
X12015000Y-9136000D02*
G75*
G02*
X12104000Y-9136000I44500J0D01*
G01*
X12104000Y-9796000D02*
G75*
G02*
X12015000Y-9796000I-44500J0D01*
G01*
X12015000Y-9796000D02*
G75*
G02*
X12104000Y-9796000I44500J0D01*
G01*
X12612000Y-9390000D02*
G75*
G02*
X12523000Y-9390000I-44500J0D01*
G01*
X12523000Y-9390000D02*
G75*
G02*
X12612000Y-9390000I44500J0D01*
G01*
X12612000Y-10050000D02*
G75*
G02*
X12523000Y-10050000I-44500J0D01*
G01*
X12523000Y-10050000D02*
G75*
G02*
X12612000Y-10050000I44500J0D01*
G01*
X12739000Y-9136000D02*
G75*
G02*
X12650000Y-9136000I-44500J0D01*
G01*
X12650000Y-9136000D02*
G75*
G02*
X12739000Y-9136000I44500J0D01*
G01*
X12739000Y-9796000D02*
G75*
G02*
X12650000Y-9796000I-44500J0D01*
G01*
X12650000Y-9796000D02*
G75*
G02*
X12739000Y-9796000I44500J0D01*
G01*
X12866000Y-9390000D02*
G75*
G02*
X12777000Y-9390000I-44500J0D01*
G01*
X12777000Y-9390000D02*
G75*
G02*
X12866000Y-9390000I44500J0D01*
G01*
X12866000Y-10050000D02*
G75*
G02*
X12777000Y-10050000I-44500J0D01*
G01*
X12777000Y-10050000D02*
G75*
G02*
X12866000Y-10050000I44500J0D01*
G01*
X12993000Y-9136000D02*
G75*
G02*
X12904000Y-9136000I-44500J0D01*
G01*
X12904000Y-9136000D02*
G75*
G02*
X12993000Y-9136000I44500J0D01*
G01*
X12993000Y-9796000D02*
G75*
G02*
X12904000Y-9796000I-44500J0D01*
G01*
X12904000Y-9796000D02*
G75*
G02*
X12993000Y-9796000I44500J0D01*
G01*
X13120000Y-9390000D02*
G75*
G02*
X13031000Y-9390000I-44500J0D01*
G01*
X13031000Y-9390000D02*
G75*
G02*
X13120000Y-9390000I44500J0D01*
G01*
X13120000Y-10050000D02*
G75*
G02*
X13031000Y-10050000I-44500J0D01*
G01*
X13031000Y-10050000D02*
G75*
G02*
X13120000Y-10050000I44500J0D01*
G01*
X13247000Y-9136000D02*
G75*
G02*
X13158000Y-9136000I-44500J0D01*
G01*
X13158000Y-9136000D02*
G75*
G02*
X13247000Y-9136000I44500J0D01*
G01*
X13247000Y-9796000D02*
G75*
G02*
X13158000Y-9796000I-44500J0D01*
G01*
X13158000Y-9796000D02*
G75*
G02*
X13247000Y-9796000I44500J0D01*
G01*
X13374000Y-9390000D02*
G75*
G02*
X13285000Y-9390000I-44500J0D01*
G01*
X13285000Y-9390000D02*
G75*
G02*
X13374000Y-9390000I44500J0D01*
G01*
X13374000Y-10050000D02*
G75*
G02*
X13285000Y-10050000I-44500J0D01*
G01*
X13285000Y-10050000D02*
G75*
G02*
X13374000Y-10050000I44500J0D01*
G01*
X13501000Y-9136000D02*
G75*
G02*
X13412000Y-9136000I-44500J0D01*
G01*
X13412000Y-9136000D02*
G75*
G02*
X13501000Y-9136000I44500J0D01*
G01*
X13501000Y-9796000D02*
G75*
G02*
X13412000Y-9796000I-44500J0D01*
G01*
X13412000Y-9796000D02*
G75*
G02*
X13501000Y-9796000I44500J0D01*
G01*
X14009000Y-9390000D02*
G75*
G02*
X13920000Y-9390000I-44500J0D01*
G01*
X13920000Y-9390000D02*
G75*
G02*
X14009000Y-9390000I44500J0D01*
G01*
X14009000Y-10050000D02*
G75*
G02*
X13920000Y-10050000I-44500J0D01*
G01*
X13920000Y-10050000D02*
G75*
G02*
X14009000Y-10050000I44500J0D01*
G01*
X14136000Y-9136000D02*
G75*
G02*
X14047000Y-9136000I-44500J0D01*
G01*
X14047000Y-9136000D02*
G75*
G02*
X14136000Y-9136000I44500J0D01*
G01*
X14136000Y-9796000D02*
G75*
G02*
X14047000Y-9796000I-44500J0D01*
G01*
X14047000Y-9796000D02*
G75*
G02*
X14136000Y-9796000I44500J0D01*
G01*
X14263000Y-9390000D02*
G75*
G02*
X14174000Y-9390000I-44500J0D01*
G01*
X14174000Y-9390000D02*
G75*
G02*
X14263000Y-9390000I44500J0D01*
G01*
X14263000Y-10050000D02*
G75*
G02*
X14174000Y-10050000I-44500J0D01*
G01*
X14174000Y-10050000D02*
G75*
G02*
X14263000Y-10050000I44500J0D01*
G01*
X14390000Y-9136000D02*
G75*
G02*
X14301000Y-9136000I-44500J0D01*
G01*
X14301000Y-9136000D02*
G75*
G02*
X14390000Y-9136000I44500J0D01*
G01*
X14390000Y-9796000D02*
G75*
G02*
X14301000Y-9796000I-44500J0D01*
G01*
X14301000Y-9796000D02*
G75*
G02*
X14390000Y-9796000I44500J0D01*
G01*
X14517000Y-9390000D02*
G75*
G02*
X14428000Y-9390000I-44500J0D01*
G01*
X14428000Y-9390000D02*
G75*
G02*
X14517000Y-9390000I44500J0D01*
G01*
X14517000Y-10050000D02*
G75*
G02*
X14428000Y-10050000I-44500J0D01*
G01*
X14428000Y-10050000D02*
G75*
G02*
X14517000Y-10050000I44500J0D01*
G01*
X14644000Y-9136000D02*
G75*
G02*
X14555000Y-9136000I-44500J0D01*
G01*
X14555000Y-9136000D02*
G75*
G02*
X14644000Y-9136000I44500J0D01*
G01*
X14644000Y-9796000D02*
G75*
G02*
X14555000Y-9796000I-44500J0D01*
G01*
X14555000Y-9796000D02*
G75*
G02*
X14644000Y-9796000I44500J0D01*
G01*
X14771000Y-9390000D02*
G75*
G02*
X14682000Y-9390000I-44500J0D01*
G01*
X14682000Y-9390000D02*
G75*
G02*
X14771000Y-9390000I44500J0D01*
G01*
X14771000Y-10050000D02*
G75*
G02*
X14682000Y-10050000I-44500J0D01*
G01*
X14682000Y-10050000D02*
G75*
G02*
X14771000Y-10050000I44500J0D01*
G01*
X14898000Y-9136000D02*
G75*
G02*
X14809000Y-9136000I-44500J0D01*
G01*
X14809000Y-9136000D02*
G75*
G02*
X14898000Y-9136000I44500J0D01*
G01*
X14898000Y-9796000D02*
G75*
G02*
X14809000Y-9796000I-44500J0D01*
G01*
X14809000Y-9796000D02*
G75*
G02*
X14898000Y-9796000I44500J0D01*
G01*
X15983500Y-9390000D02*
G75*
G02*
X15894500Y-9390000I-44500J0D01*
G01*
X15894500Y-9390000D02*
G75*
G02*
X15983500Y-9390000I44500J0D01*
G01*
X15983500Y-10050000D02*
G75*
G02*
X15894500Y-10050000I-44500J0D01*
G01*
X15894500Y-10050000D02*
G75*
G02*
X15983500Y-10050000I44500J0D01*
G01*
X16110500Y-9136000D02*
G75*
G02*
X16021500Y-9136000I-44500J0D01*
G01*
X16021500Y-9136000D02*
G75*
G02*
X16110500Y-9136000I44500J0D01*
G01*
X16110500Y-9796000D02*
G75*
G02*
X16021500Y-9796000I-44500J0D01*
G01*
X16021500Y-9796000D02*
G75*
G02*
X16110500Y-9796000I44500J0D01*
G01*
X16237500Y-9390000D02*
G75*
G02*
X16148500Y-9390000I-44500J0D01*
G01*
X16148500Y-9390000D02*
G75*
G02*
X16237500Y-9390000I44500J0D01*
G01*
X16237500Y-10050000D02*
G75*
G02*
X16148500Y-10050000I-44500J0D01*
G01*
X16148500Y-10050000D02*
G75*
G02*
X16237500Y-10050000I44500J0D01*
G01*
X16364500Y-9136000D02*
G75*
G02*
X16275500Y-9136000I-44500J0D01*
G01*
X16275500Y-9136000D02*
G75*
G02*
X16364500Y-9136000I44500J0D01*
G01*
X16364500Y-9796000D02*
G75*
G02*
X16275500Y-9796000I-44500J0D01*
G01*
X16275500Y-9796000D02*
G75*
G02*
X16364500Y-9796000I44500J0D01*
G01*
X16491500Y-9390000D02*
G75*
G02*
X16402500Y-9390000I-44500J0D01*
G01*
X16402500Y-9390000D02*
G75*
G02*
X16491500Y-9390000I44500J0D01*
G01*
X16491500Y-10050000D02*
G75*
G02*
X16402500Y-10050000I-44500J0D01*
G01*
X16402500Y-10050000D02*
G75*
G02*
X16491500Y-10050000I44500J0D01*
G01*
X16618500Y-9136000D02*
G75*
G02*
X16529500Y-9136000I-44500J0D01*
G01*
X16529500Y-9136000D02*
G75*
G02*
X16618500Y-9136000I44500J0D01*
G01*
X16618500Y-9796000D02*
G75*
G02*
X16529500Y-9796000I-44500J0D01*
G01*
X16529500Y-9796000D02*
G75*
G02*
X16618500Y-9796000I44500J0D01*
G01*
X16745500Y-9390000D02*
G75*
G02*
X16656500Y-9390000I-44500J0D01*
G01*
X16656500Y-9390000D02*
G75*
G02*
X16745500Y-9390000I44500J0D01*
G01*
X16745500Y-10050000D02*
G75*
G02*
X16656500Y-10050000I-44500J0D01*
G01*
X16656500Y-10050000D02*
G75*
G02*
X16745500Y-10050000I44500J0D01*
G01*
X16872500Y-9136000D02*
G75*
G02*
X16783500Y-9136000I-44500J0D01*
G01*
X16783500Y-9136000D02*
G75*
G02*
X16872500Y-9136000I44500J0D01*
G01*
X16872500Y-9796000D02*
G75*
G02*
X16783500Y-9796000I-44500J0D01*
G01*
X16783500Y-9796000D02*
G75*
G02*
X16872500Y-9796000I44500J0D01*
G01*
X17380500Y-9390000D02*
G75*
G02*
X17291500Y-9390000I-44500J0D01*
G01*
X17291500Y-9390000D02*
G75*
G02*
X17380500Y-9390000I44500J0D01*
G01*
X17380500Y-10050000D02*
G75*
G02*
X17291500Y-10050000I-44500J0D01*
G01*
X17291500Y-10050000D02*
G75*
G02*
X17380500Y-10050000I44500J0D01*
G01*
X17507500Y-9136000D02*
G75*
G02*
X17418500Y-9136000I-44500J0D01*
G01*
X17418500Y-9136000D02*
G75*
G02*
X17507500Y-9136000I44500J0D01*
G01*
X17507500Y-9796000D02*
G75*
G02*
X17418500Y-9796000I-44500J0D01*
G01*
X17418500Y-9796000D02*
G75*
G02*
X17507500Y-9796000I44500J0D01*
G01*
X17634500Y-9390000D02*
G75*
G02*
X17545500Y-9390000I-44500J0D01*
G01*
X17545500Y-9390000D02*
G75*
G02*
X17634500Y-9390000I44500J0D01*
G01*
X17634500Y-10050000D02*
G75*
G02*
X17545500Y-10050000I-44500J0D01*
G01*
X17545500Y-10050000D02*
G75*
G02*
X17634500Y-10050000I44500J0D01*
G01*
X17761500Y-9136000D02*
G75*
G02*
X17672500Y-9136000I-44500J0D01*
G01*
X17672500Y-9136000D02*
G75*
G02*
X17761500Y-9136000I44500J0D01*
G01*
X17761500Y-9796000D02*
G75*
G02*
X17672500Y-9796000I-44500J0D01*
G01*
X17672500Y-9796000D02*
G75*
G02*
X17761500Y-9796000I44500J0D01*
G01*
X17888500Y-9390000D02*
G75*
G02*
X17799500Y-9390000I-44500J0D01*
G01*
X17799500Y-9390000D02*
G75*
G02*
X17888500Y-9390000I44500J0D01*
G01*
X17888500Y-10050000D02*
G75*
G02*
X17799500Y-10050000I-44500J0D01*
G01*
X17799500Y-10050000D02*
G75*
G02*
X17888500Y-10050000I44500J0D01*
G01*
X18015500Y-9136000D02*
G75*
G02*
X17926500Y-9136000I-44500J0D01*
G01*
X17926500Y-9136000D02*
G75*
G02*
X18015500Y-9136000I44500J0D01*
G01*
X18015500Y-9796000D02*
G75*
G02*
X17926500Y-9796000I-44500J0D01*
G01*
X17926500Y-9796000D02*
G75*
G02*
X18015500Y-9796000I44500J0D01*
G01*
X18142500Y-9390000D02*
G75*
G02*
X18053500Y-9390000I-44500J0D01*
G01*
X18053500Y-9390000D02*
G75*
G02*
X18142500Y-9390000I44500J0D01*
G01*
X18142500Y-10050000D02*
G75*
G02*
X18053500Y-10050000I-44500J0D01*
G01*
X18053500Y-10050000D02*
G75*
G02*
X18142500Y-10050000I44500J0D01*
G01*
X18269500Y-9136000D02*
G75*
G02*
X18180500Y-9136000I-44500J0D01*
G01*
X18180500Y-9136000D02*
G75*
G02*
X18269500Y-9136000I44500J0D01*
G01*
X18269500Y-9796000D02*
G75*
G02*
X18180500Y-9796000I-44500J0D01*
G01*
X18180500Y-9796000D02*
G75*
G02*
X18269500Y-9796000I44500J0D01*
G01*
X18777500Y-9390000D02*
G75*
G02*
X18688500Y-9390000I-44500J0D01*
G01*
X18688500Y-9390000D02*
G75*
G02*
X18777500Y-9390000I44500J0D01*
G01*
X18777500Y-10050000D02*
G75*
G02*
X18688500Y-10050000I-44500J0D01*
G01*
X18688500Y-10050000D02*
G75*
G02*
X18777500Y-10050000I44500J0D01*
G01*
X18904500Y-9136000D02*
G75*
G02*
X18815500Y-9136000I-44500J0D01*
G01*
X18815500Y-9136000D02*
G75*
G02*
X18904500Y-9136000I44500J0D01*
G01*
X18904500Y-9796000D02*
G75*
G02*
X18815500Y-9796000I-44500J0D01*
G01*
X18815500Y-9796000D02*
G75*
G02*
X18904500Y-9796000I44500J0D01*
G01*
X19031500Y-9390000D02*
G75*
G02*
X18942500Y-9390000I-44500J0D01*
G01*
X18942500Y-9390000D02*
G75*
G02*
X19031500Y-9390000I44500J0D01*
G01*
X19031500Y-10050000D02*
G75*
G02*
X18942500Y-10050000I-44500J0D01*
G01*
X18942500Y-10050000D02*
G75*
G02*
X19031500Y-10050000I44500J0D01*
G01*
X19158500Y-9136000D02*
G75*
G02*
X19069500Y-9136000I-44500J0D01*
G01*
X19069500Y-9136000D02*
G75*
G02*
X19158500Y-9136000I44500J0D01*
G01*
X19158500Y-9796000D02*
G75*
G02*
X19069500Y-9796000I-44500J0D01*
G01*
X19069500Y-9796000D02*
G75*
G02*
X19158500Y-9796000I44500J0D01*
G01*
X19285500Y-9390000D02*
G75*
G02*
X19196500Y-9390000I-44500J0D01*
G01*
X19196500Y-9390000D02*
G75*
G02*
X19285500Y-9390000I44500J0D01*
G01*
X19285500Y-10050000D02*
G75*
G02*
X19196500Y-10050000I-44500J0D01*
G01*
X19196500Y-10050000D02*
G75*
G02*
X19285500Y-10050000I44500J0D01*
G01*
X19412500Y-9136000D02*
G75*
G02*
X19323500Y-9136000I-44500J0D01*
G01*
X19323500Y-9136000D02*
G75*
G02*
X19412500Y-9136000I44500J0D01*
G01*
X19412500Y-9796000D02*
G75*
G02*
X19323500Y-9796000I-44500J0D01*
G01*
X19323500Y-9796000D02*
G75*
G02*
X19412500Y-9796000I44500J0D01*
G01*
X19539500Y-9390000D02*
G75*
G02*
X19450500Y-9390000I-44500J0D01*
G01*
X19450500Y-9390000D02*
G75*
G02*
X19539500Y-9390000I44500J0D01*
G01*
X19539500Y-10050000D02*
G75*
G02*
X19450500Y-10050000I-44500J0D01*
G01*
X19450500Y-10050000D02*
G75*
G02*
X19539500Y-10050000I44500J0D01*
G01*
X19666500Y-9136000D02*
G75*
G02*
X19577500Y-9136000I-44500J0D01*
G01*
X19577500Y-9136000D02*
G75*
G02*
X19666500Y-9136000I44500J0D01*
G01*
X19666500Y-9796000D02*
G75*
G02*
X19577500Y-9796000I-44500J0D01*
G01*
X19577500Y-9796000D02*
G75*
G02*
X19666500Y-9796000I44500J0D01*
G01*
X15156000Y-4722000D02*
X15156000Y-4822000D01*
X15106000Y-4772000D02*
X15206000Y-4772000D01*
X15156000Y-6500000D02*
X15156000Y-6600000D01*
X15106000Y-6550000D02*
X15206000Y-6550000D01*
X15410000Y-4722000D02*
X15410000Y-4822000D01*
X15360000Y-4772000D02*
X15460000Y-4772000D01*
X15410000Y-6500000D02*
X15410000Y-6600000D01*
X15360000Y-6550000D02*
X15460000Y-6550000D01*
X15664000Y-4722000D02*
X15664000Y-4822000D01*
X15614000Y-4772000D02*
X15714000Y-4772000D01*
X15664000Y-6500000D02*
X15664000Y-6600000D01*
X15614000Y-6550000D02*
X15714000Y-6550000D01*
X15918000Y-4722000D02*
X15918000Y-4822000D01*
X15868000Y-4772000D02*
X15968000Y-4772000D01*
X15918000Y-6500000D02*
X15918000Y-6600000D01*
X15868000Y-6550000D02*
X15968000Y-6550000D01*
X16172000Y-4722000D02*
X16172000Y-4822000D01*
X16122000Y-4772000D02*
X16222000Y-4772000D01*
X16172000Y-6500000D02*
X16172000Y-6600000D01*
X16122000Y-6550000D02*
X16222000Y-6550000D01*
X16426000Y-4722000D02*
X16426000Y-4822000D01*
X16376000Y-4772000D02*
X16476000Y-4772000D01*
X16426000Y-6500000D02*
X16426000Y-6600000D01*
X16376000Y-6550000D02*
X16476000Y-6550000D01*
X16680000Y-4722000D02*
X16680000Y-4822000D01*
X16630000Y-4772000D02*
X16730000Y-4772000D01*
X16680000Y-6500000D02*
X16680000Y-6600000D01*
X16630000Y-6550000D02*
X16730000Y-6550000D01*
X16934000Y-4722000D02*
X16934000Y-4822000D01*
X16884000Y-4772000D02*
X16984000Y-4772000D01*
X16934000Y-6500000D02*
X16934000Y-6600000D01*
X16884000Y-6550000D02*
X16984000Y-6550000D01*
X17188000Y-4722000D02*
X17188000Y-4822000D01*
X17138000Y-4772000D02*
X17238000Y-4772000D01*
X17188000Y-6500000D02*
X17188000Y-6600000D01*
X17138000Y-6550000D02*
X17238000Y-6550000D01*
X17442000Y-4722000D02*
X17442000Y-4822000D01*
X17392000Y-4772000D02*
X17492000Y-4772000D01*
X17442000Y-6500000D02*
X17442000Y-6600000D01*
X17392000Y-6550000D02*
X17492000Y-6550000D01*
X17696000Y-4722000D02*
X17696000Y-4822000D01*
X17646000Y-4772000D02*
X17746000Y-4772000D01*
X17696000Y-6500000D02*
X17696000Y-6600000D01*
X17646000Y-6550000D02*
X17746000Y-6550000D01*
X17950000Y-4722000D02*
X17950000Y-4822000D01*
X17900000Y-4772000D02*
X18000000Y-4772000D01*
X17950000Y-6500000D02*
X17950000Y-6600000D01*
X17900000Y-6550000D02*
X18000000Y-6550000D01*
X18204000Y-4722000D02*
X18204000Y-4822000D01*
X18154000Y-4772000D02*
X18254000Y-4772000D01*
X18204000Y-6500000D02*
X18204000Y-6600000D01*
X18154000Y-6550000D02*
X18254000Y-6550000D01*
X18458000Y-4722000D02*
X18458000Y-4822000D01*
X18408000Y-4772000D02*
X18508000Y-4772000D01*
X18458000Y-6500000D02*
X18458000Y-6600000D01*
X18408000Y-6550000D02*
X18508000Y-6550000D01*
X18712000Y-4722000D02*
X18712000Y-4822000D01*
X18662000Y-4772000D02*
X18762000Y-4772000D01*
X18712000Y-6500000D02*
X18712000Y-6600000D01*
X18662000Y-6550000D02*
X18762000Y-6550000D01*
X18966000Y-4722000D02*
X18966000Y-4822000D01*
X18916000Y-4772000D02*
X19016000Y-4772000D01*
X18966000Y-6500000D02*
X18966000Y-6600000D01*
X18916000Y-6550000D02*
X19016000Y-6550000D01*
X19220000Y-4722000D02*
X19220000Y-4822000D01*
X19170000Y-4772000D02*
X19270000Y-4772000D01*
X19220000Y-6500000D02*
X19220000Y-6600000D01*
X19170000Y-6550000D02*
X19270000Y-6550000D01*
X19474000Y-4722000D02*
X19474000Y-4822000D01*
X19424000Y-4772000D02*
X19524000Y-4772000D01*
X19474000Y-6500000D02*
X19474000Y-6600000D01*
X19424000Y-6550000D02*
X19524000Y-6550000D01*
X19728000Y-4722000D02*
X19728000Y-4822000D01*
X19678000Y-4772000D02*
X19778000Y-4772000D01*
X19728000Y-6500000D02*
X19728000Y-6600000D01*
X19678000Y-6550000D02*
X19778000Y-6550000D01*
X19982000Y-4722000D02*
X19982000Y-4822000D01*
X19932000Y-4772000D02*
X20032000Y-4772000D01*
X19982000Y-6500000D02*
X19982000Y-6600000D01*
X19932000Y-6550000D02*
X20032000Y-6550000D01*
D11*
X19272711Y-7595711D02*
X19272711Y-7454289D01*
X19131289Y-7454289D01*
X19131289Y-7595711D01*
X19272711Y-7595711D01*
X19272711Y-8595711D02*
X19272711Y-8454289D01*
X19131289Y-8454289D01*
X19131289Y-8595711D01*
X19272711Y-8595711D01*
X19822711Y-7595711D02*
X19822711Y-7454289D01*
X19681289Y-7454289D01*
X19681289Y-7595711D01*
X19822711Y-7595711D01*
X19822711Y-8595711D02*
X19822711Y-8454289D01*
X19681289Y-8454289D01*
X19681289Y-8595711D01*
X19822711Y-8595711D01*
X20062711Y-7395711D02*
X20062711Y-7254289D01*
X19921289Y-7254289D01*
X19921289Y-7395711D01*
X20062711Y-7395711D01*
X20062711Y-8395711D02*
X20062711Y-8254289D01*
X19921289Y-8254289D01*
X19921289Y-8395711D01*
X20062711Y-8395711D01*
X10855777Y-11816484D02*
X10855777Y-11616484D01*
X10855777Y-11616484D02*
X10903396Y-11616484D01*
X10903396Y-11616484D02*
X10931967Y-11626008D01*
X10931967Y-11626008D02*
X10951015Y-11645055D01*
X10951015Y-11645055D02*
X10960539Y-11664103D01*
X10960539Y-11664103D02*
X10970063Y-11702198D01*
X10970063Y-11702198D02*
X10970063Y-11730769D01*
X10970063Y-11730769D02*
X10960539Y-11768865D01*
X10960539Y-11768865D02*
X10951015Y-11787912D01*
X10951015Y-11787912D02*
X10931967Y-11806960D01*
X10931967Y-11806960D02*
X10903396Y-11816484D01*
X10903396Y-11816484D02*
X10855777Y-11816484D01*
X11055777Y-11816484D02*
X11055777Y-11683150D01*
X11055777Y-11721246D02*
X11065301Y-11702198D01*
X11065301Y-11702198D02*
X11074824Y-11692674D01*
X11074824Y-11692674D02*
X11093872Y-11683150D01*
X11093872Y-11683150D02*
X11112920Y-11683150D01*
X11179586Y-11816484D02*
X11179586Y-11683150D01*
X11179586Y-11616484D02*
X11170063Y-11626008D01*
X11170063Y-11626008D02*
X11179586Y-11635531D01*
X11179586Y-11635531D02*
X11189110Y-11626008D01*
X11189110Y-11626008D02*
X11179586Y-11616484D01*
X11179586Y-11616484D02*
X11179586Y-11635531D01*
X11303396Y-11816484D02*
X11284348Y-11806960D01*
X11284348Y-11806960D02*
X11274824Y-11787912D01*
X11274824Y-11787912D02*
X11274824Y-11616484D01*
X11408158Y-11816484D02*
X11389110Y-11806960D01*
X11389110Y-11806960D02*
X11379586Y-11787912D01*
X11379586Y-11787912D02*
X11379586Y-11616484D01*
X11636729Y-11816484D02*
X11636729Y-11616484D01*
X11636729Y-11616484D02*
X11703396Y-11759341D01*
X11703396Y-11759341D02*
X11770062Y-11616484D01*
X11770062Y-11616484D02*
X11770062Y-11816484D01*
X11951015Y-11816484D02*
X11951015Y-11711722D01*
X11951015Y-11711722D02*
X11941491Y-11692674D01*
X11941491Y-11692674D02*
X11922443Y-11683150D01*
X11922443Y-11683150D02*
X11884348Y-11683150D01*
X11884348Y-11683150D02*
X11865301Y-11692674D01*
X11951015Y-11806960D02*
X11931967Y-11816484D01*
X11931967Y-11816484D02*
X11884348Y-11816484D01*
X11884348Y-11816484D02*
X11865301Y-11806960D01*
X11865301Y-11806960D02*
X11855777Y-11787912D01*
X11855777Y-11787912D02*
X11855777Y-11768865D01*
X11855777Y-11768865D02*
X11865301Y-11749817D01*
X11865301Y-11749817D02*
X11884348Y-11740293D01*
X11884348Y-11740293D02*
X11931967Y-11740293D01*
X11931967Y-11740293D02*
X11951015Y-11730769D01*
X12046253Y-11683150D02*
X12046253Y-11883150D01*
X12046253Y-11692674D02*
X12065301Y-11683150D01*
X12065301Y-11683150D02*
X12103396Y-11683150D01*
X12103396Y-11683150D02*
X12122443Y-11692674D01*
X12122443Y-11692674D02*
X12131967Y-11702198D01*
X12131967Y-11702198D02*
X12141491Y-11721246D01*
X12141491Y-11721246D02*
X12141491Y-11778388D01*
X12141491Y-11778388D02*
X12131967Y-11797436D01*
X12131967Y-11797436D02*
X12122443Y-11806960D01*
X12122443Y-11806960D02*
X12103396Y-11816484D01*
X12103396Y-11816484D02*
X12065301Y-11816484D01*
X12065301Y-11816484D02*
X12046253Y-11806960D01*
X12227205Y-11797436D02*
X12236729Y-11806960D01*
X12236729Y-11806960D02*
X12227205Y-11816484D01*
X12227205Y-11816484D02*
X12217682Y-11806960D01*
X12217682Y-11806960D02*
X12227205Y-11797436D01*
X12227205Y-11797436D02*
X12227205Y-11816484D01*
X12227205Y-11692674D02*
X12236729Y-11702198D01*
X12236729Y-11702198D02*
X12227205Y-11711722D01*
X12227205Y-11711722D02*
X12217682Y-11702198D01*
X12217682Y-11702198D02*
X12227205Y-11692674D01*
X12227205Y-11692674D02*
X12227205Y-11711722D01*
D10*
X10570000Y-12132500D02*
X10595000Y-12157500D01*
X10595000Y-12132500D02*
X10570000Y-12157500D01*
D11*
X10893872Y-12036484D02*
X10912920Y-12036484D01*
X10912920Y-12036484D02*
X10931967Y-12046008D01*
X10931967Y-12046008D02*
X10941491Y-12055531D01*
X10941491Y-12055531D02*
X10951015Y-12074579D01*
X10951015Y-12074579D02*
X10960539Y-12112674D01*
X10960539Y-12112674D02*
X10960539Y-12160293D01*
X10960539Y-12160293D02*
X10951015Y-12198388D01*
X10951015Y-12198388D02*
X10941491Y-12217436D01*
X10941491Y-12217436D02*
X10931967Y-12226960D01*
X10931967Y-12226960D02*
X10912920Y-12236484D01*
X10912920Y-12236484D02*
X10893872Y-12236484D01*
X10893872Y-12236484D02*
X10874824Y-12226960D01*
X10874824Y-12226960D02*
X10865301Y-12217436D01*
X10865301Y-12217436D02*
X10855777Y-12198388D01*
X10855777Y-12198388D02*
X10846253Y-12160293D01*
X10846253Y-12160293D02*
X10846253Y-12112674D01*
X10846253Y-12112674D02*
X10855777Y-12074579D01*
X10855777Y-12074579D02*
X10865301Y-12055531D01*
X10865301Y-12055531D02*
X10874824Y-12046008D01*
X10874824Y-12046008D02*
X10893872Y-12036484D01*
X11046253Y-12217436D02*
X11055777Y-12226960D01*
X11055777Y-12226960D02*
X11046253Y-12236484D01*
X11046253Y-12236484D02*
X11036729Y-12226960D01*
X11036729Y-12226960D02*
X11046253Y-12217436D01*
X11046253Y-12217436D02*
X11046253Y-12236484D01*
X11131967Y-12055531D02*
X11141491Y-12046008D01*
X11141491Y-12046008D02*
X11160539Y-12036484D01*
X11160539Y-12036484D02*
X11208158Y-12036484D01*
X11208158Y-12036484D02*
X11227205Y-12046008D01*
X11227205Y-12046008D02*
X11236729Y-12055531D01*
X11236729Y-12055531D02*
X11246253Y-12074579D01*
X11246253Y-12074579D02*
X11246253Y-12093627D01*
X11246253Y-12093627D02*
X11236729Y-12122198D01*
X11236729Y-12122198D02*
X11122444Y-12236484D01*
X11122444Y-12236484D02*
X11246253Y-12236484D01*
X11427205Y-12036484D02*
X11331967Y-12036484D01*
X11331967Y-12036484D02*
X11322443Y-12131722D01*
X11322443Y-12131722D02*
X11331967Y-12122198D01*
X11331967Y-12122198D02*
X11351015Y-12112674D01*
X11351015Y-12112674D02*
X11398634Y-12112674D01*
X11398634Y-12112674D02*
X11417682Y-12122198D01*
X11417682Y-12122198D02*
X11427205Y-12131722D01*
X11427205Y-12131722D02*
X11436729Y-12150769D01*
X11436729Y-12150769D02*
X11436729Y-12198388D01*
X11436729Y-12198388D02*
X11427205Y-12217436D01*
X11427205Y-12217436D02*
X11417682Y-12226960D01*
X11417682Y-12226960D02*
X11398634Y-12236484D01*
X11398634Y-12236484D02*
X11351015Y-12236484D01*
X11351015Y-12236484D02*
X11331967Y-12226960D01*
X11331967Y-12226960D02*
X11322443Y-12217436D01*
X11560539Y-12036484D02*
X11579586Y-12036484D01*
X11579586Y-12036484D02*
X11598634Y-12046008D01*
X11598634Y-12046008D02*
X11608158Y-12055531D01*
X11608158Y-12055531D02*
X11617682Y-12074579D01*
X11617682Y-12074579D02*
X11627205Y-12112674D01*
X11627205Y-12112674D02*
X11627205Y-12160293D01*
X11627205Y-12160293D02*
X11617682Y-12198388D01*
X11617682Y-12198388D02*
X11608158Y-12217436D01*
X11608158Y-12217436D02*
X11598634Y-12226960D01*
X11598634Y-12226960D02*
X11579586Y-12236484D01*
X11579586Y-12236484D02*
X11560539Y-12236484D01*
X11560539Y-12236484D02*
X11541491Y-12226960D01*
X11541491Y-12226960D02*
X11531967Y-12217436D01*
X11531967Y-12217436D02*
X11522443Y-12198388D01*
X11522443Y-12198388D02*
X11512920Y-12160293D01*
X11512920Y-12160293D02*
X11512920Y-12112674D01*
X11512920Y-12112674D02*
X11522443Y-12074579D01*
X11522443Y-12074579D02*
X11531967Y-12055531D01*
X11531967Y-12055531D02*
X11541491Y-12046008D01*
X11541491Y-12046008D02*
X11560539Y-12036484D01*
X11712920Y-12236484D02*
X11712920Y-12103150D01*
X11712920Y-12122198D02*
X11722443Y-12112674D01*
X11722443Y-12112674D02*
X11741491Y-12103150D01*
X11741491Y-12103150D02*
X11770063Y-12103150D01*
X11770063Y-12103150D02*
X11789110Y-12112674D01*
X11789110Y-12112674D02*
X11798634Y-12131722D01*
X11798634Y-12131722D02*
X11798634Y-12236484D01*
X11798634Y-12131722D02*
X11808158Y-12112674D01*
X11808158Y-12112674D02*
X11827205Y-12103150D01*
X11827205Y-12103150D02*
X11855777Y-12103150D01*
X11855777Y-12103150D02*
X11874824Y-12112674D01*
X11874824Y-12112674D02*
X11884348Y-12131722D01*
X11884348Y-12131722D02*
X11884348Y-12236484D01*
X11979586Y-12236484D02*
X11979586Y-12103150D01*
X11979586Y-12122198D02*
X11989110Y-12112674D01*
X11989110Y-12112674D02*
X12008158Y-12103150D01*
X12008158Y-12103150D02*
X12036729Y-12103150D01*
X12036729Y-12103150D02*
X12055777Y-12112674D01*
X12055777Y-12112674D02*
X12065301Y-12131722D01*
X12065301Y-12131722D02*
X12065301Y-12236484D01*
X12065301Y-12131722D02*
X12074824Y-12112674D01*
X12074824Y-12112674D02*
X12093872Y-12103150D01*
X12093872Y-12103150D02*
X12122443Y-12103150D01*
X12122443Y-12103150D02*
X12141491Y-12112674D01*
X12141491Y-12112674D02*
X12151015Y-12131722D01*
X12151015Y-12131722D02*
X12151015Y-12236484D01*
X12541491Y-12026960D02*
X12370063Y-12284103D01*
X12798634Y-12036484D02*
X12817682Y-12036484D01*
X12817682Y-12036484D02*
X12836729Y-12046008D01*
X12836729Y-12046008D02*
X12846253Y-12055531D01*
X12846253Y-12055531D02*
X12855777Y-12074579D01*
X12855777Y-12074579D02*
X12865301Y-12112674D01*
X12865301Y-12112674D02*
X12865301Y-12160293D01*
X12865301Y-12160293D02*
X12855777Y-12198388D01*
X12855777Y-12198388D02*
X12846253Y-12217436D01*
X12846253Y-12217436D02*
X12836729Y-12226960D01*
X12836729Y-12226960D02*
X12817682Y-12236484D01*
X12817682Y-12236484D02*
X12798634Y-12236484D01*
X12798634Y-12236484D02*
X12779586Y-12226960D01*
X12779586Y-12226960D02*
X12770063Y-12217436D01*
X12770063Y-12217436D02*
X12760539Y-12198388D01*
X12760539Y-12198388D02*
X12751015Y-12160293D01*
X12751015Y-12160293D02*
X12751015Y-12112674D01*
X12751015Y-12112674D02*
X12760539Y-12074579D01*
X12760539Y-12074579D02*
X12770063Y-12055531D01*
X12770063Y-12055531D02*
X12779586Y-12046008D01*
X12779586Y-12046008D02*
X12798634Y-12036484D01*
X12951015Y-12217436D02*
X12960539Y-12226960D01*
X12960539Y-12226960D02*
X12951015Y-12236484D01*
X12951015Y-12236484D02*
X12941491Y-12226960D01*
X12941491Y-12226960D02*
X12951015Y-12217436D01*
X12951015Y-12217436D02*
X12951015Y-12236484D01*
X13084348Y-12036484D02*
X13103396Y-12036484D01*
X13103396Y-12036484D02*
X13122444Y-12046008D01*
X13122444Y-12046008D02*
X13131967Y-12055531D01*
X13131967Y-12055531D02*
X13141491Y-12074579D01*
X13141491Y-12074579D02*
X13151015Y-12112674D01*
X13151015Y-12112674D02*
X13151015Y-12160293D01*
X13151015Y-12160293D02*
X13141491Y-12198388D01*
X13141491Y-12198388D02*
X13131967Y-12217436D01*
X13131967Y-12217436D02*
X13122444Y-12226960D01*
X13122444Y-12226960D02*
X13103396Y-12236484D01*
X13103396Y-12236484D02*
X13084348Y-12236484D01*
X13084348Y-12236484D02*
X13065301Y-12226960D01*
X13065301Y-12226960D02*
X13055777Y-12217436D01*
X13055777Y-12217436D02*
X13046253Y-12198388D01*
X13046253Y-12198388D02*
X13036729Y-12160293D01*
X13036729Y-12160293D02*
X13036729Y-12112674D01*
X13036729Y-12112674D02*
X13046253Y-12074579D01*
X13046253Y-12074579D02*
X13055777Y-12055531D01*
X13055777Y-12055531D02*
X13065301Y-12046008D01*
X13065301Y-12046008D02*
X13084348Y-12036484D01*
X13274825Y-12036484D02*
X13293872Y-12036484D01*
X13293872Y-12036484D02*
X13312920Y-12046008D01*
X13312920Y-12046008D02*
X13322444Y-12055531D01*
X13322444Y-12055531D02*
X13331967Y-12074579D01*
X13331967Y-12074579D02*
X13341491Y-12112674D01*
X13341491Y-12112674D02*
X13341491Y-12160293D01*
X13341491Y-12160293D02*
X13331967Y-12198388D01*
X13331967Y-12198388D02*
X13322444Y-12217436D01*
X13322444Y-12217436D02*
X13312920Y-12226960D01*
X13312920Y-12226960D02*
X13293872Y-12236484D01*
X13293872Y-12236484D02*
X13274825Y-12236484D01*
X13274825Y-12236484D02*
X13255777Y-12226960D01*
X13255777Y-12226960D02*
X13246253Y-12217436D01*
X13246253Y-12217436D02*
X13236729Y-12198388D01*
X13236729Y-12198388D02*
X13227206Y-12160293D01*
X13227206Y-12160293D02*
X13227206Y-12112674D01*
X13227206Y-12112674D02*
X13236729Y-12074579D01*
X13236729Y-12074579D02*
X13246253Y-12055531D01*
X13246253Y-12055531D02*
X13255777Y-12046008D01*
X13255777Y-12046008D02*
X13274825Y-12036484D01*
X13436729Y-12236484D02*
X13474825Y-12236484D01*
X13474825Y-12236484D02*
X13493872Y-12226960D01*
X13493872Y-12226960D02*
X13503396Y-12217436D01*
X13503396Y-12217436D02*
X13522444Y-12188865D01*
X13522444Y-12188865D02*
X13531967Y-12150769D01*
X13531967Y-12150769D02*
X13531967Y-12074579D01*
X13531967Y-12074579D02*
X13522444Y-12055531D01*
X13522444Y-12055531D02*
X13512920Y-12046008D01*
X13512920Y-12046008D02*
X13493872Y-12036484D01*
X13493872Y-12036484D02*
X13455777Y-12036484D01*
X13455777Y-12036484D02*
X13436729Y-12046008D01*
X13436729Y-12046008D02*
X13427206Y-12055531D01*
X13427206Y-12055531D02*
X13417682Y-12074579D01*
X13417682Y-12074579D02*
X13417682Y-12122198D01*
X13417682Y-12122198D02*
X13427206Y-12141246D01*
X13427206Y-12141246D02*
X13436729Y-12150769D01*
X13436729Y-12150769D02*
X13455777Y-12160293D01*
X13455777Y-12160293D02*
X13493872Y-12160293D01*
X13493872Y-12160293D02*
X13512920Y-12150769D01*
X13512920Y-12150769D02*
X13522444Y-12141246D01*
X13522444Y-12141246D02*
X13531967Y-12122198D01*
X13646253Y-12122198D02*
X13627206Y-12112674D01*
X13627206Y-12112674D02*
X13617682Y-12103150D01*
X13617682Y-12103150D02*
X13608158Y-12084103D01*
X13608158Y-12084103D02*
X13608158Y-12074579D01*
X13608158Y-12074579D02*
X13617682Y-12055531D01*
X13617682Y-12055531D02*
X13627206Y-12046008D01*
X13627206Y-12046008D02*
X13646253Y-12036484D01*
X13646253Y-12036484D02*
X13684348Y-12036484D01*
X13684348Y-12036484D02*
X13703396Y-12046008D01*
X13703396Y-12046008D02*
X13712920Y-12055531D01*
X13712920Y-12055531D02*
X13722444Y-12074579D01*
X13722444Y-12074579D02*
X13722444Y-12084103D01*
X13722444Y-12084103D02*
X13712920Y-12103150D01*
X13712920Y-12103150D02*
X13703396Y-12112674D01*
X13703396Y-12112674D02*
X13684348Y-12122198D01*
X13684348Y-12122198D02*
X13646253Y-12122198D01*
X13646253Y-12122198D02*
X13627206Y-12131722D01*
X13627206Y-12131722D02*
X13617682Y-12141246D01*
X13617682Y-12141246D02*
X13608158Y-12160293D01*
X13608158Y-12160293D02*
X13608158Y-12198388D01*
X13608158Y-12198388D02*
X13617682Y-12217436D01*
X13617682Y-12217436D02*
X13627206Y-12226960D01*
X13627206Y-12226960D02*
X13646253Y-12236484D01*
X13646253Y-12236484D02*
X13684348Y-12236484D01*
X13684348Y-12236484D02*
X13703396Y-12226960D01*
X13703396Y-12226960D02*
X13712920Y-12217436D01*
X13712920Y-12217436D02*
X13722444Y-12198388D01*
X13722444Y-12198388D02*
X13722444Y-12160293D01*
X13722444Y-12160293D02*
X13712920Y-12141246D01*
X13712920Y-12141246D02*
X13703396Y-12131722D01*
X13703396Y-12131722D02*
X13684348Y-12122198D01*
X13798634Y-12036484D02*
X13798634Y-12074579D01*
X13874825Y-12036484D02*
X13874825Y-12074579D01*
X14170063Y-12312674D02*
X14160539Y-12303150D01*
X14160539Y-12303150D02*
X14141491Y-12274579D01*
X14141491Y-12274579D02*
X14131968Y-12255531D01*
X14131968Y-12255531D02*
X14122444Y-12226960D01*
X14122444Y-12226960D02*
X14112920Y-12179341D01*
X14112920Y-12179341D02*
X14112920Y-12141246D01*
X14112920Y-12141246D02*
X14122444Y-12093627D01*
X14122444Y-12093627D02*
X14131968Y-12065055D01*
X14131968Y-12065055D02*
X14141491Y-12046008D01*
X14141491Y-12046008D02*
X14160539Y-12017436D01*
X14160539Y-12017436D02*
X14170063Y-12007912D01*
X14331968Y-12036484D02*
X14293872Y-12036484D01*
X14293872Y-12036484D02*
X14274825Y-12046008D01*
X14274825Y-12046008D02*
X14265301Y-12055531D01*
X14265301Y-12055531D02*
X14246253Y-12084103D01*
X14246253Y-12084103D02*
X14236729Y-12122198D01*
X14236729Y-12122198D02*
X14236729Y-12198388D01*
X14236729Y-12198388D02*
X14246253Y-12217436D01*
X14246253Y-12217436D02*
X14255777Y-12226960D01*
X14255777Y-12226960D02*
X14274825Y-12236484D01*
X14274825Y-12236484D02*
X14312920Y-12236484D01*
X14312920Y-12236484D02*
X14331968Y-12226960D01*
X14331968Y-12226960D02*
X14341491Y-12217436D01*
X14341491Y-12217436D02*
X14351015Y-12198388D01*
X14351015Y-12198388D02*
X14351015Y-12150769D01*
X14351015Y-12150769D02*
X14341491Y-12131722D01*
X14341491Y-12131722D02*
X14331968Y-12122198D01*
X14331968Y-12122198D02*
X14312920Y-12112674D01*
X14312920Y-12112674D02*
X14274825Y-12112674D01*
X14274825Y-12112674D02*
X14255777Y-12122198D01*
X14255777Y-12122198D02*
X14246253Y-12131722D01*
X14246253Y-12131722D02*
X14236729Y-12150769D01*
X14522444Y-12103150D02*
X14522444Y-12236484D01*
X14474825Y-12026960D02*
X14427206Y-12169817D01*
X14427206Y-12169817D02*
X14551015Y-12169817D01*
X14779587Y-12236484D02*
X14779587Y-12036484D01*
X14865301Y-12236484D02*
X14865301Y-12131722D01*
X14865301Y-12131722D02*
X14855777Y-12112674D01*
X14855777Y-12112674D02*
X14836730Y-12103150D01*
X14836730Y-12103150D02*
X14808158Y-12103150D01*
X14808158Y-12103150D02*
X14789110Y-12112674D01*
X14789110Y-12112674D02*
X14779587Y-12122198D01*
X14989110Y-12236484D02*
X14970063Y-12226960D01*
X14970063Y-12226960D02*
X14960539Y-12217436D01*
X14960539Y-12217436D02*
X14951015Y-12198388D01*
X14951015Y-12198388D02*
X14951015Y-12141246D01*
X14951015Y-12141246D02*
X14960539Y-12122198D01*
X14960539Y-12122198D02*
X14970063Y-12112674D01*
X14970063Y-12112674D02*
X14989110Y-12103150D01*
X14989110Y-12103150D02*
X15017682Y-12103150D01*
X15017682Y-12103150D02*
X15036730Y-12112674D01*
X15036730Y-12112674D02*
X15046253Y-12122198D01*
X15046253Y-12122198D02*
X15055777Y-12141246D01*
X15055777Y-12141246D02*
X15055777Y-12198388D01*
X15055777Y-12198388D02*
X15046253Y-12217436D01*
X15046253Y-12217436D02*
X15036730Y-12226960D01*
X15036730Y-12226960D02*
X15017682Y-12236484D01*
X15017682Y-12236484D02*
X14989110Y-12236484D01*
X15170063Y-12236484D02*
X15151015Y-12226960D01*
X15151015Y-12226960D02*
X15141491Y-12207912D01*
X15141491Y-12207912D02*
X15141491Y-12036484D01*
X15322444Y-12226960D02*
X15303396Y-12236484D01*
X15303396Y-12236484D02*
X15265301Y-12236484D01*
X15265301Y-12236484D02*
X15246253Y-12226960D01*
X15246253Y-12226960D02*
X15236730Y-12207912D01*
X15236730Y-12207912D02*
X15236730Y-12131722D01*
X15236730Y-12131722D02*
X15246253Y-12112674D01*
X15246253Y-12112674D02*
X15265301Y-12103150D01*
X15265301Y-12103150D02*
X15303396Y-12103150D01*
X15303396Y-12103150D02*
X15322444Y-12112674D01*
X15322444Y-12112674D02*
X15331968Y-12131722D01*
X15331968Y-12131722D02*
X15331968Y-12150769D01*
X15331968Y-12150769D02*
X15236730Y-12169817D01*
X15408158Y-12226960D02*
X15427206Y-12236484D01*
X15427206Y-12236484D02*
X15465301Y-12236484D01*
X15465301Y-12236484D02*
X15484349Y-12226960D01*
X15484349Y-12226960D02*
X15493872Y-12207912D01*
X15493872Y-12207912D02*
X15493872Y-12198388D01*
X15493872Y-12198388D02*
X15484349Y-12179341D01*
X15484349Y-12179341D02*
X15465301Y-12169817D01*
X15465301Y-12169817D02*
X15436730Y-12169817D01*
X15436730Y-12169817D02*
X15417682Y-12160293D01*
X15417682Y-12160293D02*
X15408158Y-12141246D01*
X15408158Y-12141246D02*
X15408158Y-12131722D01*
X15408158Y-12131722D02*
X15417682Y-12112674D01*
X15417682Y-12112674D02*
X15436730Y-12103150D01*
X15436730Y-12103150D02*
X15465301Y-12103150D01*
X15465301Y-12103150D02*
X15484349Y-12112674D01*
X15560539Y-12312674D02*
X15570063Y-12303150D01*
X15570063Y-12303150D02*
X15589111Y-12274579D01*
X15589111Y-12274579D02*
X15598634Y-12255531D01*
X15598634Y-12255531D02*
X15608158Y-12226960D01*
X15608158Y-12226960D02*
X15617682Y-12179341D01*
X15617682Y-12179341D02*
X15617682Y-12141246D01*
X15617682Y-12141246D02*
X15608158Y-12093627D01*
X15608158Y-12093627D02*
X15598634Y-12065055D01*
X15598634Y-12065055D02*
X15589111Y-12046008D01*
X15589111Y-12046008D02*
X15570063Y-12017436D01*
X15570063Y-12017436D02*
X15560539Y-12007912D01*
D10*
X10595000Y-12409000D02*
G75*
G02*
X10506000Y-12409000I-44500J0D01*
G01*
X10506000Y-12409000D02*
G75*
G02*
X10595000Y-12409000I44500J0D01*
G01*
D11*
X10893872Y-12300484D02*
X10912920Y-12300484D01*
X10912920Y-12300484D02*
X10931967Y-12310008D01*
X10931967Y-12310008D02*
X10941491Y-12319531D01*
X10941491Y-12319531D02*
X10951015Y-12338579D01*
X10951015Y-12338579D02*
X10960539Y-12376674D01*
X10960539Y-12376674D02*
X10960539Y-12424293D01*
X10960539Y-12424293D02*
X10951015Y-12462388D01*
X10951015Y-12462388D02*
X10941491Y-12481436D01*
X10941491Y-12481436D02*
X10931967Y-12490960D01*
X10931967Y-12490960D02*
X10912920Y-12500484D01*
X10912920Y-12500484D02*
X10893872Y-12500484D01*
X10893872Y-12500484D02*
X10874824Y-12490960D01*
X10874824Y-12490960D02*
X10865301Y-12481436D01*
X10865301Y-12481436D02*
X10855777Y-12462388D01*
X10855777Y-12462388D02*
X10846253Y-12424293D01*
X10846253Y-12424293D02*
X10846253Y-12376674D01*
X10846253Y-12376674D02*
X10855777Y-12338579D01*
X10855777Y-12338579D02*
X10865301Y-12319531D01*
X10865301Y-12319531D02*
X10874824Y-12310008D01*
X10874824Y-12310008D02*
X10893872Y-12300484D01*
X11046253Y-12481436D02*
X11055777Y-12490960D01*
X11055777Y-12490960D02*
X11046253Y-12500484D01*
X11046253Y-12500484D02*
X11036729Y-12490960D01*
X11036729Y-12490960D02*
X11046253Y-12481436D01*
X11046253Y-12481436D02*
X11046253Y-12500484D01*
X11170063Y-12386198D02*
X11151015Y-12376674D01*
X11151015Y-12376674D02*
X11141491Y-12367150D01*
X11141491Y-12367150D02*
X11131967Y-12348103D01*
X11131967Y-12348103D02*
X11131967Y-12338579D01*
X11131967Y-12338579D02*
X11141491Y-12319531D01*
X11141491Y-12319531D02*
X11151015Y-12310008D01*
X11151015Y-12310008D02*
X11170063Y-12300484D01*
X11170063Y-12300484D02*
X11208158Y-12300484D01*
X11208158Y-12300484D02*
X11227205Y-12310008D01*
X11227205Y-12310008D02*
X11236729Y-12319531D01*
X11236729Y-12319531D02*
X11246253Y-12338579D01*
X11246253Y-12338579D02*
X11246253Y-12348103D01*
X11246253Y-12348103D02*
X11236729Y-12367150D01*
X11236729Y-12367150D02*
X11227205Y-12376674D01*
X11227205Y-12376674D02*
X11208158Y-12386198D01*
X11208158Y-12386198D02*
X11170063Y-12386198D01*
X11170063Y-12386198D02*
X11151015Y-12395722D01*
X11151015Y-12395722D02*
X11141491Y-12405246D01*
X11141491Y-12405246D02*
X11131967Y-12424293D01*
X11131967Y-12424293D02*
X11131967Y-12462388D01*
X11131967Y-12462388D02*
X11141491Y-12481436D01*
X11141491Y-12481436D02*
X11151015Y-12490960D01*
X11151015Y-12490960D02*
X11170063Y-12500484D01*
X11170063Y-12500484D02*
X11208158Y-12500484D01*
X11208158Y-12500484D02*
X11227205Y-12490960D01*
X11227205Y-12490960D02*
X11236729Y-12481436D01*
X11236729Y-12481436D02*
X11246253Y-12462388D01*
X11246253Y-12462388D02*
X11246253Y-12424293D01*
X11246253Y-12424293D02*
X11236729Y-12405246D01*
X11236729Y-12405246D02*
X11227205Y-12395722D01*
X11227205Y-12395722D02*
X11208158Y-12386198D01*
X11341491Y-12500484D02*
X11379586Y-12500484D01*
X11379586Y-12500484D02*
X11398634Y-12490960D01*
X11398634Y-12490960D02*
X11408158Y-12481436D01*
X11408158Y-12481436D02*
X11427205Y-12452865D01*
X11427205Y-12452865D02*
X11436729Y-12414769D01*
X11436729Y-12414769D02*
X11436729Y-12338579D01*
X11436729Y-12338579D02*
X11427205Y-12319531D01*
X11427205Y-12319531D02*
X11417682Y-12310008D01*
X11417682Y-12310008D02*
X11398634Y-12300484D01*
X11398634Y-12300484D02*
X11360539Y-12300484D01*
X11360539Y-12300484D02*
X11341491Y-12310008D01*
X11341491Y-12310008D02*
X11331967Y-12319531D01*
X11331967Y-12319531D02*
X11322443Y-12338579D01*
X11322443Y-12338579D02*
X11322443Y-12386198D01*
X11322443Y-12386198D02*
X11331967Y-12405246D01*
X11331967Y-12405246D02*
X11341491Y-12414769D01*
X11341491Y-12414769D02*
X11360539Y-12424293D01*
X11360539Y-12424293D02*
X11398634Y-12424293D01*
X11398634Y-12424293D02*
X11417682Y-12414769D01*
X11417682Y-12414769D02*
X11427205Y-12405246D01*
X11427205Y-12405246D02*
X11436729Y-12386198D01*
X11560539Y-12300484D02*
X11579586Y-12300484D01*
X11579586Y-12300484D02*
X11598634Y-12310008D01*
X11598634Y-12310008D02*
X11608158Y-12319531D01*
X11608158Y-12319531D02*
X11617682Y-12338579D01*
X11617682Y-12338579D02*
X11627205Y-12376674D01*
X11627205Y-12376674D02*
X11627205Y-12424293D01*
X11627205Y-12424293D02*
X11617682Y-12462388D01*
X11617682Y-12462388D02*
X11608158Y-12481436D01*
X11608158Y-12481436D02*
X11598634Y-12490960D01*
X11598634Y-12490960D02*
X11579586Y-12500484D01*
X11579586Y-12500484D02*
X11560539Y-12500484D01*
X11560539Y-12500484D02*
X11541491Y-12490960D01*
X11541491Y-12490960D02*
X11531967Y-12481436D01*
X11531967Y-12481436D02*
X11522443Y-12462388D01*
X11522443Y-12462388D02*
X11512920Y-12424293D01*
X11512920Y-12424293D02*
X11512920Y-12376674D01*
X11512920Y-12376674D02*
X11522443Y-12338579D01*
X11522443Y-12338579D02*
X11531967Y-12319531D01*
X11531967Y-12319531D02*
X11541491Y-12310008D01*
X11541491Y-12310008D02*
X11560539Y-12300484D01*
X11712920Y-12500484D02*
X11712920Y-12367150D01*
X11712920Y-12386198D02*
X11722443Y-12376674D01*
X11722443Y-12376674D02*
X11741491Y-12367150D01*
X11741491Y-12367150D02*
X11770063Y-12367150D01*
X11770063Y-12367150D02*
X11789110Y-12376674D01*
X11789110Y-12376674D02*
X11798634Y-12395722D01*
X11798634Y-12395722D02*
X11798634Y-12500484D01*
X11798634Y-12395722D02*
X11808158Y-12376674D01*
X11808158Y-12376674D02*
X11827205Y-12367150D01*
X11827205Y-12367150D02*
X11855777Y-12367150D01*
X11855777Y-12367150D02*
X11874824Y-12376674D01*
X11874824Y-12376674D02*
X11884348Y-12395722D01*
X11884348Y-12395722D02*
X11884348Y-12500484D01*
X11979586Y-12500484D02*
X11979586Y-12367150D01*
X11979586Y-12386198D02*
X11989110Y-12376674D01*
X11989110Y-12376674D02*
X12008158Y-12367150D01*
X12008158Y-12367150D02*
X12036729Y-12367150D01*
X12036729Y-12367150D02*
X12055777Y-12376674D01*
X12055777Y-12376674D02*
X12065301Y-12395722D01*
X12065301Y-12395722D02*
X12065301Y-12500484D01*
X12065301Y-12395722D02*
X12074824Y-12376674D01*
X12074824Y-12376674D02*
X12093872Y-12367150D01*
X12093872Y-12367150D02*
X12122443Y-12367150D01*
X12122443Y-12367150D02*
X12141491Y-12376674D01*
X12141491Y-12376674D02*
X12151015Y-12395722D01*
X12151015Y-12395722D02*
X12151015Y-12500484D01*
X12541491Y-12290960D02*
X12370063Y-12548103D01*
X12798634Y-12300484D02*
X12817682Y-12300484D01*
X12817682Y-12300484D02*
X12836729Y-12310008D01*
X12836729Y-12310008D02*
X12846253Y-12319531D01*
X12846253Y-12319531D02*
X12855777Y-12338579D01*
X12855777Y-12338579D02*
X12865301Y-12376674D01*
X12865301Y-12376674D02*
X12865301Y-12424293D01*
X12865301Y-12424293D02*
X12855777Y-12462388D01*
X12855777Y-12462388D02*
X12846253Y-12481436D01*
X12846253Y-12481436D02*
X12836729Y-12490960D01*
X12836729Y-12490960D02*
X12817682Y-12500484D01*
X12817682Y-12500484D02*
X12798634Y-12500484D01*
X12798634Y-12500484D02*
X12779586Y-12490960D01*
X12779586Y-12490960D02*
X12770063Y-12481436D01*
X12770063Y-12481436D02*
X12760539Y-12462388D01*
X12760539Y-12462388D02*
X12751015Y-12424293D01*
X12751015Y-12424293D02*
X12751015Y-12376674D01*
X12751015Y-12376674D02*
X12760539Y-12338579D01*
X12760539Y-12338579D02*
X12770063Y-12319531D01*
X12770063Y-12319531D02*
X12779586Y-12310008D01*
X12779586Y-12310008D02*
X12798634Y-12300484D01*
X12951015Y-12481436D02*
X12960539Y-12490960D01*
X12960539Y-12490960D02*
X12951015Y-12500484D01*
X12951015Y-12500484D02*
X12941491Y-12490960D01*
X12941491Y-12490960D02*
X12951015Y-12481436D01*
X12951015Y-12481436D02*
X12951015Y-12500484D01*
X13084348Y-12300484D02*
X13103396Y-12300484D01*
X13103396Y-12300484D02*
X13122444Y-12310008D01*
X13122444Y-12310008D02*
X13131967Y-12319531D01*
X13131967Y-12319531D02*
X13141491Y-12338579D01*
X13141491Y-12338579D02*
X13151015Y-12376674D01*
X13151015Y-12376674D02*
X13151015Y-12424293D01*
X13151015Y-12424293D02*
X13141491Y-12462388D01*
X13141491Y-12462388D02*
X13131967Y-12481436D01*
X13131967Y-12481436D02*
X13122444Y-12490960D01*
X13122444Y-12490960D02*
X13103396Y-12500484D01*
X13103396Y-12500484D02*
X13084348Y-12500484D01*
X13084348Y-12500484D02*
X13065301Y-12490960D01*
X13065301Y-12490960D02*
X13055777Y-12481436D01*
X13055777Y-12481436D02*
X13046253Y-12462388D01*
X13046253Y-12462388D02*
X13036729Y-12424293D01*
X13036729Y-12424293D02*
X13036729Y-12376674D01*
X13036729Y-12376674D02*
X13046253Y-12338579D01*
X13046253Y-12338579D02*
X13055777Y-12319531D01*
X13055777Y-12319531D02*
X13065301Y-12310008D01*
X13065301Y-12310008D02*
X13084348Y-12300484D01*
X13217682Y-12300484D02*
X13341491Y-12300484D01*
X13341491Y-12300484D02*
X13274825Y-12376674D01*
X13274825Y-12376674D02*
X13303396Y-12376674D01*
X13303396Y-12376674D02*
X13322444Y-12386198D01*
X13322444Y-12386198D02*
X13331967Y-12395722D01*
X13331967Y-12395722D02*
X13341491Y-12414769D01*
X13341491Y-12414769D02*
X13341491Y-12462388D01*
X13341491Y-12462388D02*
X13331967Y-12481436D01*
X13331967Y-12481436D02*
X13322444Y-12490960D01*
X13322444Y-12490960D02*
X13303396Y-12500484D01*
X13303396Y-12500484D02*
X13246253Y-12500484D01*
X13246253Y-12500484D02*
X13227206Y-12490960D01*
X13227206Y-12490960D02*
X13217682Y-12481436D01*
X13522444Y-12300484D02*
X13427206Y-12300484D01*
X13427206Y-12300484D02*
X13417682Y-12395722D01*
X13417682Y-12395722D02*
X13427206Y-12386198D01*
X13427206Y-12386198D02*
X13446253Y-12376674D01*
X13446253Y-12376674D02*
X13493872Y-12376674D01*
X13493872Y-12376674D02*
X13512920Y-12386198D01*
X13512920Y-12386198D02*
X13522444Y-12395722D01*
X13522444Y-12395722D02*
X13531967Y-12414769D01*
X13531967Y-12414769D02*
X13531967Y-12462388D01*
X13531967Y-12462388D02*
X13522444Y-12481436D01*
X13522444Y-12481436D02*
X13512920Y-12490960D01*
X13512920Y-12490960D02*
X13493872Y-12500484D01*
X13493872Y-12500484D02*
X13446253Y-12500484D01*
X13446253Y-12500484D02*
X13427206Y-12490960D01*
X13427206Y-12490960D02*
X13417682Y-12481436D01*
X13655777Y-12300484D02*
X13674825Y-12300484D01*
X13674825Y-12300484D02*
X13693872Y-12310008D01*
X13693872Y-12310008D02*
X13703396Y-12319531D01*
X13703396Y-12319531D02*
X13712920Y-12338579D01*
X13712920Y-12338579D02*
X13722444Y-12376674D01*
X13722444Y-12376674D02*
X13722444Y-12424293D01*
X13722444Y-12424293D02*
X13712920Y-12462388D01*
X13712920Y-12462388D02*
X13703396Y-12481436D01*
X13703396Y-12481436D02*
X13693872Y-12490960D01*
X13693872Y-12490960D02*
X13674825Y-12500484D01*
X13674825Y-12500484D02*
X13655777Y-12500484D01*
X13655777Y-12500484D02*
X13636729Y-12490960D01*
X13636729Y-12490960D02*
X13627206Y-12481436D01*
X13627206Y-12481436D02*
X13617682Y-12462388D01*
X13617682Y-12462388D02*
X13608158Y-12424293D01*
X13608158Y-12424293D02*
X13608158Y-12376674D01*
X13608158Y-12376674D02*
X13617682Y-12338579D01*
X13617682Y-12338579D02*
X13627206Y-12319531D01*
X13627206Y-12319531D02*
X13636729Y-12310008D01*
X13636729Y-12310008D02*
X13655777Y-12300484D01*
X13798634Y-12300484D02*
X13798634Y-12338579D01*
X13874825Y-12300484D02*
X13874825Y-12338579D01*
X14170063Y-12576674D02*
X14160539Y-12567150D01*
X14160539Y-12567150D02*
X14141491Y-12538579D01*
X14141491Y-12538579D02*
X14131968Y-12519531D01*
X14131968Y-12519531D02*
X14122444Y-12490960D01*
X14122444Y-12490960D02*
X14112920Y-12443341D01*
X14112920Y-12443341D02*
X14112920Y-12405246D01*
X14112920Y-12405246D02*
X14122444Y-12357627D01*
X14122444Y-12357627D02*
X14131968Y-12329055D01*
X14131968Y-12329055D02*
X14141491Y-12310008D01*
X14141491Y-12310008D02*
X14160539Y-12281436D01*
X14160539Y-12281436D02*
X14170063Y-12271912D01*
X14255777Y-12500484D02*
X14293872Y-12500484D01*
X14293872Y-12500484D02*
X14312920Y-12490960D01*
X14312920Y-12490960D02*
X14322444Y-12481436D01*
X14322444Y-12481436D02*
X14341491Y-12452865D01*
X14341491Y-12452865D02*
X14351015Y-12414769D01*
X14351015Y-12414769D02*
X14351015Y-12338579D01*
X14351015Y-12338579D02*
X14341491Y-12319531D01*
X14341491Y-12319531D02*
X14331968Y-12310008D01*
X14331968Y-12310008D02*
X14312920Y-12300484D01*
X14312920Y-12300484D02*
X14274825Y-12300484D01*
X14274825Y-12300484D02*
X14255777Y-12310008D01*
X14255777Y-12310008D02*
X14246253Y-12319531D01*
X14246253Y-12319531D02*
X14236729Y-12338579D01*
X14236729Y-12338579D02*
X14236729Y-12386198D01*
X14236729Y-12386198D02*
X14246253Y-12405246D01*
X14246253Y-12405246D02*
X14255777Y-12414769D01*
X14255777Y-12414769D02*
X14274825Y-12424293D01*
X14274825Y-12424293D02*
X14312920Y-12424293D01*
X14312920Y-12424293D02*
X14331968Y-12414769D01*
X14331968Y-12414769D02*
X14341491Y-12405246D01*
X14341491Y-12405246D02*
X14351015Y-12386198D01*
X14522444Y-12300484D02*
X14484348Y-12300484D01*
X14484348Y-12300484D02*
X14465301Y-12310008D01*
X14465301Y-12310008D02*
X14455777Y-12319531D01*
X14455777Y-12319531D02*
X14436729Y-12348103D01*
X14436729Y-12348103D02*
X14427206Y-12386198D01*
X14427206Y-12386198D02*
X14427206Y-12462388D01*
X14427206Y-12462388D02*
X14436729Y-12481436D01*
X14436729Y-12481436D02*
X14446253Y-12490960D01*
X14446253Y-12490960D02*
X14465301Y-12500484D01*
X14465301Y-12500484D02*
X14503396Y-12500484D01*
X14503396Y-12500484D02*
X14522444Y-12490960D01*
X14522444Y-12490960D02*
X14531968Y-12481436D01*
X14531968Y-12481436D02*
X14541491Y-12462388D01*
X14541491Y-12462388D02*
X14541491Y-12414769D01*
X14541491Y-12414769D02*
X14531968Y-12395722D01*
X14531968Y-12395722D02*
X14522444Y-12386198D01*
X14522444Y-12386198D02*
X14503396Y-12376674D01*
X14503396Y-12376674D02*
X14465301Y-12376674D01*
X14465301Y-12376674D02*
X14446253Y-12386198D01*
X14446253Y-12386198D02*
X14436729Y-12395722D01*
X14436729Y-12395722D02*
X14427206Y-12414769D01*
X14779587Y-12500484D02*
X14779587Y-12300484D01*
X14865301Y-12500484D02*
X14865301Y-12395722D01*
X14865301Y-12395722D02*
X14855777Y-12376674D01*
X14855777Y-12376674D02*
X14836730Y-12367150D01*
X14836730Y-12367150D02*
X14808158Y-12367150D01*
X14808158Y-12367150D02*
X14789110Y-12376674D01*
X14789110Y-12376674D02*
X14779587Y-12386198D01*
X14989110Y-12500484D02*
X14970063Y-12490960D01*
X14970063Y-12490960D02*
X14960539Y-12481436D01*
X14960539Y-12481436D02*
X14951015Y-12462388D01*
X14951015Y-12462388D02*
X14951015Y-12405246D01*
X14951015Y-12405246D02*
X14960539Y-12386198D01*
X14960539Y-12386198D02*
X14970063Y-12376674D01*
X14970063Y-12376674D02*
X14989110Y-12367150D01*
X14989110Y-12367150D02*
X15017682Y-12367150D01*
X15017682Y-12367150D02*
X15036730Y-12376674D01*
X15036730Y-12376674D02*
X15046253Y-12386198D01*
X15046253Y-12386198D02*
X15055777Y-12405246D01*
X15055777Y-12405246D02*
X15055777Y-12462388D01*
X15055777Y-12462388D02*
X15046253Y-12481436D01*
X15046253Y-12481436D02*
X15036730Y-12490960D01*
X15036730Y-12490960D02*
X15017682Y-12500484D01*
X15017682Y-12500484D02*
X14989110Y-12500484D01*
X15170063Y-12500484D02*
X15151015Y-12490960D01*
X15151015Y-12490960D02*
X15141491Y-12471912D01*
X15141491Y-12471912D02*
X15141491Y-12300484D01*
X15322444Y-12490960D02*
X15303396Y-12500484D01*
X15303396Y-12500484D02*
X15265301Y-12500484D01*
X15265301Y-12500484D02*
X15246253Y-12490960D01*
X15246253Y-12490960D02*
X15236730Y-12471912D01*
X15236730Y-12471912D02*
X15236730Y-12395722D01*
X15236730Y-12395722D02*
X15246253Y-12376674D01*
X15246253Y-12376674D02*
X15265301Y-12367150D01*
X15265301Y-12367150D02*
X15303396Y-12367150D01*
X15303396Y-12367150D02*
X15322444Y-12376674D01*
X15322444Y-12376674D02*
X15331968Y-12395722D01*
X15331968Y-12395722D02*
X15331968Y-12414769D01*
X15331968Y-12414769D02*
X15236730Y-12433817D01*
X15408158Y-12490960D02*
X15427206Y-12500484D01*
X15427206Y-12500484D02*
X15465301Y-12500484D01*
X15465301Y-12500484D02*
X15484349Y-12490960D01*
X15484349Y-12490960D02*
X15493872Y-12471912D01*
X15493872Y-12471912D02*
X15493872Y-12462388D01*
X15493872Y-12462388D02*
X15484349Y-12443341D01*
X15484349Y-12443341D02*
X15465301Y-12433817D01*
X15465301Y-12433817D02*
X15436730Y-12433817D01*
X15436730Y-12433817D02*
X15417682Y-12424293D01*
X15417682Y-12424293D02*
X15408158Y-12405246D01*
X15408158Y-12405246D02*
X15408158Y-12395722D01*
X15408158Y-12395722D02*
X15417682Y-12376674D01*
X15417682Y-12376674D02*
X15436730Y-12367150D01*
X15436730Y-12367150D02*
X15465301Y-12367150D01*
X15465301Y-12367150D02*
X15484349Y-12376674D01*
X15560539Y-12576674D02*
X15570063Y-12567150D01*
X15570063Y-12567150D02*
X15589111Y-12538579D01*
X15589111Y-12538579D02*
X15598634Y-12519531D01*
X15598634Y-12519531D02*
X15608158Y-12490960D01*
X15608158Y-12490960D02*
X15617682Y-12443341D01*
X15617682Y-12443341D02*
X15617682Y-12405246D01*
X15617682Y-12405246D02*
X15608158Y-12357627D01*
X15608158Y-12357627D02*
X15598634Y-12329055D01*
X15598634Y-12329055D02*
X15589111Y-12310008D01*
X15589111Y-12310008D02*
X15570063Y-12281436D01*
X15570063Y-12281436D02*
X15560539Y-12271912D01*
D10*
X10545000Y-12623000D02*
X10545000Y-12723000D01*
X10495000Y-12673000D02*
X10595000Y-12673000D01*
D11*
X10960539Y-12764484D02*
X10846253Y-12764484D01*
X10903396Y-12764484D02*
X10903396Y-12564484D01*
X10903396Y-12564484D02*
X10884348Y-12593055D01*
X10884348Y-12593055D02*
X10865301Y-12612103D01*
X10865301Y-12612103D02*
X10846253Y-12621627D01*
X11046253Y-12745436D02*
X11055777Y-12754960D01*
X11055777Y-12754960D02*
X11046253Y-12764484D01*
X11046253Y-12764484D02*
X11036729Y-12754960D01*
X11036729Y-12754960D02*
X11046253Y-12745436D01*
X11046253Y-12745436D02*
X11046253Y-12764484D01*
X11179586Y-12564484D02*
X11198634Y-12564484D01*
X11198634Y-12564484D02*
X11217682Y-12574008D01*
X11217682Y-12574008D02*
X11227205Y-12583531D01*
X11227205Y-12583531D02*
X11236729Y-12602579D01*
X11236729Y-12602579D02*
X11246253Y-12640674D01*
X11246253Y-12640674D02*
X11246253Y-12688293D01*
X11246253Y-12688293D02*
X11236729Y-12726388D01*
X11236729Y-12726388D02*
X11227205Y-12745436D01*
X11227205Y-12745436D02*
X11217682Y-12754960D01*
X11217682Y-12754960D02*
X11198634Y-12764484D01*
X11198634Y-12764484D02*
X11179586Y-12764484D01*
X11179586Y-12764484D02*
X11160539Y-12754960D01*
X11160539Y-12754960D02*
X11151015Y-12745436D01*
X11151015Y-12745436D02*
X11141491Y-12726388D01*
X11141491Y-12726388D02*
X11131967Y-12688293D01*
X11131967Y-12688293D02*
X11131967Y-12640674D01*
X11131967Y-12640674D02*
X11141491Y-12602579D01*
X11141491Y-12602579D02*
X11151015Y-12583531D01*
X11151015Y-12583531D02*
X11160539Y-12574008D01*
X11160539Y-12574008D02*
X11179586Y-12564484D01*
X11370062Y-12564484D02*
X11389110Y-12564484D01*
X11389110Y-12564484D02*
X11408158Y-12574008D01*
X11408158Y-12574008D02*
X11417682Y-12583531D01*
X11417682Y-12583531D02*
X11427205Y-12602579D01*
X11427205Y-12602579D02*
X11436729Y-12640674D01*
X11436729Y-12640674D02*
X11436729Y-12688293D01*
X11436729Y-12688293D02*
X11427205Y-12726388D01*
X11427205Y-12726388D02*
X11417682Y-12745436D01*
X11417682Y-12745436D02*
X11408158Y-12754960D01*
X11408158Y-12754960D02*
X11389110Y-12764484D01*
X11389110Y-12764484D02*
X11370062Y-12764484D01*
X11370062Y-12764484D02*
X11351015Y-12754960D01*
X11351015Y-12754960D02*
X11341491Y-12745436D01*
X11341491Y-12745436D02*
X11331967Y-12726388D01*
X11331967Y-12726388D02*
X11322443Y-12688293D01*
X11322443Y-12688293D02*
X11322443Y-12640674D01*
X11322443Y-12640674D02*
X11331967Y-12602579D01*
X11331967Y-12602579D02*
X11341491Y-12583531D01*
X11341491Y-12583531D02*
X11351015Y-12574008D01*
X11351015Y-12574008D02*
X11370062Y-12564484D01*
X11560539Y-12564484D02*
X11579586Y-12564484D01*
X11579586Y-12564484D02*
X11598634Y-12574008D01*
X11598634Y-12574008D02*
X11608158Y-12583531D01*
X11608158Y-12583531D02*
X11617682Y-12602579D01*
X11617682Y-12602579D02*
X11627205Y-12640674D01*
X11627205Y-12640674D02*
X11627205Y-12688293D01*
X11627205Y-12688293D02*
X11617682Y-12726388D01*
X11617682Y-12726388D02*
X11608158Y-12745436D01*
X11608158Y-12745436D02*
X11598634Y-12754960D01*
X11598634Y-12754960D02*
X11579586Y-12764484D01*
X11579586Y-12764484D02*
X11560539Y-12764484D01*
X11560539Y-12764484D02*
X11541491Y-12754960D01*
X11541491Y-12754960D02*
X11531967Y-12745436D01*
X11531967Y-12745436D02*
X11522443Y-12726388D01*
X11522443Y-12726388D02*
X11512920Y-12688293D01*
X11512920Y-12688293D02*
X11512920Y-12640674D01*
X11512920Y-12640674D02*
X11522443Y-12602579D01*
X11522443Y-12602579D02*
X11531967Y-12583531D01*
X11531967Y-12583531D02*
X11541491Y-12574008D01*
X11541491Y-12574008D02*
X11560539Y-12564484D01*
X11712920Y-12764484D02*
X11712920Y-12631150D01*
X11712920Y-12650198D02*
X11722443Y-12640674D01*
X11722443Y-12640674D02*
X11741491Y-12631150D01*
X11741491Y-12631150D02*
X11770063Y-12631150D01*
X11770063Y-12631150D02*
X11789110Y-12640674D01*
X11789110Y-12640674D02*
X11798634Y-12659722D01*
X11798634Y-12659722D02*
X11798634Y-12764484D01*
X11798634Y-12659722D02*
X11808158Y-12640674D01*
X11808158Y-12640674D02*
X11827205Y-12631150D01*
X11827205Y-12631150D02*
X11855777Y-12631150D01*
X11855777Y-12631150D02*
X11874824Y-12640674D01*
X11874824Y-12640674D02*
X11884348Y-12659722D01*
X11884348Y-12659722D02*
X11884348Y-12764484D01*
X11979586Y-12764484D02*
X11979586Y-12631150D01*
X11979586Y-12650198D02*
X11989110Y-12640674D01*
X11989110Y-12640674D02*
X12008158Y-12631150D01*
X12008158Y-12631150D02*
X12036729Y-12631150D01*
X12036729Y-12631150D02*
X12055777Y-12640674D01*
X12055777Y-12640674D02*
X12065301Y-12659722D01*
X12065301Y-12659722D02*
X12065301Y-12764484D01*
X12065301Y-12659722D02*
X12074824Y-12640674D01*
X12074824Y-12640674D02*
X12093872Y-12631150D01*
X12093872Y-12631150D02*
X12122443Y-12631150D01*
X12122443Y-12631150D02*
X12141491Y-12640674D01*
X12141491Y-12640674D02*
X12151015Y-12659722D01*
X12151015Y-12659722D02*
X12151015Y-12764484D01*
X12541491Y-12554960D02*
X12370063Y-12812103D01*
X12798634Y-12564484D02*
X12817682Y-12564484D01*
X12817682Y-12564484D02*
X12836729Y-12574008D01*
X12836729Y-12574008D02*
X12846253Y-12583531D01*
X12846253Y-12583531D02*
X12855777Y-12602579D01*
X12855777Y-12602579D02*
X12865301Y-12640674D01*
X12865301Y-12640674D02*
X12865301Y-12688293D01*
X12865301Y-12688293D02*
X12855777Y-12726388D01*
X12855777Y-12726388D02*
X12846253Y-12745436D01*
X12846253Y-12745436D02*
X12836729Y-12754960D01*
X12836729Y-12754960D02*
X12817682Y-12764484D01*
X12817682Y-12764484D02*
X12798634Y-12764484D01*
X12798634Y-12764484D02*
X12779586Y-12754960D01*
X12779586Y-12754960D02*
X12770063Y-12745436D01*
X12770063Y-12745436D02*
X12760539Y-12726388D01*
X12760539Y-12726388D02*
X12751015Y-12688293D01*
X12751015Y-12688293D02*
X12751015Y-12640674D01*
X12751015Y-12640674D02*
X12760539Y-12602579D01*
X12760539Y-12602579D02*
X12770063Y-12583531D01*
X12770063Y-12583531D02*
X12779586Y-12574008D01*
X12779586Y-12574008D02*
X12798634Y-12564484D01*
X12951015Y-12745436D02*
X12960539Y-12754960D01*
X12960539Y-12754960D02*
X12951015Y-12764484D01*
X12951015Y-12764484D02*
X12941491Y-12754960D01*
X12941491Y-12754960D02*
X12951015Y-12745436D01*
X12951015Y-12745436D02*
X12951015Y-12764484D01*
X13084348Y-12564484D02*
X13103396Y-12564484D01*
X13103396Y-12564484D02*
X13122444Y-12574008D01*
X13122444Y-12574008D02*
X13131967Y-12583531D01*
X13131967Y-12583531D02*
X13141491Y-12602579D01*
X13141491Y-12602579D02*
X13151015Y-12640674D01*
X13151015Y-12640674D02*
X13151015Y-12688293D01*
X13151015Y-12688293D02*
X13141491Y-12726388D01*
X13141491Y-12726388D02*
X13131967Y-12745436D01*
X13131967Y-12745436D02*
X13122444Y-12754960D01*
X13122444Y-12754960D02*
X13103396Y-12764484D01*
X13103396Y-12764484D02*
X13084348Y-12764484D01*
X13084348Y-12764484D02*
X13065301Y-12754960D01*
X13065301Y-12754960D02*
X13055777Y-12745436D01*
X13055777Y-12745436D02*
X13046253Y-12726388D01*
X13046253Y-12726388D02*
X13036729Y-12688293D01*
X13036729Y-12688293D02*
X13036729Y-12640674D01*
X13036729Y-12640674D02*
X13046253Y-12602579D01*
X13046253Y-12602579D02*
X13055777Y-12583531D01*
X13055777Y-12583531D02*
X13065301Y-12574008D01*
X13065301Y-12574008D02*
X13084348Y-12564484D01*
X13217682Y-12564484D02*
X13341491Y-12564484D01*
X13341491Y-12564484D02*
X13274825Y-12640674D01*
X13274825Y-12640674D02*
X13303396Y-12640674D01*
X13303396Y-12640674D02*
X13322444Y-12650198D01*
X13322444Y-12650198D02*
X13331967Y-12659722D01*
X13331967Y-12659722D02*
X13341491Y-12678769D01*
X13341491Y-12678769D02*
X13341491Y-12726388D01*
X13341491Y-12726388D02*
X13331967Y-12745436D01*
X13331967Y-12745436D02*
X13322444Y-12754960D01*
X13322444Y-12754960D02*
X13303396Y-12764484D01*
X13303396Y-12764484D02*
X13246253Y-12764484D01*
X13246253Y-12764484D02*
X13227206Y-12754960D01*
X13227206Y-12754960D02*
X13217682Y-12745436D01*
X13436729Y-12764484D02*
X13474825Y-12764484D01*
X13474825Y-12764484D02*
X13493872Y-12754960D01*
X13493872Y-12754960D02*
X13503396Y-12745436D01*
X13503396Y-12745436D02*
X13522444Y-12716865D01*
X13522444Y-12716865D02*
X13531967Y-12678769D01*
X13531967Y-12678769D02*
X13531967Y-12602579D01*
X13531967Y-12602579D02*
X13522444Y-12583531D01*
X13522444Y-12583531D02*
X13512920Y-12574008D01*
X13512920Y-12574008D02*
X13493872Y-12564484D01*
X13493872Y-12564484D02*
X13455777Y-12564484D01*
X13455777Y-12564484D02*
X13436729Y-12574008D01*
X13436729Y-12574008D02*
X13427206Y-12583531D01*
X13427206Y-12583531D02*
X13417682Y-12602579D01*
X13417682Y-12602579D02*
X13417682Y-12650198D01*
X13417682Y-12650198D02*
X13427206Y-12669246D01*
X13427206Y-12669246D02*
X13436729Y-12678769D01*
X13436729Y-12678769D02*
X13455777Y-12688293D01*
X13455777Y-12688293D02*
X13493872Y-12688293D01*
X13493872Y-12688293D02*
X13512920Y-12678769D01*
X13512920Y-12678769D02*
X13522444Y-12669246D01*
X13522444Y-12669246D02*
X13531967Y-12650198D01*
X13703396Y-12631150D02*
X13703396Y-12764484D01*
X13655777Y-12554960D02*
X13608158Y-12697817D01*
X13608158Y-12697817D02*
X13731967Y-12697817D01*
X13798634Y-12564484D02*
X13798634Y-12602579D01*
X13874825Y-12564484D02*
X13874825Y-12602579D01*
X14170063Y-12840674D02*
X14160539Y-12831150D01*
X14160539Y-12831150D02*
X14141491Y-12802579D01*
X14141491Y-12802579D02*
X14131968Y-12783531D01*
X14131968Y-12783531D02*
X14122444Y-12754960D01*
X14122444Y-12754960D02*
X14112920Y-12707341D01*
X14112920Y-12707341D02*
X14112920Y-12669246D01*
X14112920Y-12669246D02*
X14122444Y-12621627D01*
X14122444Y-12621627D02*
X14131968Y-12593055D01*
X14131968Y-12593055D02*
X14141491Y-12574008D01*
X14141491Y-12574008D02*
X14160539Y-12545436D01*
X14160539Y-12545436D02*
X14170063Y-12535912D01*
X14331968Y-12631150D02*
X14331968Y-12764484D01*
X14284348Y-12554960D02*
X14236729Y-12697817D01*
X14236729Y-12697817D02*
X14360539Y-12697817D01*
X14474825Y-12564484D02*
X14493872Y-12564484D01*
X14493872Y-12564484D02*
X14512920Y-12574008D01*
X14512920Y-12574008D02*
X14522444Y-12583531D01*
X14522444Y-12583531D02*
X14531968Y-12602579D01*
X14531968Y-12602579D02*
X14541491Y-12640674D01*
X14541491Y-12640674D02*
X14541491Y-12688293D01*
X14541491Y-12688293D02*
X14531968Y-12726388D01*
X14531968Y-12726388D02*
X14522444Y-12745436D01*
X14522444Y-12745436D02*
X14512920Y-12754960D01*
X14512920Y-12754960D02*
X14493872Y-12764484D01*
X14493872Y-12764484D02*
X14474825Y-12764484D01*
X14474825Y-12764484D02*
X14455777Y-12754960D01*
X14455777Y-12754960D02*
X14446253Y-12745436D01*
X14446253Y-12745436D02*
X14436729Y-12726388D01*
X14436729Y-12726388D02*
X14427206Y-12688293D01*
X14427206Y-12688293D02*
X14427206Y-12640674D01*
X14427206Y-12640674D02*
X14436729Y-12602579D01*
X14436729Y-12602579D02*
X14446253Y-12583531D01*
X14446253Y-12583531D02*
X14455777Y-12574008D01*
X14455777Y-12574008D02*
X14474825Y-12564484D01*
X14779587Y-12764484D02*
X14779587Y-12564484D01*
X14865301Y-12764484D02*
X14865301Y-12659722D01*
X14865301Y-12659722D02*
X14855777Y-12640674D01*
X14855777Y-12640674D02*
X14836730Y-12631150D01*
X14836730Y-12631150D02*
X14808158Y-12631150D01*
X14808158Y-12631150D02*
X14789110Y-12640674D01*
X14789110Y-12640674D02*
X14779587Y-12650198D01*
X14989110Y-12764484D02*
X14970063Y-12754960D01*
X14970063Y-12754960D02*
X14960539Y-12745436D01*
X14960539Y-12745436D02*
X14951015Y-12726388D01*
X14951015Y-12726388D02*
X14951015Y-12669246D01*
X14951015Y-12669246D02*
X14960539Y-12650198D01*
X14960539Y-12650198D02*
X14970063Y-12640674D01*
X14970063Y-12640674D02*
X14989110Y-12631150D01*
X14989110Y-12631150D02*
X15017682Y-12631150D01*
X15017682Y-12631150D02*
X15036730Y-12640674D01*
X15036730Y-12640674D02*
X15046253Y-12650198D01*
X15046253Y-12650198D02*
X15055777Y-12669246D01*
X15055777Y-12669246D02*
X15055777Y-12726388D01*
X15055777Y-12726388D02*
X15046253Y-12745436D01*
X15046253Y-12745436D02*
X15036730Y-12754960D01*
X15036730Y-12754960D02*
X15017682Y-12764484D01*
X15017682Y-12764484D02*
X14989110Y-12764484D01*
X15170063Y-12764484D02*
X15151015Y-12754960D01*
X15151015Y-12754960D02*
X15141491Y-12735912D01*
X15141491Y-12735912D02*
X15141491Y-12564484D01*
X15322444Y-12754960D02*
X15303396Y-12764484D01*
X15303396Y-12764484D02*
X15265301Y-12764484D01*
X15265301Y-12764484D02*
X15246253Y-12754960D01*
X15246253Y-12754960D02*
X15236730Y-12735912D01*
X15236730Y-12735912D02*
X15236730Y-12659722D01*
X15236730Y-12659722D02*
X15246253Y-12640674D01*
X15246253Y-12640674D02*
X15265301Y-12631150D01*
X15265301Y-12631150D02*
X15303396Y-12631150D01*
X15303396Y-12631150D02*
X15322444Y-12640674D01*
X15322444Y-12640674D02*
X15331968Y-12659722D01*
X15331968Y-12659722D02*
X15331968Y-12678769D01*
X15331968Y-12678769D02*
X15236730Y-12697817D01*
X15408158Y-12754960D02*
X15427206Y-12764484D01*
X15427206Y-12764484D02*
X15465301Y-12764484D01*
X15465301Y-12764484D02*
X15484349Y-12754960D01*
X15484349Y-12754960D02*
X15493872Y-12735912D01*
X15493872Y-12735912D02*
X15493872Y-12726388D01*
X15493872Y-12726388D02*
X15484349Y-12707341D01*
X15484349Y-12707341D02*
X15465301Y-12697817D01*
X15465301Y-12697817D02*
X15436730Y-12697817D01*
X15436730Y-12697817D02*
X15417682Y-12688293D01*
X15417682Y-12688293D02*
X15408158Y-12669246D01*
X15408158Y-12669246D02*
X15408158Y-12659722D01*
X15408158Y-12659722D02*
X15417682Y-12640674D01*
X15417682Y-12640674D02*
X15436730Y-12631150D01*
X15436730Y-12631150D02*
X15465301Y-12631150D01*
X15465301Y-12631150D02*
X15484349Y-12640674D01*
X15560539Y-12840674D02*
X15570063Y-12831150D01*
X15570063Y-12831150D02*
X15589111Y-12802579D01*
X15589111Y-12802579D02*
X15598634Y-12783531D01*
X15598634Y-12783531D02*
X15608158Y-12754960D01*
X15608158Y-12754960D02*
X15617682Y-12707341D01*
X15617682Y-12707341D02*
X15617682Y-12669246D01*
X15617682Y-12669246D02*
X15608158Y-12621627D01*
X15608158Y-12621627D02*
X15598634Y-12593055D01*
X15598634Y-12593055D02*
X15589111Y-12574008D01*
X15589111Y-12574008D02*
X15570063Y-12545436D01*
X15570063Y-12545436D02*
X15560539Y-12535912D01*
X10565711Y-13007711D02*
X10565711Y-12866289D01*
X10424289Y-12866289D01*
X10424289Y-13007711D01*
X10565711Y-13007711D01*
X10846253Y-12847531D02*
X10855777Y-12838008D01*
X10855777Y-12838008D02*
X10874824Y-12828484D01*
X10874824Y-12828484D02*
X10922444Y-12828484D01*
X10922444Y-12828484D02*
X10941491Y-12838008D01*
X10941491Y-12838008D02*
X10951015Y-12847531D01*
X10951015Y-12847531D02*
X10960539Y-12866579D01*
X10960539Y-12866579D02*
X10960539Y-12885627D01*
X10960539Y-12885627D02*
X10951015Y-12914198D01*
X10951015Y-12914198D02*
X10836729Y-13028484D01*
X10836729Y-13028484D02*
X10960539Y-13028484D01*
X11046253Y-13009436D02*
X11055777Y-13018960D01*
X11055777Y-13018960D02*
X11046253Y-13028484D01*
X11046253Y-13028484D02*
X11036729Y-13018960D01*
X11036729Y-13018960D02*
X11046253Y-13009436D01*
X11046253Y-13009436D02*
X11046253Y-13028484D01*
X11179586Y-12828484D02*
X11198634Y-12828484D01*
X11198634Y-12828484D02*
X11217682Y-12838008D01*
X11217682Y-12838008D02*
X11227205Y-12847531D01*
X11227205Y-12847531D02*
X11236729Y-12866579D01*
X11236729Y-12866579D02*
X11246253Y-12904674D01*
X11246253Y-12904674D02*
X11246253Y-12952293D01*
X11246253Y-12952293D02*
X11236729Y-12990388D01*
X11236729Y-12990388D02*
X11227205Y-13009436D01*
X11227205Y-13009436D02*
X11217682Y-13018960D01*
X11217682Y-13018960D02*
X11198634Y-13028484D01*
X11198634Y-13028484D02*
X11179586Y-13028484D01*
X11179586Y-13028484D02*
X11160539Y-13018960D01*
X11160539Y-13018960D02*
X11151015Y-13009436D01*
X11151015Y-13009436D02*
X11141491Y-12990388D01*
X11141491Y-12990388D02*
X11131967Y-12952293D01*
X11131967Y-12952293D02*
X11131967Y-12904674D01*
X11131967Y-12904674D02*
X11141491Y-12866579D01*
X11141491Y-12866579D02*
X11151015Y-12847531D01*
X11151015Y-12847531D02*
X11160539Y-12838008D01*
X11160539Y-12838008D02*
X11179586Y-12828484D01*
X11370062Y-12828484D02*
X11389110Y-12828484D01*
X11389110Y-12828484D02*
X11408158Y-12838008D01*
X11408158Y-12838008D02*
X11417682Y-12847531D01*
X11417682Y-12847531D02*
X11427205Y-12866579D01*
X11427205Y-12866579D02*
X11436729Y-12904674D01*
X11436729Y-12904674D02*
X11436729Y-12952293D01*
X11436729Y-12952293D02*
X11427205Y-12990388D01*
X11427205Y-12990388D02*
X11417682Y-13009436D01*
X11417682Y-13009436D02*
X11408158Y-13018960D01*
X11408158Y-13018960D02*
X11389110Y-13028484D01*
X11389110Y-13028484D02*
X11370062Y-13028484D01*
X11370062Y-13028484D02*
X11351015Y-13018960D01*
X11351015Y-13018960D02*
X11341491Y-13009436D01*
X11341491Y-13009436D02*
X11331967Y-12990388D01*
X11331967Y-12990388D02*
X11322443Y-12952293D01*
X11322443Y-12952293D02*
X11322443Y-12904674D01*
X11322443Y-12904674D02*
X11331967Y-12866579D01*
X11331967Y-12866579D02*
X11341491Y-12847531D01*
X11341491Y-12847531D02*
X11351015Y-12838008D01*
X11351015Y-12838008D02*
X11370062Y-12828484D01*
X11560539Y-12828484D02*
X11579586Y-12828484D01*
X11579586Y-12828484D02*
X11598634Y-12838008D01*
X11598634Y-12838008D02*
X11608158Y-12847531D01*
X11608158Y-12847531D02*
X11617682Y-12866579D01*
X11617682Y-12866579D02*
X11627205Y-12904674D01*
X11627205Y-12904674D02*
X11627205Y-12952293D01*
X11627205Y-12952293D02*
X11617682Y-12990388D01*
X11617682Y-12990388D02*
X11608158Y-13009436D01*
X11608158Y-13009436D02*
X11598634Y-13018960D01*
X11598634Y-13018960D02*
X11579586Y-13028484D01*
X11579586Y-13028484D02*
X11560539Y-13028484D01*
X11560539Y-13028484D02*
X11541491Y-13018960D01*
X11541491Y-13018960D02*
X11531967Y-13009436D01*
X11531967Y-13009436D02*
X11522443Y-12990388D01*
X11522443Y-12990388D02*
X11512920Y-12952293D01*
X11512920Y-12952293D02*
X11512920Y-12904674D01*
X11512920Y-12904674D02*
X11522443Y-12866579D01*
X11522443Y-12866579D02*
X11531967Y-12847531D01*
X11531967Y-12847531D02*
X11541491Y-12838008D01*
X11541491Y-12838008D02*
X11560539Y-12828484D01*
X11712920Y-13028484D02*
X11712920Y-12895150D01*
X11712920Y-12914198D02*
X11722443Y-12904674D01*
X11722443Y-12904674D02*
X11741491Y-12895150D01*
X11741491Y-12895150D02*
X11770063Y-12895150D01*
X11770063Y-12895150D02*
X11789110Y-12904674D01*
X11789110Y-12904674D02*
X11798634Y-12923722D01*
X11798634Y-12923722D02*
X11798634Y-13028484D01*
X11798634Y-12923722D02*
X11808158Y-12904674D01*
X11808158Y-12904674D02*
X11827205Y-12895150D01*
X11827205Y-12895150D02*
X11855777Y-12895150D01*
X11855777Y-12895150D02*
X11874824Y-12904674D01*
X11874824Y-12904674D02*
X11884348Y-12923722D01*
X11884348Y-12923722D02*
X11884348Y-13028484D01*
X11979586Y-13028484D02*
X11979586Y-12895150D01*
X11979586Y-12914198D02*
X11989110Y-12904674D01*
X11989110Y-12904674D02*
X12008158Y-12895150D01*
X12008158Y-12895150D02*
X12036729Y-12895150D01*
X12036729Y-12895150D02*
X12055777Y-12904674D01*
X12055777Y-12904674D02*
X12065301Y-12923722D01*
X12065301Y-12923722D02*
X12065301Y-13028484D01*
X12065301Y-12923722D02*
X12074824Y-12904674D01*
X12074824Y-12904674D02*
X12093872Y-12895150D01*
X12093872Y-12895150D02*
X12122443Y-12895150D01*
X12122443Y-12895150D02*
X12141491Y-12904674D01*
X12141491Y-12904674D02*
X12151015Y-12923722D01*
X12151015Y-12923722D02*
X12151015Y-13028484D01*
X12541491Y-12818960D02*
X12370063Y-13076103D01*
X12798634Y-12828484D02*
X12817682Y-12828484D01*
X12817682Y-12828484D02*
X12836729Y-12838008D01*
X12836729Y-12838008D02*
X12846253Y-12847531D01*
X12846253Y-12847531D02*
X12855777Y-12866579D01*
X12855777Y-12866579D02*
X12865301Y-12904674D01*
X12865301Y-12904674D02*
X12865301Y-12952293D01*
X12865301Y-12952293D02*
X12855777Y-12990388D01*
X12855777Y-12990388D02*
X12846253Y-13009436D01*
X12846253Y-13009436D02*
X12836729Y-13018960D01*
X12836729Y-13018960D02*
X12817682Y-13028484D01*
X12817682Y-13028484D02*
X12798634Y-13028484D01*
X12798634Y-13028484D02*
X12779586Y-13018960D01*
X12779586Y-13018960D02*
X12770063Y-13009436D01*
X12770063Y-13009436D02*
X12760539Y-12990388D01*
X12760539Y-12990388D02*
X12751015Y-12952293D01*
X12751015Y-12952293D02*
X12751015Y-12904674D01*
X12751015Y-12904674D02*
X12760539Y-12866579D01*
X12760539Y-12866579D02*
X12770063Y-12847531D01*
X12770063Y-12847531D02*
X12779586Y-12838008D01*
X12779586Y-12838008D02*
X12798634Y-12828484D01*
X12951015Y-13009436D02*
X12960539Y-13018960D01*
X12960539Y-13018960D02*
X12951015Y-13028484D01*
X12951015Y-13028484D02*
X12941491Y-13018960D01*
X12941491Y-13018960D02*
X12951015Y-13009436D01*
X12951015Y-13009436D02*
X12951015Y-13028484D01*
X13084348Y-12828484D02*
X13103396Y-12828484D01*
X13103396Y-12828484D02*
X13122444Y-12838008D01*
X13122444Y-12838008D02*
X13131967Y-12847531D01*
X13131967Y-12847531D02*
X13141491Y-12866579D01*
X13141491Y-12866579D02*
X13151015Y-12904674D01*
X13151015Y-12904674D02*
X13151015Y-12952293D01*
X13151015Y-12952293D02*
X13141491Y-12990388D01*
X13141491Y-12990388D02*
X13131967Y-13009436D01*
X13131967Y-13009436D02*
X13122444Y-13018960D01*
X13122444Y-13018960D02*
X13103396Y-13028484D01*
X13103396Y-13028484D02*
X13084348Y-13028484D01*
X13084348Y-13028484D02*
X13065301Y-13018960D01*
X13065301Y-13018960D02*
X13055777Y-13009436D01*
X13055777Y-13009436D02*
X13046253Y-12990388D01*
X13046253Y-12990388D02*
X13036729Y-12952293D01*
X13036729Y-12952293D02*
X13036729Y-12904674D01*
X13036729Y-12904674D02*
X13046253Y-12866579D01*
X13046253Y-12866579D02*
X13055777Y-12847531D01*
X13055777Y-12847531D02*
X13065301Y-12838008D01*
X13065301Y-12838008D02*
X13084348Y-12828484D01*
X13217682Y-12828484D02*
X13351015Y-12828484D01*
X13351015Y-12828484D02*
X13265301Y-13028484D01*
X13455777Y-12914198D02*
X13436729Y-12904674D01*
X13436729Y-12904674D02*
X13427206Y-12895150D01*
X13427206Y-12895150D02*
X13417682Y-12876103D01*
X13417682Y-12876103D02*
X13417682Y-12866579D01*
X13417682Y-12866579D02*
X13427206Y-12847531D01*
X13427206Y-12847531D02*
X13436729Y-12838008D01*
X13436729Y-12838008D02*
X13455777Y-12828484D01*
X13455777Y-12828484D02*
X13493872Y-12828484D01*
X13493872Y-12828484D02*
X13512920Y-12838008D01*
X13512920Y-12838008D02*
X13522444Y-12847531D01*
X13522444Y-12847531D02*
X13531967Y-12866579D01*
X13531967Y-12866579D02*
X13531967Y-12876103D01*
X13531967Y-12876103D02*
X13522444Y-12895150D01*
X13522444Y-12895150D02*
X13512920Y-12904674D01*
X13512920Y-12904674D02*
X13493872Y-12914198D01*
X13493872Y-12914198D02*
X13455777Y-12914198D01*
X13455777Y-12914198D02*
X13436729Y-12923722D01*
X13436729Y-12923722D02*
X13427206Y-12933246D01*
X13427206Y-12933246D02*
X13417682Y-12952293D01*
X13417682Y-12952293D02*
X13417682Y-12990388D01*
X13417682Y-12990388D02*
X13427206Y-13009436D01*
X13427206Y-13009436D02*
X13436729Y-13018960D01*
X13436729Y-13018960D02*
X13455777Y-13028484D01*
X13455777Y-13028484D02*
X13493872Y-13028484D01*
X13493872Y-13028484D02*
X13512920Y-13018960D01*
X13512920Y-13018960D02*
X13522444Y-13009436D01*
X13522444Y-13009436D02*
X13531967Y-12990388D01*
X13531967Y-12990388D02*
X13531967Y-12952293D01*
X13531967Y-12952293D02*
X13522444Y-12933246D01*
X13522444Y-12933246D02*
X13512920Y-12923722D01*
X13512920Y-12923722D02*
X13493872Y-12914198D01*
X13598634Y-12828484D02*
X13731967Y-12828484D01*
X13731967Y-12828484D02*
X13646253Y-13028484D01*
X13798634Y-12828484D02*
X13798634Y-12866579D01*
X13874825Y-12828484D02*
X13874825Y-12866579D01*
X14170063Y-13104674D02*
X14160539Y-13095150D01*
X14160539Y-13095150D02*
X14141491Y-13066579D01*
X14141491Y-13066579D02*
X14131968Y-13047531D01*
X14131968Y-13047531D02*
X14122444Y-13018960D01*
X14122444Y-13018960D02*
X14112920Y-12971341D01*
X14112920Y-12971341D02*
X14112920Y-12933246D01*
X14112920Y-12933246D02*
X14122444Y-12885627D01*
X14122444Y-12885627D02*
X14131968Y-12857055D01*
X14131968Y-12857055D02*
X14141491Y-12838008D01*
X14141491Y-12838008D02*
X14160539Y-12809436D01*
X14160539Y-12809436D02*
X14170063Y-12799912D01*
X14331968Y-12828484D02*
X14293872Y-12828484D01*
X14293872Y-12828484D02*
X14274825Y-12838008D01*
X14274825Y-12838008D02*
X14265301Y-12847531D01*
X14265301Y-12847531D02*
X14246253Y-12876103D01*
X14246253Y-12876103D02*
X14236729Y-12914198D01*
X14236729Y-12914198D02*
X14236729Y-12990388D01*
X14236729Y-12990388D02*
X14246253Y-13009436D01*
X14246253Y-13009436D02*
X14255777Y-13018960D01*
X14255777Y-13018960D02*
X14274825Y-13028484D01*
X14274825Y-13028484D02*
X14312920Y-13028484D01*
X14312920Y-13028484D02*
X14331968Y-13018960D01*
X14331968Y-13018960D02*
X14341491Y-13009436D01*
X14341491Y-13009436D02*
X14351015Y-12990388D01*
X14351015Y-12990388D02*
X14351015Y-12942769D01*
X14351015Y-12942769D02*
X14341491Y-12923722D01*
X14341491Y-12923722D02*
X14331968Y-12914198D01*
X14331968Y-12914198D02*
X14312920Y-12904674D01*
X14312920Y-12904674D02*
X14274825Y-12904674D01*
X14274825Y-12904674D02*
X14255777Y-12914198D01*
X14255777Y-12914198D02*
X14246253Y-12923722D01*
X14246253Y-12923722D02*
X14236729Y-12942769D01*
X14589110Y-13028484D02*
X14589110Y-12828484D01*
X14674825Y-13028484D02*
X14674825Y-12923722D01*
X14674825Y-12923722D02*
X14665301Y-12904674D01*
X14665301Y-12904674D02*
X14646253Y-12895150D01*
X14646253Y-12895150D02*
X14617682Y-12895150D01*
X14617682Y-12895150D02*
X14598634Y-12904674D01*
X14598634Y-12904674D02*
X14589110Y-12914198D01*
X14798634Y-13028484D02*
X14779587Y-13018960D01*
X14779587Y-13018960D02*
X14770063Y-13009436D01*
X14770063Y-13009436D02*
X14760539Y-12990388D01*
X14760539Y-12990388D02*
X14760539Y-12933246D01*
X14760539Y-12933246D02*
X14770063Y-12914198D01*
X14770063Y-12914198D02*
X14779587Y-12904674D01*
X14779587Y-12904674D02*
X14798634Y-12895150D01*
X14798634Y-12895150D02*
X14827206Y-12895150D01*
X14827206Y-12895150D02*
X14846253Y-12904674D01*
X14846253Y-12904674D02*
X14855777Y-12914198D01*
X14855777Y-12914198D02*
X14865301Y-12933246D01*
X14865301Y-12933246D02*
X14865301Y-12990388D01*
X14865301Y-12990388D02*
X14855777Y-13009436D01*
X14855777Y-13009436D02*
X14846253Y-13018960D01*
X14846253Y-13018960D02*
X14827206Y-13028484D01*
X14827206Y-13028484D02*
X14798634Y-13028484D01*
X14979587Y-13028484D02*
X14960539Y-13018960D01*
X14960539Y-13018960D02*
X14951015Y-12999912D01*
X14951015Y-12999912D02*
X14951015Y-12828484D01*
X15131968Y-13018960D02*
X15112920Y-13028484D01*
X15112920Y-13028484D02*
X15074825Y-13028484D01*
X15074825Y-13028484D02*
X15055777Y-13018960D01*
X15055777Y-13018960D02*
X15046253Y-12999912D01*
X15046253Y-12999912D02*
X15046253Y-12923722D01*
X15046253Y-12923722D02*
X15055777Y-12904674D01*
X15055777Y-12904674D02*
X15074825Y-12895150D01*
X15074825Y-12895150D02*
X15112920Y-12895150D01*
X15112920Y-12895150D02*
X15131968Y-12904674D01*
X15131968Y-12904674D02*
X15141491Y-12923722D01*
X15141491Y-12923722D02*
X15141491Y-12942769D01*
X15141491Y-12942769D02*
X15046253Y-12961817D01*
X15217682Y-13018960D02*
X15236730Y-13028484D01*
X15236730Y-13028484D02*
X15274825Y-13028484D01*
X15274825Y-13028484D02*
X15293872Y-13018960D01*
X15293872Y-13018960D02*
X15303396Y-12999912D01*
X15303396Y-12999912D02*
X15303396Y-12990388D01*
X15303396Y-12990388D02*
X15293872Y-12971341D01*
X15293872Y-12971341D02*
X15274825Y-12961817D01*
X15274825Y-12961817D02*
X15246253Y-12961817D01*
X15246253Y-12961817D02*
X15227206Y-12952293D01*
X15227206Y-12952293D02*
X15217682Y-12933246D01*
X15217682Y-12933246D02*
X15217682Y-12923722D01*
X15217682Y-12923722D02*
X15227206Y-12904674D01*
X15227206Y-12904674D02*
X15246253Y-12895150D01*
X15246253Y-12895150D02*
X15274825Y-12895150D01*
X15274825Y-12895150D02*
X15293872Y-12904674D01*
X15370063Y-13104674D02*
X15379587Y-13095150D01*
X15379587Y-13095150D02*
X15398634Y-13066579D01*
X15398634Y-13066579D02*
X15408158Y-13047531D01*
X15408158Y-13047531D02*
X15417682Y-13018960D01*
X15417682Y-13018960D02*
X15427206Y-12971341D01*
X15427206Y-12971341D02*
X15427206Y-12933246D01*
X15427206Y-12933246D02*
X15417682Y-12885627D01*
X15417682Y-12885627D02*
X15408158Y-12857055D01*
X15408158Y-12857055D02*
X15398634Y-12838008D01*
X15398634Y-12838008D02*
X15379587Y-12809436D01*
X15379587Y-12809436D02*
X15370063Y-12799912D01*
M02*
